<svg xmlns="http://www.w3.org/2000/svg" viewBox="0 0 1075.54 292.85"><defs><style>.cls-1{fill:#8a373a;}.cls-2{fill:#97383a;}.cls-3{fill:#d84844;}.cls-4{fill:#db544d;}.cls-5{fill:#ab3d3d;}.cls-6{fill:#964947;}.cls-7{fill:#cb4542;}.cls-8{fill:#b6403f;}.cls-9{fill:#c44241;}.cls-10{fill:#e24c47;}</style></defs><g id="Layer_2" data-name="Layer 2"><g id="Layer_1-2" data-name="Layer 1"><path d="M1057.41,209.4c-3.8-7.05-1.79-14.62-1.62-21.92.12-4.76-3.31-10.95.72-13.83,3.15-2.26,9.08-.66,13.78-.81a9,9,0,0,0,5-.66v78.29c-5.35,1.13-9.27-.91-13-4.79-12.78-13.15-25.78-26-39.24-39.5v39.58h1.68c1.83-10.16-.3-20.68,1.24-31.63,3.81,2.32,4,5.34,4,8.18.11,8.11,0,16.25,0,24.37,0,5.13-3.49,3.62-6.22,3.88s-6,1.15-6-3.26q0-25,.13-50c0-.54.66-1.05,1-1.56l25.57,25.12L1069.78,246c2.13-2,1.43-4.26,1.43-6.39,0-19.18-.15-38.5.19-57.76,0-5.22-2-5.75-6.39-5.94-5-.24-5.56,2.13-5.45,6.11.17,7.05,0,14.1,0,21.16,0,2.32.51,4.83-2.39,6Z"/><path d="M1075.28,87.47c-2.13,1.11-1.94,3.58-2.94,5.37a21.32,21.32,0,0,1-19.83,11.72,36.94,36.94,0,0,1-5.76-.19c-5.22-.83-7.41.91-6.94,6.39s0,10.65.15,16c.13,3.35-.53,4.88-4.48,4.94-14.5.3-14.48.47-14.48-14V56.82c0-1.62-1.28-4.63,1.59-4.6s1.52,3,1.52,4.6c.1,21.58.27,43.18,0,64.76,0,5.75,2.36,6.69,7.13,6.82,5.12.15,5.37-2.68,5.25-6.54-.2-5.54,0-11.1,0-16.66-.11-3.52,1.12-5.09,4.85-4.86a56.6,56.6,0,0,0,10.25-.19c14.91-1.85,18.9-10.18,19.6-21.86.77-12.35-8.63-20.94-21.3-21.43-5.76-.21-13.13-2.47-16.77.81s-1.07,10.84-1.17,16.51c-.19,10.48,0,10.5,10.35,10.48a25.76,25.76,0,0,0,8.25-.74,5.65,5.65,0,0,0,4.26-5.73,5.83,5.83,0,0,0-4.26-5.69c-5.65-2-9.06,0-9.63,5.71-.13,1.38.49,3.17-1.94,3.19s-3.41-1.28-2.75-3.19c1.21-3.45-3.81-9.61,4.45-10.14,13.59-.88,18,1.15,18.39,8.9.4,8.25-3,12-11.14,12.08-5.12,0-10.27-.32-15.39-.17-3.17,0-4.56-.64-4.47-4.26.26-9.4.17-18.81,0-28.21,0-3.19,1-4.75,4.43-4.66,6,.15,12-.11,18,.15,12.53.57,20.84,7,25.08,18.74Z"/><path class="cls-1" d="M17.85,110.91A63.3,63.3,0,0,1,1.3,75.84c-.13-1,.13-2.13-1.3-2.49V61.78c2.75-4.26,2.13-9.61,3.75-14.34C7,38,10.46,28.68,16.66,20.64A12,12,0,0,1,18,26.78Z"/><path class="cls-2" d="M17.85,110.91q0-42.06.15-84.13a12,12,0,0,0-1.34-6.14C20.47,12.78,26.59,6.73,34.45,0c-1.22,17,3.71,31.27,10.29,45.1-3.39.94-2.13,3.75-2.13,5.86,0,13.61-.13,27.25,0,40.88a128.17,128.17,0,0,0,.45,15.92,75.5,75.5,0,0,1-.69,29.08A174.42,174.42,0,0,1,17.85,110.91Z"/><path d="M751.69,234.34a18.9,18.9,0,0,0,5.22-14.27c0-14.1-.13-28.23,0-42.33,0-1.62-1.32-4.39,1.75-4.6,3.79-.28,2.24,2.9,2.3,4.64.51,14.72-.17,29.44.6,44.19.78,15.53-12,28.12-27.7,28.42-5.52.1-11,.66-16.53-.86A26.78,26.78,0,0,1,696.56,223c-.11-14.77,0-29.51-.24-44.27,0-4.26.58-5.88,5.41-5.84,14,0,14-.17,14,13.89,0,10.48-.13,21,0,31.45.15,9.26,4.82,14,13.3,13.38a13,13,0,0,0,12.85-13.1c0-.4,0-.8-.07-1.2-.75-13.21,0-26.5-.32-39.75-.17-5.95,3.71-4.39,6.75-4.56s6-.41,5.9,4.71c-.4,14.31-.19,28.63-.1,43C754.16,225.33,752,229.55,751.69,234.34Zm-4.26-57c-1.72,2-.91,4.27-.91,6.2v36.52c0,8.39-4.58,13.59-12.79,15.21-14.48,2.92-22.24-3.3-22.37-18V180.79c0-3.65-2.13-3.75-4.62-3.39-2.13.3-5.64-1.56-5.6,2.92,0,15.59,0,31.21.55,46.87a13.18,13.18,0,0,0,7.95,12.1c-2.62-5.78-5.9-11-5.73-17.75.32-12.16,0-24.35.17-36.54,0-1.72-1.58-4.9,1.94-5s2.13,3.09,2.13,4.88c.12,10.65.4,21.3,0,31.95-.81,19.71,14.53,24.18,27.48,21.1,6.39-1.52,11.72-4.65,12.55-11.23a244.63,244.63,0,0,0,.36-49,6.57,6.57,0,0,0-1.13-.47Zm4,57c-12.79,12.79-27.06,10.32-42.46,4C718.65,250.54,746.56,247.55,751.42,234.34Z"/><path d="M961.26,122c5.73,5.26,13.27,6.22,20.49,6,18-.55,27.57-10.95,27.7-29.12V57.8c0-1.77-1.41-5,2-4.94,2.6,0,2,2.85,2,4.66,0,15.83.37,31.66,0,47.47s-14.61,28.25-30.44,27.1c-2.94-.24-5.94,0-8.88-.24-16.26-1.45-26.42-11.72-26.82-27.89-.41-15.61,0-31.23-.15-46.87,0-3.21.78-4.38,4.26-4.47,15.85-.43,15.85-.55,15.85,15.43v32.72c0,7.28,3.28,10.8,10.14,11.42,9.52.87,15-2.13,15.89-9.72,1.64-14.25.36-28.61.66-42.93a7.31,7.31,0,0,1,10.89-6.73c1.87.9,1.36,2.47,1.36,3.84,0,14.74.43,29.52,0,44.27-.66,20.07-21,31-39.75,21.62-1.43-.7-2.84-1.49-4.26-2.13Zm-1.81-3.8c-1.92-4.75-3.81-8.52-4.26-12.65-1.26-13.44-.34-26.89-.58-40.33,0-2.13-1.15-5.49,2.33-5.6s2.51,3.28,2.53,5.39c.11,12.18,0,24.35.17,36.54.13,9.2,4.77,15.29,13,17.61,10.26,2.92,21.43-.36,25.86-7.69a13.7,13.7,0,0,0,2.13-4.64c2.64-15.7.89-31.53,1.3-47.3,0-1.13-.28-2.32-1.64-2.13s-1.64,1.24-1.64,2.41v4.47c-.11,12.79,0,25.57-.41,38.46a13.29,13.29,0,0,1-11,13.23c-7.65,1.81-15.38,2.43-21.3-4.26a13.46,13.46,0,0,1-3-9.5c.26-13.45.13-26.91.62-40.35.17-5.05-2.51-4.8-5.92-4.82s-6.75-.25-6.39,5.16c.43,6.79,0,13.65,0,20.49,0,9.16-.77,18.43,1.85,27.38C954,112.91,954.42,116.6,959.45,118.19Zm-1.45.49a3.69,3.69,0,0,0,2.83,2.56,2.1,2.1,0,0,0,.66-1.38,2.83,2.83,0,0,0-2.62-2.3C958.68,117.53,958.24,118.37,958,118.68Z"/><path d="M332.64,186c3.28,5.51-.87,8-3.47,10.76s-5-.26-7.18-1.5A19.18,19.18,0,0,0,298,199a18.63,18.63,0,0,0-.74,23.44c6.07,7.88,15.38,10.2,23.84,5.88,1.89-1,3.66-2.13,5.54-3.22a3.06,3.06,0,0,1,4.3.52l.19.27c2.56,3.68,5.16,7.35,7.54,11.14,1.17,1.83.68,3.41-1.13,5-10.39,8.93-29.38,11.19-42.35,4.88-14.81-7.2-22.5-21.66-21.3-40.22.81-13.55,11.42-27.33,25.14-32a39.49,39.49,0,0,1,37,5.48c1.64,1.19,4.94,2.13,3.73,5.11S335.69,185.73,332.64,186ZM293,237.48c-.39,2.92,1.3,3.3,2.45,3.92,10.65,5.73,21.56,6.39,32.34.49,2.13-1.11,6.77-1.2,4.15-5.93-2-3.58-3.77-6.49-8.76-3.4a20.89,20.89,0,0,1-17.91,1.57,23.42,23.42,0,0,1-15.53-29.28c.15-.5.32-1,.51-1.48,4.62-13,18.17-18.81,31.34-13.64,1.83.73,3.64,3.05,6.2,1A23.44,23.44,0,0,0,300,187.62a27.87,27.87,0,0,0-14.38,27.7c2.77,18.24,23.29,29.08,38,20.58,1.49-.87,3.18-2.13,4.43,0s-.42,3.45-2.23,4.26a28.58,28.58,0,0,1-9.14,2.6A36.52,36.52,0,0,1,293,237.48Zm-.37-52.13c13.85-7.74,27.34-7.48,40.63,1.4C326,175.08,302.52,173.46,292.65,185.35ZM286.58,231a37.38,37.38,0,0,1-2.3-36.22c-9,8.44-8,29.85,2.3,36.18Zm-1.28.34c1.92,3.88,3.41,6,7.48,6.92a12.48,12.48,0,0,0-7.48-7Zm1.67-39.6c-.37-.3-.84-.92-1.18-.88a3.17,3.17,0,0,0-2.32,2.56c0,.21.75,1,1.09,1C285.94,194.25,286.5,193.1,287,191.74Z"/><path d="M786.63,184.34c4.26-1.34,7.5-2.55,10.91-3.47,9.8-2.62,18.55,0,26.65,5.58,2.45,1.69,4.07,3.9,1,5.84-2.69,1.68-2.41,9.1-8.69,4.45-7.44-5.49-15.6-5.64-22.12-1.17a19.12,19.12,0,1,0,22.56,30.85c3.54-2.39,5.74-2.13,8.31,1.75,8.74,12.91,8.69,13.5-5.73,19.64a39.17,39.17,0,0,1-53.26-28.72A39.55,39.55,0,0,1,784.63,178a40.22,40.22,0,0,1,44.48,3.11c1.45,1.15,4.69,2.13,2.54,4.73-1.77,2.13-3.84.32-5.59-.95-10.5-7.65-21.73-10.4-34.08-5.08C790,180.51,787.74,180.83,786.63,184.34Zm-5,2.13c-13.78,12.79-15.17,36.86-2.13,45.85a41.72,41.72,0,0,1-6.13-22.56c.27-8.73,4.26-15.34,9.56-21.65,1.69-1.19,4.26-1.78,3.62-4.83A7.18,7.18,0,0,0,781.6,186.47Zm6.65,52.65c-1.06-.88-2.43-2.77-3.51-1.26s1.06,2.13,2.27,2.85c10.93,6.93,22.12,6.69,33.45,1.09,5.82-2.87,6-5.28,1.32-9.52-2.85-2.58-4.73,0-6.86.89a23.92,23.92,0,0,1-28.44-6.39c-6.39-7.26-6.39-22.54-.68-29.67a24,24,0,0,1,28.25-7.33c1.73.64,3.28,2.92,5.67,1.4-4.26-6.18-13.4-8.24-22.93-5.32a27,27,0,0,0-17.68,33.93c.09.28.18.56.28.83a26.58,26.58,0,0,0,33.74,16.6c.72-.24,1.43-.52,2.13-.83,1.77-.77,4-3.15,5.39-.15s-1.89,3.9-3.92,4.67A34.12,34.12,0,0,1,788.25,239.12Z"/><path d="M545.06,187.09c2.35,4.92-2.13,7.5-4.26,10.31-1.68,2.13-3.79-1.42-5.88-2.13-3.43-1.08-6.75-2.64-10.24-3.47-3-.68-6.78-1.83-8.18,2.41s2.32,5.47,5.13,6.73c4.86,2.13,10.08,3.62,14.72,6.14a21.46,21.46,0,0,1,11.78,22.3,22.87,22.87,0,0,1-17,20.15,38.27,38.27,0,0,1-22.58-1.34c-15.24-5.17-16.3-9.24-5.84-21.49,1.77-2.13,3-1.58,4.81-.47a32.86,32.86,0,0,0,13.68,5.07c3.11.36,6.52.34,7.44-3.24s-2.37-4.67-4.88-5.75c-5.48-2.32-11.34-3.69-16.36-7.1a21.94,21.94,0,0,1-10-23.79c1.75-9.44,7.33-15.92,16.79-18.07,12.29-2.79,23.54.85,33.85,7.39,3.24,2.13,2.26,4.26-1.38,5a47.78,47.78,0,0,0-15.51-7.26c-7.37-2.13-14.64-2.75-21.3,2.25a2.74,2.74,0,0,0-2.24,1.71,17.68,17.68,0,0,0,.87,27.69,39.87,39.87,0,0,0,12,5.93,26.56,26.56,0,0,1,9.31,4.11,8.52,8.52,0,0,1,3.37,9.61c-1.26,3.87-4,5.45-8.27,5.6a30.73,30.73,0,0,1-16.1-2.92c-5-2.66-4.79,2.49-6.56,4.43-2.6,2.9.59,3.54,2.26,4.26a50,50,0,0,0,17,4.92c9.84,1,18.32-5.17,21.94-15.85,2.13-6.39-1.92-14.91-9.86-19.43a53.73,53.73,0,0,0-9.44-3.85,41.17,41.17,0,0,1-8.76-3.84,8.27,8.27,0,0,1-3.68-10,7.63,7.63,0,0,1,8.18-5.84,34.53,34.53,0,0,1,13.74,2.43c1.79.73,3.52,2.77,6.39.83-4.52-3.92-9.82-5-15.17-6-7.56-1.37-14.25,2.13-16,8.35-1.59,5.79,1.69,11.23,8.91,14.34,4.88,2.13,9.95,3.79,14.76,6,6.74,3.12,8.89,8.89,8.1,15.88a14.52,14.52,0,0,1-10.65,13.06,30.34,30.34,0,0,1-21.84-2.13c-1.41-.69-3.49-1.45-2.3-3.71s2.83-1.11,4.47-.6c3.48,1,6.93,2.13,10.46,2.9a13.16,13.16,0,0,0,14.92-8.25c1.87-5.83-.54-10.8-7.12-13.86-3.64-1.71-7.56-2.86-11.29-4.39-13.93-5.69-17-16.24-8.52-28.42l2-1.49a24.28,24.28,0,0,1,11.63-2.5C530.83,179.7,537.93,183.34,545.06,187.09Z"/><path class="cls-3" d="M95.25,119.3a94.37,94.37,0,0,1,13.89,23.44c-2.75.36-2.51,2.45-2.51,4.26v76.88c0,2.13-.24,4.46,2.83,4.82a42.44,42.44,0,0,1-14.32,15.64c4.26-14.7,2-28.76-2.72-42.61,3.55-.58,2.62-3.39,2.62-5.54V129.64C95.17,126.16,92.52,122.63,95.25,119.3Z"/><path d="M557.57,61.78c2,.19,2.45-1.64,3-2.77,3-6.39,8.12-8.18,14.66-7.16,1.36.24,3.19-.81,4,.92s-.76,2.77-1.57,3.92c-6.69,9.63-13.17,19.41-20.3,28.7a26.47,26.47,0,0,0-6,18.85c.51,7.65,0,15.34.17,23,0,3.28-.89,4.26-4.26,4.47-15.72.64-16.74.66-15.45-14.76,1.39-16.53-2.76-30.32-13.63-42.61a175.1,175.1,0,0,1-12.89-18.26c-.66-1-2.83-2.13-.91-3.66,1.38-1.11,2.79.28,4.26.55,2.36.47,1.85,5,5.36,3.73h0c-2.4,2.56.64,3.75,1.56,5.14Q524.1,74.65,533.24,87a18.92,18.92,0,0,1,3.24,13.12c-.47,7.88-.17,15.79-.45,23.67-.17,4.83,2.79,4.62,6.2,4.73,3.79,0,4.92-1.07,5.18-5.07.76-12.55-2.52-25.38,3.26-39-4.69,3.79-7.12,6.84-7.08,11.54.13,8.53,0,17,0,25.57,0,1.32.52,3.26-1.81,3.32a2,2,0,0,1-2.13-2.49c.64-12.06-1.51-24.22,1.35-36.22h0a3.23,3.23,0,0,0,2.62-3.75.4.4,0,0,0,0-.15h0a49.38,49.38,0,0,0,11.59-16.72h0c1.86-.66,3-1.77,2.62-3.92Zm-4.94,19.71A24.45,24.45,0,0,0,561.3,69a23.72,23.72,0,0,0-8.67,12.55Zm9-12.78A33,33,0,0,0,571,56.24c-5.07,3.28-7.12,5.95-9.35,12.64Zm-10,12.65A14.89,14.89,0,0,0,549.47,84c-.38.9.26,1.73,1.22,1.15a6.7,6.7,0,0,0,1.94-2.32c.19,0-.49-.6-1-1.28Z"/><path class="cls-4" d="M215.79,52.39c4.86-1.49,6.39.36,6.39,5.32q-.19,92.71,0,185.35c0,5-1.58,6.71-6.39,5.2Z"/><path class="cls-5" d="M42.18,136.84a75.5,75.5,0,0,0,.68-29.08,130.13,130.13,0,0,1-.44-15.92c-.11-13.63,0-27.27,0-40.88,0-2.13-1.18-4.92,2.13-5.86l13.18,22c-1.57,2.51-1.19,5.32-1.19,8.07V141A16.13,16.13,0,0,1,55,149.62Z"/><path class="cls-6" d="M206.84,248.51c-4.52,1.32-6.13-.4-6.11-5q.12-93.17,0-186.28c0-4.77,1.72-6.22,6.13-5A48.11,48.11,0,0,0,205.52,66c0,7.89,1.45,15.62,1.43,23.54C206.65,142.57,206.84,195.55,206.84,248.51Z"/><path d="M731,65.74c12.2-6.39,24.5-8.13,37-.95,7.33,4.26,7.38,5.39,1.45,11.31-3.07,3-5.26,2-8.28,0a18.57,18.57,0,0,0-21.56.57c-6.82,5.22-8.93,12.34-7.29,20.5a19.72,19.72,0,0,0,16.13,14.57,12.22,12.22,0,0,0,9.56-1.87c-.91-2.14-2.68-1.56-4-1.43-5.77.57-3.62-3.86-4.13-6.39-.56-3,.34-5.07,4-4.56a12.31,12.31,0,0,0,1.92,0c15.91-.34,15.81-.36,15.36,15.53a8.34,8.34,0,0,1-5.11,8c-11.74,5.86-23,4.69-34-2.13-1.47-.92-2.35-4.07-5-1.92v.19c2.28-2.68-.9-3.58-1.86-4.94C716,99,717.16,85.62,724.59,72.14h0a18.32,18.32,0,0,0,6.5-6.5ZM767,109.48c0-9-1.47-10-10.49-8.71-1.34.19-2.85.3-2.94,1.79-.14,2.3,1.73,1.79,3.2,1.87,2.6.15,5.86-.93,6.39,3.37s-1.53,6.2-5.45,7.2a22.77,22.77,0,0,1-23.88-7,21.84,21.84,0,0,1-4.46-24.33,22.08,22.08,0,0,1,20-14.65,24.2,24.2,0,0,1,14.14,3.21c1.37.79,2.67,1.43,3.88-.23s0-2.47-.83-3.26a15.43,15.43,0,0,0-3.35-1.85,27.94,27.94,0,0,0-33.21,7c-8,9.25-9.18,23.93-2.79,33.39a29,29,0,0,0,33.68,11.59C766,117.17,768.16,114.13,767,109.48Z"/><path class="cls-7" d="M95.25,119.3c-2.73,3.43,0,7-.11,10.44-.15,22.18,0,44.36,0,66.56,0,2.13.94,5-2.62,5.53L79.36,178.4a15.91,15.91,0,0,0,1.7-8.65V109.52a14.82,14.82,0,0,1,1.47-8.07A120.25,120.25,0,0,1,95.25,119.3Z"/><path d="M727.11,116.92c12.18,14.42,32.29,13.5,45.76,2.87a4.6,4.6,0,0,0,1.47-4.05c0-6.83,2.28-15.18-.83-20.08s-12.25-.92-18.62-1.92c-1.75-.28-5,1.66-4.86-2.13,0-2.92,2.9-1.9,4.58-1.92,6.63-.11,13.27,0,19.9-.11,3.26,0,4.54.83,4.43,4.26-.23,7.91-.11,15.81,0,23.72a6.65,6.65,0,0,1-2.62,6.13c-23.86,17-56.33,7.93-64.15-23a40.29,40.29,0,0,1,17.26-42.48,41.33,41.33,0,0,1,45.78,2.13c1.66,1.28,5.71,2.24,3.43,5.42s-4.26-.11-6.2-1.52a34.24,34.24,0,0,0-38.34-2.68c-1.41.85-4.27,1-3,4.05h0c-4.54.27-6.24,2-6.5,6.49h0c-1-1.47-1.83-.34-2.42.37-10.36,12.18-7.84,34.79,4.94,44.73Z"/><path class="cls-8" d="M55,149.62A16.13,16.13,0,0,0,56.54,141V75.18c0-2.75-.38-5.56,1.19-8.07L71.09,86c-2.66,1.86-1.66,4.65-1.68,7v62a15.41,15.41,0,0,1-1.56,8.65Z"/><path class="cls-5" d="M206.84,248.51V89.6c0-7.92-1.4-15.65-1.43-23.43a47.89,47.89,0,0,1,1.32-13.91,8.53,8.53,0,0,1,5.07.42V248.19A7.74,7.74,0,0,1,206.84,248.51Z"/><path d="M918.46,211.8c0,11.34-.13,22.65,0,34.09,0,3.5-.77,4.73-4.56,4.82-15.59.36-15.59.49-15.59-14.92,0-19,.3-38-.17-57-.17-6.11,3-5.69,7-5.9s5.93.7,5.84,5.54c-.32,19.64-.13,39.3-.13,59a32.62,32.62,0,0,1-.15,3.83,2,2,0,0,1-2.09,1.82h0c-1.4,0-1.68-1-1.72-2.13V182.53c0-1.83,1.25-5.05-2.13-5s-2.13,3.17-2.13,5.05c0,19.45,0,38.9-.11,58.33,0,4.56,1.62,5.79,6,5.79s6.07-1.17,6-5.75c-.2-18,0-35.92,0-53.86a54.82,54.82,0,0,1,0-7.69c.32-2.13-1.71-6.13,1.76-6.39,4.07-.21,2.14,3.94,2.14,6.05C918.59,190,918.46,200.92,918.46,211.8Z"/><path d="M665.5,92.69c0,20.41-18.18,39-37.65,39.71a40.46,40.46,0,0,1-42.83-38c-.06-.94-.08-1.88-.07-2.82,0-22.14,18.1-39.54,40.86-39.71C647.47,51.73,665.43,70.3,665.5,92.69Zm-76-.89a36,36,0,0,0,35.45,36.6h.43c19.32.38,35.92-15.89,36.21-35.62a36.09,36.09,0,1,0-72.13-2.44c0,.49,0,1,0,1.46Z"/><path d="M387.52,132.09A39.83,39.83,0,0,1,347.8,92.17c0-.19,0-.38,0-.56.19-21.78,18.07-39.2,40.48-39.52,21.51-.32,40.07,18.36,40.37,40.65C429,113.83,410.12,131.89,387.52,132.09Zm36.86-39.48c.51-19.84-15.09-35.79-35.82-36.62-19-.75-35.91,15.72-36.4,35.51a36.4,36.4,0,0,0,35.8,37h.41c19.37.17,35.58-15.92,36-36Z"/><path d="M859.53,92A39.56,39.56,0,0,1,898.58,51.9h1c22.46,0,40.27,18.47,40.2,41.77,0,18.92-18.66,38.35-36.81,38.61C877,132.51,859.51,116.26,859.53,92Zm76,0a35.79,35.79,0,0,0-35.36-36.22h-.85c-19.56-.23-35.9,16.43-35.92,36.62a36.47,36.47,0,0,0,36.71,35.9A35.91,35.91,0,0,0,935.5,92.05Z"/><path d="M839,90.58c2.49,2.33,3.23-.36,4.15-1.64a19.94,19.94,0,0,0-5.23-27.71,20.63,20.63,0,0,0-3.29-1.81c-8.52-3.52-17.62-2.64-26.55-2.67-4,0-2.53,3.31-2.53,5.27v57c0,1.51-.1,3-.26,4.51a2.35,2.35,0,0,1-4.7-.19v-3.19c0-20.73.14-41.46-.13-62.17,0-4.9,1.51-6.39,6.22-6.11,8.92.32,17.94-.26,26.69,2.13C844.3,57,850.76,64.68,851,74.78c.34,14.91-4.13,22.86-16,26.46-4.49,1.34-3.58,2.92-2.13,5.64,2.64,4.86,5.22,9.76,7.84,14.64.66,1.28,2.13,2.68.24,3.85a2.86,2.86,0,0,1-4-.87.21.21,0,0,0,0-.06c-4.41-7.78-8.8-15.6-12.91-23.44-1.53-2.94,1.73-2.4,2.88-2.6a24.91,24.91,0,0,0,11.69-4.66c1.09-.88,2.86-1.81.6-3.35Z"/><path d="M457.4,101.62c-.53-4.47,2.34-7.8,3.85-11.59h0a8.81,8.81,0,0,0,5.16-6.39h0c3.92-3.66,8.52-7,9-12.93h0c3.58.13,4.39-2.54,5.22-5.18h0c3.28-1.77,4.82-4.88,6.84-8.07-8.05-1.81-14.21-.81-18.47,6.6-2.41,4.26-6.09,7.71-8.91,11.74-4.26,6-10.09,10.84-12.91,17.9h0c-3.87,1.29-3.75,4.62-3.79,7.77v19.86c0,1.76,0,3.83-2.13,3.92-2.75,0-1.83-2.41-1.85-3.86V97a8.62,8.62,0,0,1,2.13-5.75C450.77,79.55,460,67.85,469.24,56a9.36,9.36,0,0,1,8.52-4.27c6.4.35,12.79,0,19.18,0,.91,3-1.34,4.27-2.52,5.69-9.26,12-18.53,24-28.1,35.75-2.51,3.13-2.53,5.28-.14,8.33,4.72,6,9.2,12.29,13.63,18.58,1,1.36,3.81,2.83,1.79,4.64s-4.26,0-5.84-1.91c-3.39-4.41-6.56-9-9.95-13.34-1.21-1.58-1.85-3.84-4.26-4.26h0c-.34-2.28-.81-4.41-3.92-3.9Z"/><path d="M418.92,211.93a38.9,38.9,0,0,1-39.05,38.76h-.15c-21.3,0-38.19-17-38.9-35.15-1-25.77,15.53-43.27,39.39-43.39C402,172,419,189.48,418.92,211.93Zm-3.73-.7a34.6,34.6,0,0,0-34-35.22H380a35.31,35.31,0,0,0,.19,70.61C399.88,246.76,415.09,231.38,415.19,211.23Z"/><path class="cls-9" d="M67.83,163.7a15.41,15.41,0,0,0,1.56-8.65V93c0-2.4-1-5.19,1.68-7a103.94,103.94,0,0,1,11.29,15.26,14.68,14.68,0,0,0-1.4,8.07v60.23a16,16,0,0,1-1.71,8.65Z"/><path class="cls-10" d="M109.46,228.74c-3.07-.36-2.83-2.66-2.83-4.81V147c0-1.92-.24-4,2.51-4.26,13.46,26.35,17.56,53.26,3.77,80.78A12,12,0,0,1,109.46,228.74Z"/><path d="M862.67,172.14H886.4c2.83,0,4,.51,4.26,3.77.77,14.65.89,14.65-13.81,14.65-12.78,0-12.78,0-12.78,12.79V238c0,1.74,1.47,5-2.13,4.9-2.79,0-1.9-2.88-1.92-4.63,0-15.59,0-31.19-.12-46.87,0-3.92,1.23-5.34,5.19-5.11,5.76.34,11.55,0,17.3.36,5.05.39,4-2.89,4.26-5.75.34-3.41-.49-4.94-4.43-4.86-12.61.26-25.24,0-37.85.15-1.43,0-4-1-4,1.64s2.65,1.52,4.12,1.54h34.08c2,0,5-.62,4.82,2.53-.19,2.6-3,1.73-4.8,1.73-12.78,0-25.67-.24-38.49.17-5.65.17-4.54-3.05-4.86-6.39-.41-4.26.87-5.65,5.18-5.46C847.69,172.37,855.19,172.14,862.67,172.14Z"/><path d="M793.62,91.48V57.39c0-1.81-1.39-5.09,1.75-5.09,2.3,0,1.34,3.15,1.34,4.86q.12,32.4,0,64.78c0,3.73-.47,6.72,5,6.52,4.41-.12,7.16-.36,6.59-6a113.4,113.4,0,0,1,0-17.29c.1-2.33-1.86-5.93,2.79-6.52,4.26-.58,8.35-1.49,10.9,3.77,3.63,7.48,7.74,14.7,11.7,22,1.85,3.41,8.52,5.46,12,3.75,2.28-1.1.76-2.3.1-3.51l-9.39-17.45c-.79-1.45-2.26-3,.36-4.07,2-.83,3.22,0,4.26,1.77,4.26,7.9,8.35,15.83,12.63,23.69,1.35,2.47.17,3-2,3-5.77,0-11.55,0-17.32.23-3,.13-3.39-2.13-4.26-3.88-3.86-7.11-7.61-14.29-11.46-21.43-.88-1.58-1.49-4-4-3.13-2.13.77-1.08,3-1.13,4.49-.12,6,0,12,0,17.94,0,1.3.54,3.2-.1,3.75-5,4.41-11.19,1.05-16.79,2.13-3.32.6-2.94-2.28-3-4.37V91.44Z"/><path d="M666.63,221.16c1.42.4,2.85.7,3.64,2.13,4.54,8.65,9.12,17.28,14.36,27.22h-21c-2.58,0-3.3-2.42-4.26-4.26-3.66-7-7.24-14-10.93-21-.74-1.41-1.25-3.58-3.51-3s-1.3,2.83-1.32,4.26c-.13,6.6.83,13.4-.28,19.83-1.6,9.1-9.37,2.34-14,4.26-3,1.17-5.43.15-5.37-4.26.3-23.07.22-46.14.36-69.24,0-1.42-1.12-3.87,1.67-4,3.28-.15,2.13,2.62,2.13,4.26,0,21.16.15,42.31,0,63.46,0,4.27.89,5.93,5.58,6s5.2-2.13,5.05-5.82c-.22-5.54-.24-11.12,0-16.66,0-2.38-1.79-6.39,2.64-6.58,3.75-.19,8.12-1.38,10.46,3.73s6.18,10.29,8.29,15.83c3,7.77,7.64,11.39,16.66,8.65l-9.65-18c-1.18-2.13-2.48-4.39-.41-6.79Z"/><path class="cls-2" d="M31.79,222.41a49.72,49.72,0,0,1-12.62-14.06A13.6,13.6,0,0,0,20.6,201V165.28a13.66,13.66,0,0,0-1.43-7.4c2.13-6.51,7.29-10.48,12.79-16.19a69.23,69.23,0,0,0,2.83,21.46c-2.13,1.83-1.34,4.26-1.34,6.6v46.17C33.36,218.15,34.19,220.71,31.79,222.41Z"/><path class="cls-5" d="M31.79,222.41c2.4-1.7,1.57-4.26,1.59-6.49V169.75c0-2.24-.85-4.77,1.35-6.6L49,188.24c0,14.19,0,28.4-.24,42.61,0,2.41,1,5.18-1.68,7A123.29,123.29,0,0,1,31.79,222.41Z"/><path d="M461.25,90c-4.26,1-10.14,8.52-10.18,13.55,0,7.69-.21,15.38,0,23.07.15,4-1.3,5-5.13,5.2-15.53.7-15.58.83-15.53-14.91q0-29.14.25-58.33V54.77a2.32,2.32,0,0,1,2.15-2.48h.24c2.32.13,1.45,2.13,1.47,3.45q.19,17.33.25,34.62c0,10.65.24,21.3,0,32-.15,5.17,2.62,5.22,6.39,5.24s5.93-.43,5.78-5.14c-.3-9.54,0-19.17.13-28.69h0c2.91,1.45,3.36-1.52,4.26-2.77q11.16-13.62,21.94-27.55c2.13-2.9,4.56-4.26,8-2.64.3,1.79-3,2.75-.87,4.79h0c-3.52,0-4.54,2.41-5.22,5.18h0c-2.86.87-4.16,3.45-5.46,5.62s-5.47,3.43-3.55,7.31h0c-4.05.28-5.88,2.34-5.16,6.39Z"/><path d="M666.82,221.05c-3.71-.66-7-.89-4.05,4.45,2.51,4.65,5.18,9.27,7.54,14,.51,1,2.54,2.39.51,3.73a2.91,2.91,0,0,1-4-.7c-4.39-7.5-8.74-15.05-12.64-22.8-1.19-2.36,1.69-2.13,3.22-2.58,3.54-1,8.14-.25,9.52-5.24h0c3.65,1.26,4.56-1.15,5.22-3.9h0c6.78-6.22,5.48-22.69-5.84-28-9.07-4.26-18.76-3.26-28.31-3-4,.11-2.7,3.75-2.7,6v58.29a1.51,1.51,0,0,1-1.43,1.72c-1.39.13-1.85-.72-1.85-1.94V234c0-17.94.17-35.87,0-53.79,0-5.28.38-8.22,7-7.52,7.33.81,14.91-.72,22.2.6,10.18,1.79,17.17,7.39,19.17,17.85,2.43,12.14-1.47,21.11-11.42,27.42-.85.53-2.72.53-2,2.45Z"/><path d="M560.64,177.82c1.38,2.67,3.81,1.69,5.77,1.69h33.38c1.64,0,4.44-1.15,4.46,1.94s-2.58,2.13-4.37,2.13c-13.06,0-26.12-.13-39.18,0-4,0-4.75-1.49-4.26-4.9.47-3-1.85-7,4.26-6.93,15.83.3,31.68.17,47.53,0,3.37,0,4.26,1.05,4.41,4.39.47,14,.58,14-13.14,14s-13.81,0-13.81,13.78v34.64c0,1.49.92,3.86-1.72,4-3.39.23-2.13-2.58-2.13-4.14,0-16,0-32.08-.13-48.12,0-3.43,1-4.41,4.26-4.26,6.39.23,12.78,0,19.17,0,3,0,3.79-1.52,3.35-4s1.55-6.39-3.16-6.39c-14.55,0-29.08.24-43.63.45A5,5,0,0,1,560.64,177.82Z"/><path d="M573.85,220.92c0-8.11-.28-16.25.1-24.35.24-5-1.66-6.52-6.39-6.07a82.66,82.66,0,0,1-8.33,0c-1.19,0-2.77.58-2.75-1.47a2.14,2.14,0,0,1,1.86-2.28,167.19,167.19,0,0,1,17.91-.19c2.92.19,1.81,3.43,1.84,5.35,0,16,.21,32.06,0,48.08,0,4.56,1.38,5.58,5.77,5.75,5,.17,4.88-2.3,4.86-5.81q-.18-20.2,0-40.48c0-2.13-1-5.48,2.57-5.41s2,3.26,2,5.09c.1,15.38,0,30.76.12,46.14,0,4.26-1.25,5.5-5.49,5.5-14.11,0-14.11.13-14.11-14Z"/><path d="M852.16,219.64c0-7.9-.21-15.8,0-23.69.17-4.26-1.3-5.81-5.47-5.47-3,.26-6,0-9,0-1.05,0-2.32.28-2.56-1.13a2.13,2.13,0,0,1,1.58-2.56,2.06,2.06,0,0,1,.55-.06c5.56-.21,11.12-.6,16.64-.3,3.88.19,2.68,3.77,2.71,6,.1,15.81.19,31.62,0,47.4,0,4.26.76,5.9,5.49,5.92,5.12,0,5.22-2.3,5.2-6.19-.11-13.45,0-26.91.24-40.35,0-1.86-1.13-5.1,2.13-5s1.64,3.32,1.64,5.05c.15,15.36,0,30.74.19,46.1,0,4-.51,5.58-5,5.52-14.36-.26-14.36,0-14.36-14.68Z"/><path class="cls-9" d="M211.91,248.19V52.58a4.25,4.25,0,0,1,3.88-.19v196A4.48,4.48,0,0,1,211.91,248.19Z"/><path d="M666.82,211.91A59.87,59.87,0,0,1,643,214.36c-1.52-.11-4,.26-4.05-2s2.24-2,3.9-2.13c3.38-.15,6.79-.36,10.18-.34,8,0,14.57-4.5,15.34-10.65.89-7.25-3.66-12.45-12.36-14.3a28.06,28.06,0,0,0-10.8-.51c-1,.19-2.23.45-2.34,1.75-.13,1.7,1.28,2.13,2.51,2.13a81.81,81.81,0,0,0,8.29-.28c5.9-.34,11.08,3.05,11.4,7.92.36,5.91-3.3,9-8.52,10.38s-10.23.21-15.32.36c-2.45,0-2.84-1.62-2.56-3.45.36-2.58-1.55-6,1.49-7.58,2.5-1.32,2.75,1.27,2.64,2.87-.31,4.73,2.84,4.26,5.86,4.26,4.46-.25,9.57,0,11.34-5.13,1.06-3.22-2.13-4.43-4.71-4.71a64,64,0,0,0-12.14-.32c-4.73.36-4.84-2.43-4.48-5.62s-2-7.46,4.26-7c4.9.34,9.87,0,14.7.68,12,1.57,17.77,10.88,14.77,22.69-.37,1.4-2.94,3.13-.37,4.88h0c-3.21-.66-4,1.93-5.22,3.89Z"/><path d="M839,90.58l.23-.23c-8.52,6.39-18.62,5-28.35,5.09-1.35,0-2.58-.57-2.6-2.13,0-2.13,1.64-2.13,3.15-2.24,5.52-.31,11,.67,16.53-.78,7-1.86,10.95-6.39,10.65-13.08-.32-6.4-4.6-10.66-11.57-11.53-3.79-.47-7.6-1.45-11.46-.68-1,.19-2.28.42-2.25,1.77s1.29,1.42,2.34,1.47c3.41.12,6.84,0,10.22.36,4.84.53,8.7,2.6,9.19,8.07s-2.73,8.8-7.76,10.17-10.16.91-15.27,1c-2.33,0-3-1.09-2.9-3.09.21-2.88-1.26-6.39,1.09-8.52,1.57-1.41,2.32,1,2.13,2.49C812,84.09,816.2,83.19,819,83c4.13-.1,9,.13,11-4.62,1.21-2.77-1.09-4.26-3.48-5.07a35,35,0,0,0-13.31-1.17c-5.58.49-4.07-3.54-4.26-6.39s-.7-6.23,4.26-5.71c3.17.32,6.39,0,9.61.1C841.66,61.19,848.71,74.56,839,90.58Z"/><path d="M1063.65,228.81c2.23,2.87,5.62,5.34,3.39,9.69l-53.22-53.15v62.37c0,1.18.34,2.75-1.64,2.71-1.62,0-2.13-1-2.13-2.51V175.63l26.88,26.06A350.44,350.44,0,0,0,1063.65,228.81Z"/><path class="cls-3" d="M81.21,280.11a36.32,36.32,0,0,1-7.14,11.07c-1,1.24-2.36,2.13-3.85,1.41s-.26-2.13,0-3.26c1.47-6.16.19-12.16-1.26-18.13,2.47-1.64,1.64-4.26,1.66-6.39,0-15.55,0-31.08.13-46.64a52.89,52.89,0,0,1,10.31,19.41c-.45.71-1.25,1.41-1.25,2.13q-.14,18.89,0,37.78C79.78,278.34,80.72,279.23,81.21,280.11Z"/><path d="M513.92,56.71c-.73-3-1.15-5,3.58-5,6.52,0,11.65,1,14.91,7.35a53.93,53.93,0,0,0,5.5,7.82c1.4,1.94,3.06,4.14,1.21,6.29-2.64,3-3.22-2.47-6.07-1.49a6.69,6.69,0,0,0,4.26,6.51c1.94.75,2.83-2.55,4-4.26,4.26-6.11,8.52-12.22,12.49-18.51,1.85-2.88,3.92-4.26,7.3-3.11.58,3.81-5.47,5.22-3.28,9.52h0c-2.62.15-4.36.86-2.62,3.92h0c-3-1.45-3.24,1.6-4,2.92-2.67,4.52-7.52,7.88-7.59,13.81h0c-3,0-3.68,1-2.6,3.9h0c-3.45.7-6,0-7.77-3.54A45,45,0,0,0,527.83,75c-4.64-6-8-13.12-13.93-18.19ZM533.84,72c-2.79-6.67-3.24-7.22-7.14-9.29C528.34,67.7,528.94,68.66,533.84,72ZM521.78,56.37C524,61,524,61,527,61.91,525.66,58.65,525.66,58.65,521.78,56.37Z"/><path d="M1027.86,109c0-16,0-15.94,16.47-16.17,5.56,0,11.39,0,15.23-5,3.36-4.46,4.77-9.21,2.32-14.92s-6.56-7.6-12-8c-3.63-.27-7.27-.15-10.91-.17-1.58,0-3.13-.15-3.09-2.26s1.45-2.38,3.11-2.32a122.13,122.13,0,0,1,16,.66c8.52,1.39,12.78,8.78,12.38,20.24a15.72,15.72,0,0,1-14.3,15.47,153.61,153.61,0,0,1-16.61.74c-3.54,0-5,.92-4.8,4.67.3,6.6.21,13.23.24,19.86,0,1.38.55,3.45-1.54,3.57s-2.55-1.74-2.53-3.62C1027.88,117.49,1027.86,113.21,1027.86,109Z"/><path d="M1057.3,209.29c-1,4.71,3.58,5.48,6.39,10V184.6c0-1.6-1.15-4.43,1.81-4.41s2.13,2.73,2.13,4.52v38.88c0,1.59,1.07,4.26-2.43,3.72q-13.44-13.6-27-27.18l-27-23.6c5.24-4.93,7.54-3.52,9.93-1.09q15.66,16,31.51,31.83c1.15,1.13,1.91,4.26,4.71,2.13Z"/><path d="M470.82,208.78c-3.77-7.05-1.77-14.61-1.6-21.92.13-4.73-3.3-11,.73-13.83,3.15-2.26,9.07-.66,13.76-.81a8.71,8.71,0,0,0,5-.66v78.29c-5.37,1.15-9.27-.91-13-4.79-12.79-13.14-25.78-26-39.27-39.5v39.59h1.71c1.83-10.17-.3-20.69,1.23-31.62,3.82,2.32,3.94,5.33,4,8.16.13,8.12,0,16.26,0,24.37.1,5.14-3.52,3.62-6.22,3.88s-6,1.15-6-3.26c0-16.68,0-33.34.1-50,0-.53.69-1,1-1.56q12.78,12.6,25.56,25.12t25.44,25.14c2.13-2.13,1.43-4.26,1.43-6.39,0-19.18-.15-38.5.17-57.74,0-5.22-2-5.77-6.39-6-5-.24-5.57,2.13-5.46,6.11.17,7.05,0,14.11,0,21.18,0,2.3.51,4.81-2.38,6Z"/><path d="M477,228.15c2.26,2.87,5.62,5.34,3.41,9.69l-53.26-53.11v62.38c0,1.15.34,2.72-1.66,2.7-1.6,0-2.13-1.06-2.13-2.53V175L450.15,201C458.76,210.42,467.52,219.64,477,228.15Z"/><path d="M470.69,208.63c-1,4.71,3.58,5.5,6.39,10V183.94c0-1.6-1.17-4.43,1.81-4.41s2.13,2.73,2.13,4.52V223c0,1.57,1.07,4.26-2.42,3.7l-27-27.18-27-23.6c5.24-4.9,7.55-3.5,9.91-1.07,10.46,10.65,20.94,21.3,31.53,31.81,1.13,1.15,1.92,4.26,4.69,2.13Z"/><path class="cls-9" d="M62.91,258.18,52.56,244.1a3.6,3.6,0,0,0,1.38-3.36c-.55-11.87,2.13-23.63,1.34-35.52-.12-2.13-.78-4.77,1.75-6.39a63.86,63.86,0,0,1,8.52,11.76c-2.13,1.83-1.28,4.26-1.3,6.56v34.39C64.19,253.82,65,256.33,62.91,258.18Z"/><path d="M461.21,105.41c-2.53,1.37-.23,2.6.34,3.45q4.4,5.51,8.23,11.42c4.09,7.57,10.2,8.52,18.34,6.61l-17.19-23.22A37.45,37.45,0,0,1,468,99.4a2.78,2.78,0,0,1,.89-3.84l.13-.08c1.53-1,2.3.37,3,1.35,8.41,11.2,16.8,22.45,26.14,34.91H474c-1.47,0-2.26-1-3-2.13-5-6.66-10.14-13.23-14.92-20.09-1.76-2.59-3.19-6,1.32-8h0c.35,2.28.66,4.56,3.92,3.9Z"/><path class="cls-1" d="M19.17,157.88a13.63,13.63,0,0,1,1.39,7.4V201a13.58,13.58,0,0,1-1.39,7.39C8,193.53,8,175,19.17,157.88Z"/><path class="cls-7" d="M62.91,258.18c2.13-1.85,1.28-4.26,1.28-6.58V217.22c0-2.13-.85-4.73,1.3-6.57a19.25,19.25,0,0,1,5.18,7.5c0,15.56,0,31.09-.13,46.64,0,2.13.81,4.77-1.66,6.39C66.94,266.85,64.93,262.51,62.91,258.18Z"/><path class="cls-8" d="M57,198.89c-2.53,1.56-1.87,4.14-1.75,6.4.79,11.88-1.89,23.64-1.34,35.51a3.62,3.62,0,0,1-1.38,3.37,18.56,18.56,0,0,1-5.48-6.27c2.69-1.83,1.66-4.6,1.69-7,.14-14.19.17-28.39.23-42.6A58,58,0,0,1,57,198.89Z"/><path d="M445.89,77.7V57c-3.38.38-2.57,2.51-2.6,4V79.51a8.21,8.21,0,0,1-4.09,8.31V55c0-2.13.73-3.35,2.94-3.05,3,.43,8.1-1.64,8.53,2,.74,7,1.62,14.36-.73,21.3-.36,1.09-1.6,1.88-2.43,2.79Z"/><path class="cls-10" d="M81.21,280.11c-.49-.88-1.43-1.77-1.45-2.67V239.67c0-.7.81-1.41,1.26-2.13C87.35,251.73,88.58,265.9,81.21,280.11Z"/><path d="M657.76,92a32.25,32.25,0,0,1-32,32.47h-.53a32.78,32.78,0,0,1-32.55-32c-.49-17.7,13.93-32.06,32.55-32.38S657.57,73.12,657.76,92ZM625.3,64.13a27.43,27.43,0,0,0-28.17,26.69c0,.54,0,1.09,0,1.64a28.43,28.43,0,0,0,28.61,28.23h.07a28.75,28.75,0,0,0,28-28.44C654,76.33,641.61,64.17,625.3,64.13Z"/><path d="M420.24,92.5a31.53,31.53,0,0,1-31.08,32c-.52,0-1.05,0-1.58,0A32.43,32.43,0,0,1,355.63,92c0-18.22,14.06-32,32.76-32S420.29,73.16,420.24,92.5ZM387.86,64.13a27.68,27.68,0,0,0-28,27.37v.58a28.31,28.31,0,0,0,56.62,0C416.47,75.86,404.37,64.1,387.86,64.13Z"/><path d="M931.54,92.78a31.51,31.51,0,0,1-31.33,31.69h-1a32.43,32.43,0,0,1-32.17-32.68,1,1,0,0,1,0-.17c0-18.09,14.42-31.85,33-31.64C919.1,60.27,931.63,73.29,931.54,92.78ZM899,64.13a27.69,27.69,0,0,0-27.86,27.52c0,.4,0,.8,0,1.19a28.31,28.31,0,1,0,56.62-1h0C927.83,75.91,915.52,64.06,899,64.13Z"/><path d="M380.83,179.89c17.88,0,30.62,13.17,30.74,31.53.13,17.92-14.1,31.72-32.42,31.49a31.68,31.68,0,0,1-31-32.34v-.13C348.34,193,362.45,179.78,380.83,179.89Zm26.65,31.53a26.93,26.93,0,0,0-26.15-27.69h-1.12a27.69,27.69,0,0,0-28,27.33c0,.18,0,.37,0,.55a27.94,27.94,0,0,0,27.93,27.53A27.29,27.29,0,0,0,407.49,212c0-.18,0-.36,0-.54Z"/><path d="M625.38,117A25.18,25.18,0,0,1,600.2,91.8v-.19a25.56,25.56,0,0,1,24.88-24.48A25,25,0,0,1,650,92a24.53,24.53,0,0,1-24.09,25Zm.13-4.45A20.17,20.17,0,0,0,646,92.68c0-.31,0-.63,0-.94a20.73,20.73,0,0,0-20.58-20.31,21,21,0,0,0-20.9,20.71,20.38,20.38,0,0,0,20.34,20.4Z"/><path d="M412.53,92.2c0,14.38-10.18,24.76-24.41,24.78a24.59,24.59,0,0,1-24.7-24.48c0-.12,0-.24,0-.36a24.81,24.81,0,0,1,24.68-25h.6a24.4,24.4,0,0,1,23.82,25Zm-3.83,0a20.33,20.33,0,0,0-19.76-20.87c-.24,0-.48,0-.72,0a20.94,20.94,0,0,0-20.77,20.28,20.07,20.07,0,0,0,19.2,20.9c.36,0,.72,0,1.08,0A19.81,19.81,0,0,0,408.67,93.9c0-.53,0-1.07,0-1.61Z"/><path d="M923.83,92.27a23.82,23.82,0,0,1-22.9,24.7c-.52,0-1,0-1.58,0a24.9,24.9,0,1,1,24.48-25.33ZM920,92.05a20.27,20.27,0,0,0-19.89-20.62h-.84a20.86,20.86,0,0,0-20.52,21A20.63,20.63,0,0,0,920,92.05Z"/><path d="M923.83,210.74A39.6,39.6,0,0,1,963,170.67h.92c22.46,0,40.24,18.45,40.18,41.77,0,18.92-18.66,38.35-36.81,38.59C941.32,251.39,923.81,235,923.83,210.74Zm76,0a35.77,35.77,0,0,0-35.32-36.22h-.79c-19.56-.23-35.9,16.43-35.94,36.62a36.47,36.47,0,0,0,36.71,36,35.92,35.92,0,0,0,35.34-36.22Z"/><path d="M995.86,211.55a31.53,31.53,0,0,1-31.37,31.69h-.93a32.44,32.44,0,0,1-32.23-32.66v-.13c0-18.06,14.42-31.83,33.06-31.61C983.4,179,995.92,192.06,995.86,211.55ZM963.31,182.9a27.7,27.7,0,0,0-27.87,27.52c0,.4,0,.8,0,1.19a28.32,28.32,0,1,0,56.63-1h0C992.15,194.68,979.82,182.81,963.31,182.9Z"/><path d="M988.15,211a23.84,23.84,0,0,1-22.94,24.7c-.52,0-1,0-1.56,0a24.91,24.91,0,0,1,.76-49.81h0C977.71,186.11,988.1,197.13,988.15,211Zm-3.9-.13a20.25,20.25,0,0,0-19.89-20.62h-.84A20.86,20.86,0,0,0,943,211.34a20.07,20.07,0,0,0,20.09,20h.47a19.87,19.87,0,0,0,20.68-19C984.26,211.87,984.26,211.39,984.25,210.91Z"/><path d="M380.51,187.31c13.55,0,23.44,10.29,23.44,24.2a23.27,23.27,0,0,1-22.44,24.06c-.62,0-1.23,0-1.85,0a23.87,23.87,0,0,1-23.89-23.87c0-.26,0-.52,0-.78C355.78,197.13,366.22,187.22,380.51,187.31Zm-20.75,24.13c0,11.4,8.52,19.84,20.43,19.86a19.68,19.68,0,0,0,20-19.36c0-.14,0-.28,0-.41a20.24,20.24,0,0,0-40.48,0Z"/><path d="M289,65.26c12.21-6.39,24.5-8.13,37.05-1,7.33,4.26,7.37,5.39,1.45,11.31-3.07,3-5.26,2-8.29,0a18.57,18.57,0,0,0-21.56.57c-6.82,5.22-8.92,12.34-7.28,20.5a19.69,19.69,0,0,0,16.12,14.57,12.24,12.24,0,0,0,9.57-1.87c-.92-2.14-2.69-1.56-4-1.43-5.78.57-3.63-3.86-4.14-6.39-.55-3,.34-5.07,4-4.56a12.31,12.31,0,0,0,1.92,0c15.91-.34,15.8-.36,15.36,15.53a8.35,8.35,0,0,1-5.12,8c-11.74,5.86-23,4.69-34-2.13-1.47-.92-2.34-4.07-5.05-1.92v.19c2.28-2.68-.89-3.58-1.85-4.94-9.27-13.27-8.1-26.61-.66-40.09h0a18.4,18.4,0,0,0,6.5-6.5ZM325,109c0-9-1.47-10-10.48-8.71-1.34.19-2.85.3-2.94,1.79-.15,2.3,1.73,1.79,3.2,1.87,2.6.15,5.86-.93,6.39,3.37s-1.54,6.2-5.46,7.2a22.79,22.79,0,0,1-23.88-7,21.85,21.85,0,0,1-4.45-24.33,22.08,22.08,0,0,1,20-14.65,24.23,24.23,0,0,1,14.15,3.21c1.36.79,2.66,1.43,3.88-.23s0-2.47-.83-3.26a15.43,15.43,0,0,0-3.35-1.85,27.94,27.94,0,0,0-33.21,7c-8,9.25-9.18,23.93-2.79,33.39a28.94,28.94,0,0,0,33.68,11.59C324,116.69,326.18,113.65,325,109Z"/><path d="M285.12,116.44c12.19,14.42,32.3,13.5,45.77,2.87a4.6,4.6,0,0,0,1.47-4c0-6.83,2.27-15.18-.84-20.08s-12.25-.92-18.62-1.92c-1.74-.28-5,1.66-4.85-2.13,0-2.92,2.89-1.9,4.58-1.92,6.62-.11,13.27,0,19.9-.11,3.25,0,4.53.83,4.43,4.26-.24,7.91-.11,15.81,0,23.72a6.69,6.69,0,0,1-2.62,6.13c-23.86,17-56.33,7.93-64.15-23a40.29,40.29,0,0,1,17.26-42.48,41.33,41.33,0,0,1,45.78,2.13c1.66,1.28,5.71,2.24,3.43,5.42s-4.26-.11-6.2-1.52a34.25,34.25,0,0,0-38.35-2.68c-1.4.85-4.26,1-3,4h0c-4.54.27-6.24,2-6.5,6.49h0c-1-1.47-1.83-.34-2.43.37-10.35,12.18-7.84,34.79,4.95,44.73Z"/></g></g></svg>