<svg xmlns="http://www.w3.org/2000/svg" viewBox="0 0 1076.28 306.14"><defs><style>.cls-1{fill:#e9323b;}.cls-2{fill:#ae2e35;}.cls-3{fill:#fff;}.cls-4{fill:#c02f37;}.cls-5{fill:#922c33;}.cls-6{fill:#d33038;}.cls-7{fill:#da353c;}.cls-8{fill:#982f37;}.cls-9{fill:#e83139;}.cls-10{fill:#9b2b33;}.cls-11{fill:#cd2f37;}.cls-12{fill:#b42d34;}.cls-13{fill:#b72f37;}.cls-14{fill:#b63139;}</style></defs><g id="Layer_2" data-name="Layer 2"><g id="Layer_1-2" data-name="Layer 1"><path class="cls-1" d="M98.09,124.52a145.24,145.24,0,0,1,19.25,34.2c7.41,19.19,10.53,38.76,4.74,59-4.12,14.38-11.92,26.46-23.86,36.71-.15-6.13,1.88-11.26,2-16.66.43-13-3.61-24.82-8.75-36.43-1.45-13.36-3.57-26.64-3-40.19.32-7.63,1-15.24,1.21-22.87a3.25,3.25,0,0,1,0-1c2-5.67,2.06-11-1.88-16.09a3.69,3.69,0,0,1,1.4-5.6c2.47-1,3.16,1.38,4.2,3.1A48.66,48.66,0,0,0,98.09,124.52Z"/><path class="cls-2" d="M23.1,11.44A72.81,72.81,0,0,1,34.51,0C32.9,24,43.22,43.33,54.19,62.42c-1.06,1-2.07.19-3.27-.16,1.81,6.2-1.07,12.1-.64,18.22.7,9.88-.67,19.79-.14,29.68a18.92,18.92,0,0,1-.23,6.42c-1.15,3.92-1.58,7.79.12,11.67a2.23,2.23,0,0,1,.2,1.46c-2.18,6.7,1.28,12.14,3.91,17.77.78,1.67,1.57,3.38,0,5.06-9.33-8.69-18.37-17.65-27-27-2.3-3.8-4.9-7.45-5.68-12-.2-1.13-1.13-2.57-.18-3.31,4-3.12,1.52-7,1.5-10.55-.09-20.31-.31-40.63.14-60.94a57,57,0,0,0-.27-10A49,49,0,0,1,23.1,11.44Z"/><path class="cls-3" d="M735.66,179.33c6.74.29,15.14,3.63,23.12,8.37,1.83,1.09,2,1.92,1,3.84-4.72,8.35-4.63,8.36-13.23,4.39-4.87-2.24-9.89-3.86-15.38-3.65-2.63.1-4.41,1-5.32,3.58-1,2.75.39,4.44,2.35,6,2.28,1.77,5,2.58,7.64,3.57a116,116,0,0,1,11.12,4.35c12.6,6.23,18.18,18,15,30.94-3,12.11-14.9,20.77-28.13,20.31-10.89-.38-20.8-3.9-30.1-9.53-2.49-1.5-2.16-2.65-.89-4.61,2.72-4.18,5.41-8.39,7.87-12.73,1.29-2.27,2.44-2.45,4.56-1.06A39.56,39.56,0,0,0,729.91,239a22.45,22.45,0,0,0,6.44.25,5,5,0,0,0,4.6-4c.55-2.42-.54-4.22-2.51-5.52-3.37-2.23-7.27-3.19-11-4.51-9.91-3.48-18.6-8.64-22.28-19.15-6-17.31,7.73-35.41,26.88-35.42,11.52,0,21.65,4.63,31.42,10.21,1.46.83,1.74,1.6.81,3.14-1.09,1.78-2.11,1.61-3.65.69-6.75-4-13.82-7.27-21.6-8.74a29.26,29.26,0,0,0-16.22,1.22c-7.72,3-12.44,8.65-13.85,16.9-1.48,8.75,1.65,15.69,8.52,21a39.94,39.94,0,0,0,12.95,6.29c3.66,1.12,7.35,2.21,10.51,4.45,3.49,2.48,5.7,5.76,4.68,10.22-1.1,4.79-4.47,7.32-9.25,7.77a31.47,31.47,0,0,1-18.26-4.06c-3.69-2-5.08-.81-6.84,2.21-3.86,6.64-4,6.62,3.26,9.62,8.23,3.39,16.54,5.95,25.69,3.94,8.62-1.89,14.28-7,16.9-15.19s.93-15.47-5.29-21.54c-4.28-4.16-9.56-6.55-15.16-8.35-3.47-1.11-7-2.12-10.16-4-4.3-2.56-6.56-6.06-5.37-11.19,1-4.39,5.27-7.5,10.55-7.58,5.78-.08,11.09,1.91,16.33,4.08,1.07.44,2.12,1,3.17,1.46,1.47.7,2.16-.26,2.72-1.33.68-1.26-.3-1.81-1.19-2.26-8-4-16.23-7.09-25.37-5.07a12.89,12.89,0,0,0-9.95,9.56,12.37,12.37,0,0,0,3.87,13.16c3.42,3.1,7.64,4.61,11.88,6.11a109.37,109.37,0,0,1,10.21,3.95c8.82,4.21,12.07,10.44,10.63,19.78-1.23,8.06-7.57,14.09-16.32,15.17-7.83,1-15.18-1.08-22.26-4.26-1-.44-2.31-.83-1.43-2.47.74-1.38,1.38-2.64,3.38-1.94,3.29,1.16,6.59,2.31,10,3.2,4.57,1.22,9.2,1.54,13.73-.27,5.56-2.21,8.25-6.65,8.63-12.36.36-5.3-2.19-9.21-6.88-11.78a80.66,80.66,0,0,0-11.48-4.8,61.42,61.42,0,0,1-7.37-3c-9.56-5-13.42-12.64-11-21.55C715.14,184.42,722.89,179.14,735.66,179.33Z"/><path class="cls-3" d="M1015.11,77.56c0,7.49.25,15-.05,22.48-.67,16.83-11.89,27.85-28.68,28.4a53.45,53.45,0,0,1-12.43-.62c-15.26-3.11-23.76-13-24-28.63-.21-15.16,0-30.32-.13-45.48,0-3.07.79-4.13,3.91-3.91a81.45,81.45,0,0,0,11.48,0c3.28-.24,3.83,1.14,3.8,4.05-.14,14-.07,28-.06,42,0,4.79.3,9.67,5.34,12,5.76,2.64,11.72,2.55,17.2-.9,3.57-2.24,4.47-6,4.46-10,0-14.16.23-28.33-.13-42.48-.11-4.54,1.85-4.89,5.27-4.59,3.17.28,6.94-1.42,6.74,4.72-.45,13.81-.08,27.65-.17,41.48-.07,9.24-2,18-11.31,22.2-10,4.47-20.49,4.44-30.19-1.28-5.15-3-7.71-8.31-8.23-14.2-1.26-14.29-.31-28.63-.57-42.95,0-1.48.25-2.65,2.14-2.59,2.34.08,2,1.79,2,3.23,0,11.33,0,22.66,0,34,.1,18.1,11.57,26.51,29.2,21.49,7.15-2,11.34-6.72,12.33-14.07,1.28-9.45.36-19,.57-28.45.12-5.5,0-11,0-16.49,0-1.36.05-2.82-1.93-2.8s-1.69,1.66-1.69,2.9c0,12.82-.11,25.65,0,38.48.07,6.6-1.45,12.41-7.68,15.61a21.05,21.05,0,0,1-20.59-.17c-5.44-3-6.71-8.42-6.74-14.14-.07-12.83-.34-25.67.11-38.48.19-5.48-3-4.22-6-4.39-3.23-.18-5.54-.32-5.39,4.44.41,12.65.11,25.32.15,38,0,10.14,2.16,19.69,12.18,24.44,11.56,5.48,23.66,5.94,34.88-1,7.16-4.44,9.88-12,10-20.19.2-14.49.11-29,.13-43.47,0-1,0-2,0-3,0-1.5-.23-3.15,2-3.21,2.44-.07,2,1.76,2,3.16,0,8.16,0,16.32,0,24.49Z"/><path class="cls-4" d="M54.11,152.54c-.06-4.13-2.45-7.36-4.21-10.82-.59-1.18-2.27-2.64-2-3.31,3.18-7.09-2.37-14.28.43-21.28a10.8,10.8,0,0,0,.2-7.79c-1.42-4,.61-7.86.55-11.79-.12-7.82-1-15.72-.2-23.43.54-5.06,2.32-9.85-.83-14.94,3.15-.18,3.59,3.42,6.11,3.24h0a10.61,10.61,0,0,0,4,6.06L79.08,97.61c-1,2.34-2.35,1.62-3.61.29s-1.56-3-3.61-4c-1,3.9-1.71,7.75-1.27,11.59a81.85,81.85,0,0,1,0,16.34c-.58,7,1.47,13.84,1,20.84-.12,1.65.36,3.44-.18,5-3,8.34.16,15.87,2.83,23.49.44,1.25,1,2.51-.19,3.68Z"/><path class="cls-5" d="M23.1,11.44c3.13,1.63,5.16,3.31.39,5.53a1.93,1.93,0,0,0-1.13,2.5c3.2,7.22,1.77,14.78,1.77,22.23q0,28.14,0,56.28c0,2.5.05,4.92,1.31,7.23.78,1.43,1.58,3.59-.81,4-3.45.66-2.87,1.79-1.59,4.27,1.67,3.23,1.15,7.49,4.76,9.91.68.45.07,1.53-.67,2.08C3.56,102.32-7.4,76.54,5.44,42.12,9.61,31,15.11,20.45,23.1,11.44Z"/><path class="cls-6" d="M74,174.79c.3-3.68-2.18-6.91-3.46-9.62-3.57-7.61-.61-14.56-.31-21.71.28-7-1.68-13.84-1-20.77.92-10-.52-19.92.31-29.87.14-1.7,1-2.66,2.52-1.31s3.53,2.58,4.06,4.85c.45,1.89,1.22,2.75,3,1.25a1.62,1.62,0,0,1,1.11,1.59c.69,2.22,1.63,4.25,4,5.25h0a10.63,10.63,0,0,0,4.38,5.94c3.67,4.38,7.42,8.72,9.58,14.14a10.65,10.65,0,0,1-6-6.18c-.44-1.26-1.16-2.41-2.32-2.07-1.37.41-1.73,1.85-1.16,3.3.12.31.13.7.33.93,8,8.89.74,18.43,1.14,27.63.5,11.48-1.47,23,.75,34.5.73,3.81,2.74,8.07.06,12.4-.85,1.39,2.38,3.9.58,6.27A305.33,305.33,0,0,0,74,174.79Z"/><path class="cls-7" d="M227,262.14l-2.93.07c-4.13-.74-5.67-3.24-5.65-7.38.12-24.48-.15-49,.15-73.45-.35-40-.09-80.11-.1-120.16,0-3.6-1.07-7.28.43-10.83,9.63-1.23,9.63-1.23,9.63,8.17q0,98.52,0,197C228.55,257.87,229.13,260.33,227,262.14Z"/><path class="cls-3" d="M506.81,256l-16.69-37.86c-5.75-13.08-11.48-26.17-17.3-39.21-.68-1.54-.82-3.8-3.38-3.73-2,0-2.18,1.79-2.75,3.09Q450,216.08,433.31,253.93a19.2,19.2,0,0,0-.65,2.45,44.57,44.57,0,0,1,6.57.05c6,.93,10.26-.64,11.36-7.3.41-2.43,2-3,4.34-2.95,6.82.13,13.66.17,20.49,0,3-.08,4.08,1.33,4.34,4.31-6.77,0-13.43.2-20.07-.09-3.63-.15-6.08.54-6.89,4.46-1,4.84-3.85,6.59-8.9,6.06s-10-.17-15-.08c-2.49.05-3.87-.13-2.47-3.24Q445.5,215.33,464.32,173c1.08-2.45,2.77-2.53,4.79-2.36s4.27-.83,5.53,2q19.46,43.68,39.06,87.31c0,.13-.05.32-.19,1.13-6.85,0-13.82-.05-20.79,0-2.21,0-2.74-1.5-3.41-3-1.75-3.95-3.71-7.82-5.17-11.88-1.05-3-2.57-4-5.78-3.93-8.49.22-17,.25-25.48-.1-3.53-.14-4.81,1.25-6.09,4.23-1,2.43-.6,6.39-4.81,6.66-2.21.14-3.88-.13-2.25-2.94a6.93,6.93,0,0,0,.37-.93c4.69-11.28,4.69-11.29,16.91-11.31,8,0,16,.17,24-.1,3.23-.1,4.92,1,5.86,4a44.75,44.75,0,0,0,2,4.54C493.92,257.44,493.92,257.44,506.81,256Z"/><path class="cls-3" d="M858.86,253.09c2.09-4.81,4-9,5.73-13.28.84-2.08,2.4-2,4.07-2,11.16,0,22.32.08,33.47-.07,2.62,0,4,.92,4.78,3.26.6,1.72,1.44,3.35,2.19,5,4.93,11,4.93,11,18.18,10-3.09-7-6.11-13.74-9.1-20.52q-12.64-28.72-25.29-57.43c-.57-1.28-.8-2.92-2.84-3s-2.38,1.57-2.94,2.83q-16.87,38.28-33.67,76.6a8.66,8.66,0,0,0-.26,1.81c4.25,0,8.37-.18,12.47.06,2.92.18,3.42-1.95,3.77-3.72,1.15-5.71,4.51-7.13,10-6.6s11,.19,16.47.07c2.11,0,3.86.47,3.93,2.71.08,2.78-2.33,1.48-3.59,1.52-5.49.15-11,.26-16.47,0-3.46-.17-5.79.62-6.53,4.28-1,5.11-4.07,6.83-9.26,6.23a71.31,71.31,0,0,0-13.47,0c-4.78.36-4.6-1.21-2.93-4.88,10.37-22.83,20.55-45.74,30.79-68.63,1.9-4.25,3.95-8.43,5.66-12.75,1.09-2.76,2.42-4.15,5.73-4.19s4.94,1.25,6.27,4.22q18.27,40.95,36.85,81.75c1.51,3.32,1.49,4.7-2.72,4.52a153.73,153.73,0,0,0-15.48.17c-2.81.15-4.42-.79-5.12-3.44a2.67,2.67,0,0,0-.22-.45c-2.44-4.85-2.92-11.84-7.28-14.23-4.12-2.26-10.39-.62-15.71-.68a62.31,62.31,0,0,1-7.49-.08c-6.82-.9-12,.37-13.32,8.33C864.89,254.15,861.83,252.83,858.86,253.09Z"/><path class="cls-8" d="M227,262.14c1.15-2.5,1.11-5.14,1.11-7.82q0-97.45,0-194.91c0-10.17,1.55-9-9-8.84-3.09,1.92-3.51,4.89-3.51,8.22,0,16,.14,31.92,0,47.88-.35,48.77.38,97.54,0,146.31,0,3.57,2.83,5.87,2.52,9.23-10,.6-10,.6-10-9.34q0-98.93-.1-197.84c0-4.54,1.1-6.11,5.68-5.63a103.86,103.86,0,0,0,12.48.12c2.12-.05,3.13.68,2.89,2.88a18.87,18.87,0,0,0,0,2q0,101.67-.1,203.33C228.92,259.12,230.81,262.07,227,262.14Z"/><path class="cls-3" d="M1022,88.93c0-11.82,0-23.64,0-35.47,0-1.62-.84-4,2.3-3.81,2.75.2,1.75,2.43,1.75,3.83.07,22,0,44,.1,65.93,0,1.64-1.12,4.28,1.13,4.77a18.26,18.26,0,0,0,9.34-.16c1.23-.4.6-2.09.61-3.18.07-5.66,0-11.33,0-17,.08-7.56-1-6.32,6.72-6.49,4-.09,8,.32,12-.47,8.78-1.76,13.77-6.61,15.6-15.3,2.78-13.16-2.61-23.87-13.72-26.68-7.18-1.81-14.58-1-21.89-1.11-2.23,0-2.25,1.42-2.24,3,0,7.32.06,14.65,0,22,0,2,.35,3.13,2.7,3,4.66-.17,9.32,0,14-.22,4.18-.15,5.76-2.65,5.66-6.63s-2.35-5.58-6.11-5.52a17.52,17.52,0,0,1-3,0c-4-.66-6,.7-5.14,5a14.82,14.82,0,0,1,0,2c.07,1.45-.58,2.07-2,2.12s-2.1-.62-2.1-2.05c0-3,.06-6,0-9-.05-2,1.14-2,2.59-2,3.67,0,7.34-.13,11,.07,5,.27,8.07,3.3,8.65,8,.71,5.68-1.63,10.44-6.31,11.63-7.19,1.83-14.59.72-21.9.89-2,0-1.8-1.55-1.8-2.86,0-10.32,0-20.64,0-31,0-1.85.51-2.73,2.53-2.68,6.66.16,13.36-.25,20,.37,17.59,1.66,26.73,14.43,23.18,31.8-2.64,13-10.58,19.41-24.29,19.71-9.62.21-9.63.21-9.64,10,0,4.66-.1,9.33,0,14,.07,2.38-.75,3.43-3.15,3.11-.33,0-.67,0-1,0-5-.11-11.46,1.63-14.48-.85-3.18-2.61-.85-9.36-1-14.29C1021.86,105.25,1022,97.09,1022,88.93Z"/><path class="cls-3" d="M523.74,215.71c0-13.65.14-27.3-.07-41-.06-3.59,1.07-4.43,4.49-4.36,8.83.17,8.84,0,8.84,8.88,0,22.8,0,45.61-.08,68.41,0,1.67,1.7,4.65-2.25,4.76s-2.48-2.84-2.49-4.58c-.09-22.47-.06-45-.06-67.42,0-1.17,0-2.33,0-3.5s-.68-1.71-1.87-1.67-1.94.39-2,1.68c0,1,0,2,0,3,0,24,.09,48-.1,71.92,0,3.84,1.08,4.68,4.75,4.6,11.15-.25,22.31-.2,33.46,0,3.25.05,4.71-.49,4.62-4.25-.2-8.18,0-8.19-8.16-8.19-3.33,0-6.66-.07-10,0-2,.05-3.1-.46-3-2.77.1-2.52,1.86-1.87,3.19-1.88,6.5,0,13,.07,19.48,0,2.09,0,3,.44,2.93,2.72-.14,5.32-.13,10.66,0,16,.07,2.54-1.1,3-3.32,3-15-.05-30-.1-45,0-3.14,0-3.44-1.44-3.43-4C523.78,243.34,523.74,229.53,523.74,215.71Z"/><path class="cls-9" d="M75.22,231.36c11.75,18.32,17.7,37.55,8.72,58.89a38.33,38.33,0,0,1-12.45,15.89c2.81-13.39.11-24.72-5.42-35.52-3.14-7.1-3.15-14.56-2.52-22.09a20,20,0,0,0-.18-6.95c-1.44-5.2,1-9.8,2-14.61A3.79,3.79,0,0,1,68.51,224c1.83-.37,2,1.29,2.68,2.36A19.46,19.46,0,0,0,75.22,231.36Z"/><path class="cls-10" d="M30.06,228.76C20,219.55,11.57,209.23,10.69,195c-1.17-18.87,7.38-33.72,20.91-46.31-.4,8.44,2.43,16,4.63,23.78-1,.82-2.86.38-2.95,2.67-.36,9.08-.83,18.12-.81,27.23,0,7.21.62,14.39.5,21.59A4.91,4.91,0,0,1,30.06,228.76Z"/><path class="cls-3" d="M586.77,49.73c-8.39,12-16,23.28-24,34.27a20,20,0,0,0-4.19,13.3c.36,9-.07,18,.19,27,.1,3.62-1.13,4.6-4.54,4.35a70.61,70.61,0,0,0-11,0c-3.42.28-4.57-.67-4.47-4.31.27-10,0-20,.14-30A11.68,11.68,0,0,0,536.66,87C529,76.27,521.58,65.46,514.12,54.64c-1-1.47-2.47-2.75-2.57-4.7,2.83-.84,4.58.33,6.21,2.7q11.57,16.86,23.46,33.52a9.55,9.55,0,0,1,1.85,6c-.1,9.49.06,19-.12,28.47-.05,2.92.51,4.46,3.77,3.91a9.09,9.09,0,0,1,3,0c3.85.59,5.14-.82,5-4.83-.32-8.82,0-17.65-.17-26.47A13,13,0,0,1,557.2,85C563.6,76,569.84,67,576,58c.77-1.12,3.25-2.49,1.24-3.9-1.73-1.22-3.25.56-4.35,2.19-4.58,6.74-8.76,13.82-14,20-6.73,8-9.52,16.7-8.31,27,.58,4.93.15,10,.14,15,0,1.42.44,3.12-2,3.16s-2-1.67-2-3.08c0-9.66,0-19.31,0-29,0-2.21,1.1-3.74,2.23-5.38,6.71-9.71,13.62-19.3,20-29.23,2.58-4,5.46-5.8,10.13-5.11C581.19,50,583.37,49.73,586.77,49.73Z"/><path class="cls-3" d="M345.91,256.37c-4.38-8.26-8.44-15.84-12.37-23.48-.68-1.31-3-2.94.09-4.37,2.57-1.19,3.1.78,3.94,2.36,4.79,8.93,9.56,17.88,14.4,26.78,1.22,2.25,1.58,3.77-1.84,3.4a8.17,8.17,0,0,0-1,0c-6.83-.05-14.79,2.07-20.17-.75s-6.9-11.28-10.21-17.22c-2.34-4.21-4.64-8.45-6.8-12.76-.94-1.86-2.09-2.88-4.25-2.56-2.78.41-1.56,2.57-1.58,3.93-.12,8.5-.19,17,0,25.48.08,3.08-.8,4.08-3.9,3.93-5-.24-10-.13-15,0-2.36.05-3.67-.41-3.66-3.24.08-28,.05-56,.06-83.95,0-1.71-.14-3.41,2.45-3.34,2.82.08,2,2.14,2,3.6.05,25.81.14,51.63-.05,77.44,0,4,1.09,5,5,4.88,8.15-.27,8.15-.07,8.16-8,0-7.17.12-14.33-.06-21.49-.07-2.81.87-3.4,3.61-3.74,6.25-.78,10,1.06,12.6,7.2,3.16,7.47,7.72,14.33,11.34,21.62,1.6,3.21,3.43,4.85,7.19,4.42C338.93,256.09,342.06,256.37,345.91,256.37Z"/><path class="cls-3" d="M339.24,252.84c-3.39,1.14-5.25.32-6.77-2.64-4.54-8.85-9.4-17.54-14.19-26.41,3.57-.79,6.87-1.29,10-2.26,10.84-3.37,16.35-11.34,16.06-22.94-.27-11.29-6.13-19-16.93-21.77-9.33-2.44-18.88-1.22-28.34-1.43-3.23-.07-1.95,2.56-2,4-.09,18.32-.06,36.64-.06,55,0,4.83.11,9.66-.07,14.49-.06,1.61,1.38,4.29-2.22,4.35s-2.46-2.48-2.47-4.23c-.06-14.49,0-29,0-43.47,0-10.32,0-20.65,0-31,0-1.64-.84-4,2.25-4,11.28.32,22.66-1.17,33.81,1.73,13,3.38,20.46,12.5,20.71,25.27.29,15.29-6,24.69-19.75,28.42-4,1.09-3.33,2.29-1.88,4.91C331.46,238.16,335.3,245.49,339.24,252.84Z"/><path class="cls-3" d="M1017.28,216c0-13.48,0-27,.05-40.44,0-1.85-1.21-4.8,2.52-4.72,3.54.07,2,2.91,2,4.49.1,25.46.14,50.92,0,76.39,0,3.62.71,4.81,4.58,4.74,13.48-.27,27-.21,40.44,0,3.3,0,4.64-.57,4.6-4.26-.09-8.77.12-8.77-8.85-8.77-7.49,0-15-.36-22.46.12-4.71.31-5.84-1.43-5.26-5.56a26.91,26.91,0,0,0,0-4.49c-.06-1.65.58-2.42,2.31-2.39,1.56,0,2.79.46,2.46,2.23-1.07,5.64,2.36,5.5,6.34,5.41,8.65-.18,17.31.05,26-.11,2.91,0,4.22.55,4,3.81-.27,5.14-.16,10.32,0,15.47.07,2.37-.71,3.19-3.12,3.18-17.48-.07-35-.09-52.44,0-3.33,0-3.25-1.84-3.24-4.16C1017.29,243.32,1017.27,229.68,1017.28,216Z"/><path class="cls-3" d="M973.8,219.79c0-9.32.16-18.66-.07-28-.09-3.4.68-4.61,4.31-4.47,7.48.3,15-.07,22.48.17,3.27.1,4.27-.82,4.23-4.14-.11-8.1.06-8.11-8.23-8.11-14.16,0-28.32,0-42.49.07-1.45,0-4.06-1.36-4.16,1.82s2.49,2,4,2.06c14,.08,28,0,42,.09,1.66,0,4.36-1.19,4.2,2.37-.14,3.16-2.56,2-4.08,2-15.66.07-31.33-.07-47,.12-3.45,0-4.09-1.17-4.07-4.28.06-9.07-.07-9.06,9.18-9.06,16.83,0,33.66.14,50.49-.09,3.87-.06,4.88,1.1,4.59,4.76a76.48,76.48,0,0,0,0,12.48c.35,4-1.27,4.74-4.84,4.61-7.16-.26-14.34.17-21.49-.18-3.92-.18-4.68,1.21-4.64,4.82.17,17.16.08,34.32,0,51.48,0,1.26.62,2.85-.67,3.7a3.74,3.74,0,0,1-2.84.22c-1.49-.45-.95-1.93-.95-3C973.79,239.45,973.8,229.62,973.8,219.79Z"/><path class="cls-3" d="M801.87,219.73c0-9.49.12-19-.07-28.47-.06-3,.66-4,3.82-3.91,7.66.25,15.33-.08,23,.15,3.23.1,4.27-.76,4.23-4.1-.09-8.15.08-8.15-8.18-8.14-14.32,0-28.64,0-43,.06-1.36,0-3.66-1.11-3.77,1.73-.13,3.16,2.37,2.16,3.94,2.17,14,.07,28,0,42,.1,1.59,0,4.4-1.41,4.34,2.21s-2.83,2.13-4.43,2.14c-15.32.11-30.64,0-46,.15-3.56.05-4.93-.62-4.8-4.57.28-8.76,0-8.77,9-8.77,17,0,34,.12,51-.08,3.58,0,4.56,1,4.34,4.45-.29,4.64-.2,9.32,0,14,.11,2.68-.94,3.41-3.48,3.37-7.66-.12-15.32.14-23-.12-3.52-.11-4.5,1-4.47,4.46.17,17.32.11,34.63,0,51.94,0,1.32.88,3.25-1.18,3.83-2.59.73-3.43-.45-3.4-3.11C802,239.38,801.87,229.55,801.87,219.73Z"/><path class="cls-3" d="M1046.63,252.39c-5.66,0-11.33-.14-17,.07-2.84.1-3.72-.79-3.66-3.64.18-7.82.2-15.65,0-23.47-.09-3.19,1.07-3.91,4-3.87,10.32.15,20.65-.09,31,.14,3.5.08,4.5-.9,4.43-4.41-.18-8.56,0-8.56-8.31-8.57-6.33,0-12.66-.08-19,0-2.34,0-3.22-.62-3.18-3.08.14-7.65.12-15.32,0-23,0-2.25.47-3.28,3-3.24,8.5.14,17,.08,25.49,0,1.67,0,2.86.11,2.79,2.32s-1.14,2.45-2.87,2.44c-6.66,0-13.33.11-20-.08-2.83-.08-3.8.79-3.64,3.64a97.72,97.72,0,0,1,0,12c-.23,3.39.73,4.67,4.35,4.53,7.32-.29,14.66,0,22-.15,2.91-.07,4.2.5,4,3.77a146.76,146.76,0,0,0,0,15c.14,3-1,3.59-3.73,3.55-10.33-.14-20.66.06-31-.13-3.24-.06-4.93.41-4.54,4.2.58,5.57-2.34,13.08,1.14,16.24,3,2.77,10.42.82,15.89.88,5.16,0,10.32,0,15.49,0,1.77,0,3.72-.5,3.68,2.53,0,3.25-2.32,2.17-3.86,2.2C1057.62,252.45,1052.12,252.38,1046.63,252.39Z"/><path class="cls-11" d="M75.22,231.36c-2.59-.21-3.44-2.51-4.86-4.1-.65-.73,0-2.7-1.85-2.28a2.74,2.74,0,0,0-2.18,2.49c.24,4.9-2.19,9.23-1.76,14.51.59,7.41,1.15,15.11.15,22.67-.27,2.06,2.22,3.67,1.35,6-5.87-9.23-13-17.47-20-25.81a8,8,0,0,1-.52-4.38c1.12-10,.17-20,1.27-30,.42-3.87-1.34-7.81-1.18-11.81.06-1.57-.93-3.57,1.08-4.43,1.8-.76,2.3,1.52,3.58,2.12h0c1.06,3.39,3.69,5.63,6,8.12C63.21,212.93,70,221.61,75.22,231.36Z"/><path class="cls-12" d="M50.28,196.3c-1.45.41-2.19-1.23-4.05-1.62,2.53,10.58,1.83,20.91,1.54,31.13-.18,6.29.61,12.84-1.72,19a198.62,198.62,0,0,1-16-16.05c1.74-4.83,3-9.67.55-14.68a3.83,3.83,0,0,1-.41-2.39c2.83-11.13-.92-22.62,1.89-33.75a18.45,18.45,0,0,0,0-2.47c.17-1.57-2-3.28-.16-4.56s2.52,1.87,4.28,1.59c2.9,6.7,7.09,12.62,11.08,18.67C48.39,192.82,49.3,194.59,50.28,196.3Z"/><path class="cls-3" d="M663.84,252.39c-5.49,0-11-.12-16.48,0-2.62.08-3.87-.42-3.8-3.45q.3-12,0-24c-.07-3,1.18-3.54,3.83-3.51,10.49.12,21-.09,31.46.13,3.36.07,4.14-1,4.11-4.22-.1-8.77,0-8.77-8.52-8.77-6,0-12-.11-18,.05-2.82.08-4.23-.38-4.11-3.75.26-7.31.2-14.64,0-22-.07-2.88.88-3.67,3.69-3.61,8.15.17,16.31,0,24.46.08,1.58,0,3.41-.48,3.34,2.28-.06,2.56-1.66,2.43-3.37,2.43-6.49,0-13,.12-19.47,0-2.86-.07-4.27.47-4,3.79a88,88,0,0,1,0,12.47c-.22,3.22,1,3.92,4,3.85,7.65-.17,15.31,0,23-.1,2.51,0,3.59.59,3.48,3.33-.19,5.15-.22,10.32,0,15.47.14,3.07-1.23,3.5-3.83,3.47-10.49-.12-21,.09-31.46-.13-3.38-.07-4.28,1-4.09,4.23a107.93,107.93,0,0,1,0,13c-.19,3.23.76,4.31,4.13,4.23,9.31-.24,18.64-.11,28-.07,1.85,0,4.22-.74,4.12,2.63-.09,3.22-2.46,2.05-4,2.09C674.83,252.46,669.33,252.39,663.84,252.39Z"/><path class="cls-3" d="M388.18,252.38c-5.66,0-11.32-.15-17,.07-2.93.12-3.64-.92-3.58-3.68.16-7.82.19-15.65,0-23.46-.09-3.2,1.13-3.87,4.06-3.83,10.48.16,21-.06,31.46.14,3.12,0,3.88-.91,3.87-4,0-9,.12-9-8.78-9-6,0-12-.09-18,.05-2.61.06-3.92-.42-3.83-3.49.2-7.49.15-15,0-22.47-.06-2.64.81-3.4,3.41-3.35,8.32.14,16.64,0,25,.07,1.37,0,3.07-.5,3.11,2s-1.11,2.75-3.07,2.73c-6.33-.06-12.67.27-19-.11-4.15-.25-5.1,1.3-4.8,5.05a84.43,84.43,0,0,1,0,11.47c-.17,2.92.94,3.68,3.71,3.62,7.66-.16,15.32,0,23-.11,2.72-.06,3.88.62,3.75,3.57-.22,5-.25,10,0,15,.18,3.3-1.23,3.8-4.09,3.76-10.48-.14-21,.06-31.45-.13-3.12-.06-4.05.87-3.86,3.94a103.94,103.94,0,0,1,0,13c-.22,3.41.74,4.6,4.35,4.5,9.31-.25,18.64-.1,28-.06,1.67,0,3.79-.72,3.91,2.32s-2,2.4-3.69,2.42C399.17,252.4,393.68,252.38,388.18,252.38Z"/><path class="cls-3" d="M634.87,215.93c0-13.33-.07-26.65.08-40,0-1.73-1.67-4.92,2-5,4-.07,2.34,3.37,2.35,5.25.12,25,.17,49.95,0,74.93,0,4,.79,5.43,5.1,5.34,13.48-.29,27-.21,40.47,0,3.28.05,4.18-.89,4.14-4.16-.11-8.87,0-8.87-8.84-8.87-7.66,0-15.34-.27-23,.1-4.16.21-5.26-1.3-4.79-5.05a34.57,34.57,0,0,0,.05-5c0-1.66.68-2.36,2.38-2.4s2.54.77,2.23,2.37c-1,5.25,2,5.4,6,5.3,8.82-.2,17.66,0,26.48-.11,2.85,0,4.3.51,4.14,3.8-.24,5.15-.14,10.32,0,15.48,0,2.39-.85,3.18-3.21,3.17-17.49-.07-35-.11-52.47,0-3.53,0-3.06-2.07-3.06-4.23Q634.88,236.42,634.87,215.93Z"/><path class="cls-3" d="M358.91,216c0-13.65,0-27.31.06-41,0-1.52-1.17-4,2-4.14,3.46-.16,2.46,2.49,2.46,4.24.06,25.48.14,51,0,76.44,0,4,1.19,4.93,5,4.86q20-.34,40,0c3.66.06,4.85-.76,4.73-4.61-.27-8.43,0-8.44-8.29-8.44s-16.33-.14-24.49.08c-3.09.08-4.21-.83-3.87-3.91a63.78,63.78,0,0,0,.07-6.49c0-1.9,1.32-1.95,2.75-2,1.63,0,2.1.92,1.85,2.2-1.09,5.59,2.28,5.54,6.31,5.45,8.82-.2,17.65,0,26.48-.11,2.75,0,3.91.71,3.79,3.64-.2,5-.25,10,0,15,.16,3.26-1.24,3.84-4.11,3.82-16.82-.1-33.65-.16-50.47,0-3.78.05-4.28-1.42-4.24-4.64C359,243,358.91,229.53,358.91,216Z"/><path class="cls-3" d="M866.85,234,890,182.21c2.35,5.2,4.23,9.35,6.1,13.51,7.83,17.43,15.69,34.84,23.44,52.31.6,1.37,2.94,3.34.5,4.55s-4-.59-5.12-3.11c-7.65-17.69-15.44-35.31-23.21-52.95-.39-.88-.89-1.71-1.8-3.43l-8.23,19.62c-2,4.75-3.84,9.56-6,14.23-1.22,2.63-.88,3.51,2.16,3.44,6.15-.15,12.32,0,18.82,0-1.37-5.22-4.18-9.51-6.05-14.22-4.75,2.15-1.43,11.57-10.23,10.13,3.11-7.5,6.1-14.75,9.61-23.23l14.13,31Z"/><path class="cls-3" d="M453.85,230.24H476.6L470,215.72c-4.2,2.85-1.45,11.32-10.12,10.69L469.55,203c4.61,10.11,8.91,19.56,13.21,29,.8,1.75.14,2.38-1.68,2.38q-16,0-32,0c-3.15,0-2.05-1.59-1.34-3.17,7.16-16.07,14.3-32.14,21.81-49,4.68,10.42,9.06,20.17,13.43,29.93,5.44,12.12,10.92,24.22,16.26,36.38.55,1.26,2.8,3.06.69,4.12s-4.14,0-5.31-2.75c-4.75-11.33-9.8-22.52-14.76-33.76-3.28-7.44-6.58-14.86-10.3-23.25Z"/><path class="cls-3" d="M851.52,124.49c-3.73-7-7.17-13.43-10.44-19.89-.61-1.2-2.77-2.65-.35-4.14,2.62-1.62,3.07.87,3.84,2.3,4.48,8.32,8.88,16.67,13.71,25.77-7.18,0-13.73-.05-20.28,0-2.2,0-2.66-1.59-3.43-3q-6.11-11.43-12.22-22.86c-.86-1.62-1.46-3.55-3.88-3-2.82.62-1.46,3-1.5,4.47-.16,6.82-.21,13.66,0,20.48.09,2.92-.5,4.24-3.78,4-5.12-.36-11.85,1.63-15-.94-3.28-2.69-1-9.67-1-14.77-.12-19.15-.05-38.3-.05-57.45,0-1.17,0-2.34,0-3.5,0-1.36.53-2.16,2.05-2.21s1.95.87,2,2.18c0,1.5,0,3,0,4.5,0,21.15.22,42.3-.14,63.44-.09,5.6,3,4.5,6.21,4.69,3.57.2,5.93,0,5.6-4.78-.47-6.8,0-13.65-.17-20.47-.07-2.73.66-3.62,3.56-3.82,4.82-.32,7.91.75,10,5.68,2.72,6.4,6.78,12.22,9.68,18.55,1.82,4,4.24,5.44,8.43,4.84A55,55,0,0,1,851.52,124.49Z"/><path class="cls-3" d="M1050.61,170.86c7,0,14,.14,21-.06,3.12-.09,4.06,1,3.93,4-.22,4.82-.19,9.66,0,14.49.1,2.74-.7,3.86-3.63,3.8-8-.17-16-.06-24-.07-1.7,0-3.39.17-3.42-2.41s1.84-2.24,3.41-2.24c6.33,0,12.67-.15,19,0,2.88.08,4.06-.48,4-3.76,0-9.16.16-9.16-9.12-9.15-9,0-18,.09-27-.06-2.83-.05-4.13.37-4,3.71.24,10,.17,20,0,30,0,2.77.73,3.75,3.61,3.68,7.66-.18,15.32-.05,23-.07,1.9,0,3.69-.19,3.55,2.69s-2.23,1.95-3.62,2c-9.33.08-18.67-.06-28,.09-2.71.05-3.34-.92-3.32-3.45.1-13.16.17-26.33,0-39.48,0-3.4,1.42-3.81,4.16-3.76C1037,170.93,1043.78,170.86,1050.61,170.86Z"/><path class="cls-3" d="M312.82,179.6a52.83,52.83,0,0,1,11.58.84c10.11,2.05,15.75,9,15.74,19.41,0,10.12-5.18,16.39-15.42,18.38-6.9,1.34-13.93,1.06-20.92,1-1.48,0-2.56-.19-2.61-2.11s.73-2.61,2.63-2.61c5.33,0,10.68.16,16-.24,11.63-.88,17.2-7.52,15.4-17.94-1.17-6.79-6.53-11.23-14.68-11.83-3.81-.28-7.66-.14-11.49-.15-1.43,0-3-.38-3.07,2.05s1.46,2.14,3,2.19c4.32.12,8.66-.28,12.94.67,5.66,1.26,8.86,4.35,9.12,9.06.29,5-2.63,9-8,10.71-6.49,2.09-13.21,1.17-19.85,1.35-1.47.05-2.06-.63-2-2.08,0-2.83.06-5.66,0-8.49,0-1.81.91-2.22,2.49-2.21s2.71.64,2.36,2.33c-1.32,6.42,2.83,6,6.95,5.69,2.32-.16,4.72,0,7-.5,3.31-.78,6.59-2,6.28-6.43-.29-4.18-3.59-5-6.77-5.2a103.54,103.54,0,0,0-14-.13c-3.65.24-4.39-1.11-4.35-4.49C301.17,179.6,301,179.6,312.82,179.6Z"/><path class="cls-3" d="M797.88,221.93c0,10,.14,20-.08,29.95-.07,3.38.72,4.57,4.34,4.49,8.65-.19,8.65,0,8.65-8.65,0-15.81,0-31.62.05-47.42,0-1.51-1.17-4,2-4.11,3.52-.18,2.42,2.5,2.42,4.19.07,18.8,0,37.6.14,56.4,0,3.65-1.24,4.54-4.59,4.34a73,73,0,0,0-12.46,0c-4.73.52-5.39-1.51-5.34-5.64.21-19.3-.09-38.6.23-57.9.08-4.79-1.46-5.93-5.81-5.53-3.79.34-7.64,0-11.47.08-1.69,0-2.84-.25-2.89-2.39s1.1-2.38,2.78-2.36c6.16,0,12.32.15,18.47,0,2.83-.09,3.69.75,3.64,3.61C797.78,201.3,797.88,211.61,797.88,221.93Z"/><path class="cls-3" d="M965,226.51c0-10.16-.11-20.31.06-30.45,0-3-.6-4.17-3.82-4-4.47.29-9,0-13.47.08-1.76,0-2.76-.38-2.82-2.46-.06-2.26,1.19-2.31,2.83-2.3,6.15,0,12.32.23,18.46-.07,3.53-.17,3.6,1.54,3.59,4.18q-.12,28.46,0,56.91c0,2.55-1.39,6.44.91,7.38,3,1.23,6.87.61,10.33.34,2.53-.2,1.56-2.57,1.57-4,.06-17.31,0-34.61.08-51.92,0-1.33-.87-3.26,1.1-3.88s3.4-.08,3.39,2.61q-.12,29.44,0,58.9c0,2.29-.62,3.31-3.09,3.25-5.32-.14-10.65-.16-16,0-2.86.09-3.21-1.31-3.19-3.67C965.07,247.14,965,236.82,965,226.51Z"/><path class="cls-3" d="M668.37,170.88c7,0,14,.11,21,0,2.82-.06,3.77.84,3.64,3.69-.22,5-.22,10,0,15,.14,2.93-1,3.65-3.7,3.59-8-.15-16,0-24-.07-1.63,0-3.33.33-3.41-2.33s1.65-2.32,3.27-2.32c6.32,0,12.66-.13,19,0,2.8.08,4.11-.32,4.1-3.69,0-9.23.17-9.23-9-9.22s-18.32.11-27.48,0c-2.83-.05-3.69.78-3.64,3.63.16,10,.2,20,0,30-.07,3.32,1.25,3.82,4.09,3.77,7.49-.16,15,0,22.48-.06,1.9,0,3.7-.21,3.61,2.67s-2.2,2-3.59,2c-9.16.07-18.32-.07-27.48.08-2.82.05-3.65-.78-3.62-3.63.16-13,.2-26,0-39-.06-3.5,1.25-4.18,4.34-4.1,6.83.17,13.66.05,20.49.05Z"/><path class="cls-3" d="M392.25,170.88c7,0,14,.09,21,0,2.62-.05,4,.47,3.82,3.53-.25,5.15-.17,10.32,0,15.48.06,2.33-.63,3.26-3.08,3.23-8.32-.1-16.64-.08-25,0-2,0-3.06-.4-3-2.73,0-2.55,1.77-1.93,3.11-1.94,6.66-.05,13.32-.11,20,0,2.3,0,3.1-.56,3.22-3,.5-9.9.6-9.89-9.32-9.89-9,0-18,.15-27-.07-3.19-.07-3.9,1-3.85,4q.25,14.73,0,29.46c-.06,3,.81,4.06,3.91,4,7.48-.2,15-.08,22.47-.06,1.74,0,3.82-.54,3.77,2.48,0,3.24-2.41,2.12-3.93,2.13-8.82.1-17.65-.06-26.47.12-3.05.06-4.35-.51-4.29-4,.22-12.82.19-25.64,0-38.45,0-3.23.79-4.4,4.16-4.28C378.59,171.05,385.42,170.88,392.25,170.88Z"/><path class="cls-3" d="M845.61,121.19c-3,1.17-4.49.4-5.71-2Q834.61,109.06,829,99.06c-1.69-3-.59-3.33,2.27-3.74,12.88-1.88,19.26-9.24,19-21.42-.26-10.34-6.12-17.18-16.78-19.18-7.24-1.36-14.61-.87-21.94-1C808,53.73,809,56.24,809,58c-.06,19.49,0,39,0,58.47,0,1.16,0,2.33,0,3.49s-.64,1.7-1.85,1.72c-1.38,0-2.28-.31-2.15-1.91,0-.33,0-.67,0-1q0-33,0-66c0-1.51-.18-3.12,2.14-3,9.79.3,19.67-1,29.32,1.61,11.47,3.09,17.62,10.72,17.91,22.18.33,13-5,21.09-16.84,24.41-4,1.13-3.09,2.44-1.72,4.9C839.06,108.79,842.21,114.82,845.61,121.19Z"/><path class="cls-3" d="M504.25,49.73c0,2.27-1.53,3.25-2.49,4.49-9.49,12.22-19,24.46-28.65,36.51-2.15,2.67-2.44,4.42-.24,7.24,5.83,7.44,11.29,15.17,17,22.86-2.87,1.73-4.63.72-6.28-1.55-5.48-7.53-10.93-15.08-16.66-22.43-1.89-2.42-.76-3.73.65-5.51,9.57-12.12,19.08-24.28,28.69-36.51-9.69-2.61-13.59-1.34-19.29,6-7.86,10.11-15.7,20.24-23.68,30.26a9.9,9.9,0,0,0-2.28,6.8c.14,6.83.08,13.65,0,20.47,0,1.31.72,3.13-1.78,3.3-2.82.18-2.21-1.8-2.22-3.34,0-7.65,0-15.31-.06-23a7.48,7.48,0,0,1,1.77-5q15-19,29.83-38.12c1-1.28,1.78-2.6,3.87-2.56C489.67,49.82,496.93,49.73,504.25,49.73Z"/><path class="cls-3" d="M489.31,57.93C484.53,64,479.83,70,475.15,76c-5.33,6.81-12.7,12.91-15.38,20.64s-1,17.12-.62,25.76c.22,4.87-.84,7-6.11,6.29a69.38,69.38,0,0,0-11,0c-2.12.07-2.9-.66-2.89-2.87q.09-36.48,0-72.95c0-1.54-.09-3.17,2.18-3.07,2.82.12,1.84,2.34,1.84,3.74.06,22,0,44,.09,66,0,1.65-1.1,4.3,1.1,4.81a19.24,19.24,0,0,0,9.85-.13c1.14-.34.61-2.09.62-3.21,0-7.33.13-14.66,0-22a10.44,10.44,0,0,1,2.47-7.26q12.56-15.54,24.86-31.27C484,58.1,485.77,56.55,489.31,57.93Z"/><path class="cls-13" d="M218.09,262.21c-5-2.17-4-6.64-4-10.68q0-72.53,0-145.06c4.15,1.52,3.43,5.26,3.47,8.34.2,13.92.07,27.84.09,41.76,0,5.14-.14,10.28.07,15.41.13,3.28.14,6.66,2.34,9.45q0,35.07,0,70.14c0,4-1.07,8.5,4,10.64Z"/><path class="cls-3" d="M823,57.61a40.6,40.6,0,0,1,10.65.9c8.3,2,13.31,8.59,13.05,17.13s-4.76,13.89-13.34,15.59c-5.9,1.18-11.92,1.07-17.92,1-1.46,0-2.64-.16-2.66-2.07,0-2.07,1.41-1.87,2.73-1.89,5.32-.06,10.66.25,15.94-.77,7.39-1.43,11.18-5.62,11.18-12.47s-4-11.24-11-12.75c-4.14-.88-8.3-.46-12.44-.64-1.73-.07-2.41.63-2.35,2.32.06,1.85,1.4,1.5,2.5,1.54,4.14.16,8.31-.36,12.41.82,3.92,1.12,6.56,3.45,6.76,7.62s-1.76,7.32-5.82,9c-5.94,2.39-12.15,1.38-18.27,1.56-1.23,0-1.78-.6-1.77-1.81,0-2.33,0-4.66,0-7,0-1.37.37-2.16,1.94-2.2,1.77,0,2.54.77,2.24,2.4-.93,4.91,2.09,4.83,5.51,4.65,2.83-.15,5.66-.16,8.37-1.14,2.22-.81,3.7-2.24,3.67-4.76s-1.6-3.8-3.93-4.45c-4.6-1.28-9.28-.62-13.9-.58-3,0-4-.66-4-3.83C812.59,57.62,812.42,57.61,823,57.61Z"/><path class="cls-3" d="M541.13,210.9c0-12.15,0-24.3,0-36.44,0-1.53-1.1-3.86,2.11-4,3.41-.18,2.65,2.15,2.65,4,0,22.79.12,45.59-.08,68.38,0,4,1.1,5.16,5,4.84,4.13-.35,8.32,0,12.48-.09,2,0,3.62.11,3.47,2.85s-2.21,2-3.64,2c-6.16.08-12.32-.1-18.47.1-2.89.1-3.63-.88-3.6-3.68C541.2,236.19,541.13,223.54,541.13,210.9Z"/><path class="cls-3" d="M1029.86,105c.47-4.36-2.27-11.19,1-14.46,3-3,9.81-.6,14.93-.83,1.49-.07,3,0,4.49-.1,11.84-.57,17.77-11.09,12.18-21.65-2.37-4.47-6.4-6.08-11.16-6.22-3.66-.11-7.33,0-11-.05-1.36,0-2.69.08-2.68-2s1.13-2.11,2.61-2.09c4.5.06,9-.27,13.48.2,9.45,1,14.63,7.79,14.42,18.24s-5.46,16.57-15.36,17.34a142.56,142.56,0,0,1-15.47.18c-2.88-.1-3.73.86-3.66,3.68.17,7,.06,14,0,21,0,1.58.48,3.62-2.19,3.5-2.49-.1-1.6-2.11-1.63-3.38C1029.79,114.18,1029.86,110,1029.86,105Z"/><path class="cls-3" d="M544.73,71c-5.83-5.45-7.89-14-15.1-17.67l-1.36,1.19,16.11,22.83c5.83-8.5,11.46-16.56,16.9-24.75,1.57-2.37,3.24-3.58,6.57-2.34L544.5,84.5,520.66,50.58c11.37-2.94,14.32-1.1,25,15.17C547.13,68.06,547.13,68.06,544.73,71Z"/><path class="cls-3" d="M463.22,98c5.74,7.72,11.13,14.45,15.89,21.6,2.63,3.94,5.56,5.68,10.21,5,2.23-.32,4.56,0,7.79,0L477.86,98.37a29.29,29.29,0,0,1-2-2.84c-.76-1.36.45-2.2,1.22-2.9,1.16-1.06,1.65.24,2.19,1,8.51,11.4,17,22.8,26.06,34.95-8.21,0-15.46,0-22.71,0-1.88,0-2.6-1.2-3.47-2.38-4.86-6.54-9.61-13.16-14.6-19.6C462.67,104.21,462.74,101.76,463.22,98Z"/><path class="cls-3" d="M454.77,75.13c0-6.52,0-12.06,0-17.61,0-1.58.47-3.67-2.19-3.49-2.45.17-1.48,2.24-1.5,3.49-.1,6.31-.2,12.64,0,18.94A9,9,0,0,1,447,85c0-11.34,0-22.18,0-33,0-1.7.75-2.14,2.39-2.35,9-1.12,9.58-.65,9.58,8.15,0,3.16-.2,6.33.05,9.47S457.85,72.51,454.77,75.13Z"/><path class="cls-12" d="M56.22,204.41c-3.31-1.73-6.58-3.5-6-8.11A29.06,29.06,0,0,1,56.22,204.41Z"/><path class="cls-4" d="M88.51,110.38c-3.37-.57-4.62-2.71-4.38-5.94A18.49,18.49,0,0,1,88.51,110.38Z"/><path class="cls-2" d="M58.15,68.47c-3.08-.86-4.34-2.93-4-6.06A20,20,0,0,1,58.15,68.47Z"/><path class="cls-4" d="M84.14,104.45c-3.32-.25-4.47-2.12-4-5.25A15.45,15.45,0,0,1,84.14,104.45Z"/><path class="cls-14" d="M220.06,181.43c-4.55-1.37-3.9-5.3-3.92-8.58-.11-19.47-.06-38.93,0-58.4,0-2.85-.09-5.64-2-8,0-17,.13-34.11-.1-51.16-.06-4.12,1.38-5.39,5.15-4.74a30.68,30.68,0,0,1,1,6.84Q220,119.42,220.06,181.43Z"/><path class="cls-11" d="M69.89,236.22a2,2,0,0,1-2,1.54c-1.22.07-1.66-.88-1.56-1.92.11-1.27,1.14-1.43,2.15-1.33A1.42,1.42,0,0,1,69.89,236.22Z"/><g id="Layer_2-2" data-name="Layer 2"><g id="Layer_1-2-2" data-name="Layer 1-2"><path class="cls-3" d="M941,90.15c0,20.41-18.17,39-37.64,39.71a40.48,40.48,0,0,1-42.84-38c-.05-.94-.08-1.88-.07-2.82,0-22.13,18.11-39.54,40.86-39.71C922.93,49.18,940.89,67.76,941,90.15Zm-76-.9a36,36,0,0,0,35.44,36.6h.43c19.33.39,35.92-15.89,36.22-35.62a36.09,36.09,0,0,0-72.14-2.43c0,.48,0,1,0,1.45Z"/><path class="cls-3" d="M933.22,89.44a32.25,32.25,0,0,1-32,32.47h-.54A32.79,32.79,0,0,1,868.09,90C867.6,72.25,882,57.89,900.64,57.57S933,70.57,933.22,89.44ZM900.75,61.58a27.44,27.44,0,0,0-28.17,26.69c0,.55,0,1.09,0,1.64a28.41,28.41,0,0,0,28.61,28.23h.06a28.73,28.73,0,0,0,28-28.44C929.49,73.79,917.07,61.62,900.75,61.58Z"/><path class="cls-3" d="M900.84,114.43a25.18,25.18,0,0,1-25.19-25.18v-.19a25.58,25.58,0,0,1,24.89-24.48,25,25,0,0,1,24.94,24.91,24.52,24.52,0,0,1-24.09,24.94ZM901,110a20.17,20.17,0,0,0,20.5-19.84c0-.32,0-.64,0-1a20.72,20.72,0,0,0-20.58-20.3A20.94,20.94,0,0,0,880,89.59,20.37,20.37,0,0,0,900.31,110Z"/></g></g><path class="cls-3" d="M667.32,89.09c0,20.41-18.17,39-37.64,39.71a40.48,40.48,0,0,1-42.84-38c-.06-.94-.08-1.88-.07-2.83,0-22.13,18.11-39.54,40.86-39.71C649.3,48.12,667.26,66.7,667.32,89.09Zm-76-.89a36,36,0,0,0,35.44,36.59h.43c19.33.38,35.92-15.9,36.22-35.62a36.09,36.09,0,0,0-72.14-2.44c0,.49,0,1,0,1.46Z"/><path class="cls-3" d="M659.59,88.39a32.26,32.26,0,0,1-32,32.47H627a32.8,32.8,0,0,1-32.55-32C594,71.2,608.39,56.84,627,56.52S659.4,69.51,659.59,88.39ZM627.12,60.52A27.44,27.44,0,0,0,599,87.21c0,.55,0,1.1,0,1.65a28.41,28.41,0,0,0,28.61,28.22h.06a28.73,28.73,0,0,0,28-28.44C655.86,72.73,643.44,60.56,627.12,60.52Z"/><path class="cls-3" d="M627.21,113.38A25.19,25.19,0,0,1,602,88.2V88a25.56,25.56,0,0,1,24.89-24.47,25,25,0,0,1,24.94,24.9,24.51,24.51,0,0,1-24.09,24.94Zm.12-4.46a20.17,20.17,0,0,0,20.5-19.84c0-.31,0-.63,0-1a20.74,20.74,0,0,0-41.48.41,20.36,20.36,0,0,0,20.33,20.39Z"/><path class="cls-3" d="M434.36,89.78c0,20.41-18.17,39-37.64,39.71a40.48,40.48,0,0,1-42.84-38c-.06-.94-.08-1.88-.07-2.82,0-22.13,18.11-39.54,40.86-39.71C416.34,48.81,434.3,67.39,434.36,89.78Zm-76-.9a36,36,0,0,0,35.44,36.6h.43c19.32.39,35.92-15.89,36.22-35.62a36.09,36.09,0,0,0-72.14-2.43c0,.48,0,1,0,1.45Z"/><path class="cls-3" d="M426.63,89.07a32.25,32.25,0,0,1-32,32.47h-.54A32.79,32.79,0,0,1,361.5,89.59C361,71.88,375.43,57.52,394.05,57.2S426.44,70.2,426.63,89.07ZM394.16,61.21A27.44,27.44,0,0,0,366,87.9c0,.55,0,1.09,0,1.64a28.41,28.41,0,0,0,28.61,28.23h.06a28.73,28.73,0,0,0,27.95-28.44C422.9,73.42,410.48,61.25,394.16,61.21Z"/><path class="cls-3" d="M394.24,114.06a25.18,25.18,0,0,1-25.18-25.18v-.19A25.58,25.58,0,0,1,394,64.21a25,25,0,0,1,24.94,24.91,24.52,24.52,0,0,1-24.09,24.94Zm.13-4.45a20.17,20.17,0,0,0,20.5-19.84c0-.32,0-.64,0-1a20.72,20.72,0,0,0-20.58-20.3,20.94,20.94,0,0,0-20.9,20.7,20.37,20.37,0,0,0,20.33,20.4Z"/><path class="cls-3" d="M295.89,61.84c12.21-6.4,24.5-8.14,37.05-1,7.33,4.26,7.37,5.39,1.45,11.31-3.07,3-5.26,2-8.29,0a18.57,18.57,0,0,0-21.56.57c-6.82,5.22-8.92,12.34-7.28,20.5a19.68,19.68,0,0,0,16.12,14.57A12.24,12.24,0,0,0,323,106c-.92-2.13-2.69-1.56-4-1.43-5.78.57-3.63-3.86-4.14-6.39-.55-3,.34-5.07,4-4.56a12.31,12.31,0,0,0,1.92,0c15.91-.34,15.8-.36,15.36,15.53a8.34,8.34,0,0,1-5.12,8c-11.74,5.86-23,4.69-34-2.13-1.47-.92-2.34-4.07-5.05-1.92v.19c2.28-2.68-.89-3.58-1.85-4.94-9.27-13.27-8.1-26.61-.66-40.09h0a18.4,18.4,0,0,0,6.5-6.5Zm35.94,43.73c0-8.94-1.47-10-10.48-8.71-1.34.19-2.85.3-2.94,1.79-.15,2.3,1.73,1.79,3.2,1.87,2.6.15,5.85-.93,6.39,3.37s-1.54,6.2-5.46,7.2a22.77,22.77,0,0,1-23.88-7,21.82,21.82,0,0,1-4.45-24.32,22.08,22.08,0,0,1,20-14.66,24.23,24.23,0,0,1,14.15,3.21c1.36.79,2.66,1.43,3.88-.23s0-2.47-.84-3.26A15.13,15.13,0,0,0,328,63a27.94,27.94,0,0,0-33.21,7c-8,9.25-9.19,23.93-2.79,33.39A28.94,28.94,0,0,0,325.72,115C330.87,113.26,333.05,110.22,331.83,105.57Z"/><path class="cls-3" d="M292,113c12.19,14.42,32.3,13.51,45.76,2.87a4.56,4.56,0,0,0,1.47-4c0-6.84,2.28-15.19-.83-20.09s-12.25-.92-18.62-1.92c-1.74-.28-5,1.66-4.85-2.13,0-2.92,2.89-1.9,4.58-1.92,6.62-.1,13.27,0,19.89-.1,3.26,0,4.54.83,4.44,4.26-.24,7.9-.11,15.8,0,23.71a6.69,6.69,0,0,1-2.62,6.13c-23.86,17.05-56.33,7.93-64.15-23a40.27,40.27,0,0,1,17.26-42.48,41.29,41.29,0,0,1,45.78,2.13c1.66,1.27,5.71,2.23,3.43,5.41s-4.26-.11-6.2-1.52A34.25,34.25,0,0,0,299,57.66c-1.4.85-4.26,1-3,4.05h0c-4.54.28-6.24,2-6.5,6.5h0c-1-1.47-1.83-.35-2.43.36-10.35,12.18-7.84,34.79,4.94,44.74Z"/><path class="cls-3" d="M732.28,62.3c12.21-6.39,24.5-8.14,37.05-1,7.33,4.26,7.37,5.39,1.45,11.31-3.07,3-5.26,2-8.29,0a18.59,18.59,0,0,0-21.56.58c-6.81,5.22-8.92,12.33-7.28,20.49a19.69,19.69,0,0,0,16.12,14.57,12.24,12.24,0,0,0,9.57-1.87c-.92-2.13-2.69-1.56-4-1.43-5.78.58-3.63-3.85-4.14-6.39-.55-3,.34-5.07,4-4.56a12.31,12.31,0,0,0,1.92,0c15.91-.34,15.8-.36,15.36,15.53a8.34,8.34,0,0,1-5.12,8c-11.74,5.86-23,4.69-34-2.13-1.47-.91-2.34-4.07-5-1.92v.2c2.28-2.69-.89-3.58-1.85-5-9.27-13.27-8.09-26.6-.66-40.09h0a18.32,18.32,0,0,0,6.5-6.5ZM768.22,106c0-9-1.47-10-10.48-8.72-1.34.19-2.85.3-2.94,1.79-.15,2.3,1.73,1.79,3.2,1.88,2.6.15,5.86-.94,6.39,3.36s-1.54,6.2-5.46,7.2a22.76,22.76,0,0,1-23.88-7,21.86,21.86,0,0,1-4.45-24.33,22.09,22.09,0,0,1,20-14.66,24.16,24.16,0,0,1,14.15,3.22c1.36.79,2.66,1.42,3.88-.24s0-2.47-.83-3.26a15.86,15.86,0,0,0-3.35-1.85,28,28,0,0,0-33.21,7c-8,9.24-9.18,23.92-2.79,33.38a28.93,28.93,0,0,0,33.68,11.59C767.26,113.73,769.44,110.68,768.22,106Z"/><path class="cls-3" d="M728.38,113.47c12.19,14.42,32.3,13.51,45.77,2.88a4.61,4.61,0,0,0,1.47-4c0-6.84,2.28-15.19-.84-20.09s-12.25-.92-18.62-1.92c-1.74-.27-5,1.66-4.85-2.13,0-2.92,2.89-1.89,4.58-1.92,6.62-.1,13.27,0,19.9-.1,3.26,0,4.53.83,4.43,4.26-.24,7.9-.11,15.81,0,23.71a6.7,6.7,0,0,1-2.62,6.14c-23.86,17-56.33,7.92-64.15-23a40.28,40.28,0,0,1,17.26-42.48,41.29,41.29,0,0,1,45.78,2.13c1.66,1.28,5.71,2.24,3.43,5.41s-4.26-.11-6.2-1.51a34.24,34.24,0,0,0-38.35-2.69c-1.4.86-4.26,1-3,4.05h0c-4.54.28-6.24,2-6.5,6.5h0c-1-1.47-1.83-.34-2.43.36-10.35,12.19-7.84,34.79,4.95,44.74Z"/></g></g></svg>