<svg xmlns="http://www.w3.org/2000/svg" viewBox="0 0 1084.06 301.39"><defs><style>.cls-1{fill:#d4323a;}.cls-2{fill:#a62d35;}.cls-3{fill:#962e35;}.cls-4{fill:#9d2c35;}.cls-5{fill:#e9333b;}.cls-6{fill:#b32e36;}.cls-7{fill:#ad2e36;}.cls-8{fill:#bb2f37;}.cls-9{fill:#f0333b;}.cls-10{fill:#952c34;}.cls-11{fill:#f7343c;}.cls-12{fill:#c02f38;}.cls-13{fill:#d23139;}.cls-14{fill:#cb3039;}.cls-15{fill:#df313a;}.cls-16{fill:#c63038;}.cls-17{fill:#da313a;}.cls-18{fill:#d63139;}.cls-19{fill:#9a2b34;}.cls-20{fill:#8e2c34;}.cls-21{fill:#ab2c35;}.cls-22{fill:#b32d35;}.cls-23{fill:#f1323a;}.cls-24{fill:#902b33;}.cls-25{fill:#d93039;}.cls-26{fill:#bd2d37;}.cls-27{fill:#e7313a;}.cls-28{fill:#c52e36;}.cls-29{fill:#cc2f38;}.cls-30{fill:#e13039;}.cls-31{fill:#a22b33;}.cls-32{fill:#703d42;}.cls-33{fill:#a42d36;}.cls-34{fill:#f8333d;}.cls-35{fill:#963039;}.cls-36{fill:#e4323a;}.cls-37{fill:#ab303c;}.cls-38{fill:#d3323b;}.cls-39{fill:#a03c45;}.cls-40{fill:#dd4b56;}.cls-41{fill:#ea333d;}.cls-42{fill:#d24047;}.cls-43{fill:#bc3542;}.cls-44{fill:#d23038;}.cls-45{fill:#fff;}</style></defs><g id="Layer_2" data-name="Layer 2"><g id="Layer_1-2" data-name="Layer 1"><path class="cls-1" d="M212.82,70.39c13-.7,13-.7,13,12.08,0,48.47-.09,96.95.15,145.42,0,5.4-1.61,7-6.62,6.3a55.91,55.91,0,0,0-6.48-.2c-1.85-1.88-1.62-4.3-1.62-6.6q-.06-75.19,0-150.4C211.21,74.69,211,72.27,212.82,70.39Z"/><path class="cls-2" d="M34.76,132.26l-7.07-7a9.2,9.2,0,0,0-4.45-7.84c-2.24-1.48-3.3-4-.32-6.11,1.57-1.1,1.59-2.31,1.11-3.87a24.26,24.26,0,0,1-.56-6c-.95-16.08.59-32.15,0-48.22-.11-3.16-1.21-6.46-1-9.29A109.74,109.74,0,0,0,22,22.17c-.37-3,2.47-6.06,2.35-9.48-.65-2.5,2.17-3.38,2.53-5.41h0c2.09-.7,3.17-4.3,5.6-3,1.93,1,.75,3.92.81,6a45.34,45.34,0,0,0,1,6.8c-.4,4.57-.49,8.9,2.08,13.24,1.51,2.56.35,6.46,3,8.93-3.65,6.73-3.24,14-3.22,21.33,0,6.11.24,12.2-1,18.33-.78,3.79,1.16,7.75,1.16,11.78,0,7.42-1.06,14.95,1.37,22.24a2.52,2.52,0,0,1,0,2c-3.17,5-1.67,10-.61,15.13C37.44,131.51,36.53,132.54,34.76,132.26Z"/><path class="cls-3" d="M212.82,70.39q0,81.8,0,163.6h-6c-.86-1.39-.48-2.93-.48-4.39q0-77.41,0-154.82c0-1.46-.4-3,.49-4.38Z"/><path class="cls-4" d="M24.85,12.24c2.34.52,2.7,2.08,1.23,3.56-3,3-3.29,6.68-3.22,10.53,0,.64.05,1.78.32,1.86,8,2.47-.12,6.6.75,10,.43,1.67-1.79,4.25.32,6.59,1.06,1.18.58,2.87.58,4.35,0,12.79.51,25.61-.22,38.36-.31,5.47.73,10.78.27,16.18-.13,1.59-.21,3.2,1,4.69,1.41,1.7,1.52,3.41-1.35,3.84-1.08.16-2.69-.13-2.19,1.73a3.42,3.42,0,0,0,2.12,2.79c3.42,1.56,6.11,4.24,3.2,8.56-4-3-6.7-7.2-9.66-11.13-2-4.87-2.81-9.74-1-14.94.94-2.65-1.4-5.08-1.45-7.73-.29-15-.54-29.95.18-44.91.14-2.88,0-4.08-2.89-4.33-.61,0-.84-1-1.07-1.58A6.56,6.56,0,0,1,12,36.8c2.28-3.46,5.79-6.46,2.58-11.45-.78-1.21,2-3.18,2.2-5.22a26.35,26.35,0,0,1,5.68-8A1.89,1.89,0,0,1,24.85,12.24Z"/><path class="cls-5" d="M102.91,132.17a60.15,60.15,0,0,1,7.78,14c-3.59,1-4.42,4-4.13,6.9.51,5.22,1.16,10.36.44,15.63-1.4,10.18-.56,20.46-1,30.69-.05,1.13-.73,2.38,0,3.39,3.73,4.93,2.21,10.64,1.77,15.87-.3,3.53.61,5.33,3.22,6.95a11,11,0,0,1,1.88,5.68,49,49,0,0,1-16.27,18.94,90.81,90.81,0,0,0,2.23-23.1c1.66-2.77.2-5.44-.34-8.11s-1.95-4.94-1.1-7.69c1.76-2.86,2.43-5.81.92-9A4.12,4.12,0,0,1,98,199.9c1.88-10.35.41-20.61-.24-31-.46-7.35-.56-14.92,1.19-22.27.48-2.06.43-4-1.35-5.48-1.59-1.34-1.33-2.88-.47-4.48.49-1.74-.63-3.18-.89-4.78.74-2.36,1.12-5.34,4.75-2.8l0,0C101.48,130.18,101.84,131.4,102.91,132.17Z"/><path class="cls-6" d="M49.73,147.25a23.37,23.37,0,0,1-5.89-6.05c-.22-1.68-.56-3.74-1.89-4.47-4.11-2.23-3.63-5.26-2.29-8.76,1.2-3.13-.23-6.25-.21-9.39.06-12.8-.69-25.66.29-38.39.6-7.74.31-15.35.33-23,0-1.81.13-3.64.22-5.45.19-3.53,2.16-4.38,5.65-2.67a24,24,0,0,1,4,7.07c.65,1,.13,2.78,1.92,3.11l0,.05c.8,1.54.6,3.17.42,4.81-1.17,6-2.56,11.73-2.29,18,.58,13.46.29,27,.11,40.46,0,1.33-.29,2.73.4,3.93,2.08,3.61,1.91,6.83-1,10-1.24,1.38-1.54,2.86.68,4.5C53.06,143.16,52.64,145.25,49.73,147.25Z"/><path class="cls-7" d="M45.94,49c-3-.19-5.92-.75-3.9,4.2,1,2.35.08,5.46,0,8-.42,11.81-1.38,23.6-1.21,35.44.12,8-.55,16,.24,23.93.47,4.61.26,8.69-1.71,12.83,3.64,1.38,6.91,3,4.49,7.78a61.89,61.89,0,0,1-9.08-8.94c3.83-1.63-.82-4.31.77-6.21-3.6-2.11-2.87-4.58-.75-7.34a7.25,7.25,0,0,0,.64-8.7c-1.45-2.66-.31-5.89-.59-8.85-.64-6.86,1.4-13.86-1.61-20.65-1.15-2.57,1.89-5,1.72-8.05-.33-5.8.21-11.65-.18-17.44a26.28,26.28,0,0,1,4.08-16.78,1.32,1.32,0,0,1,1.93,0Z"/><path class="cls-8" d="M49.73,147.25c2.59-1.85,1.15-5.14-.07-5.25-6.6-.57-2.09-5.65-1.7-6,3.58-3,3.86-5.79.82-9.27-1.1-1.26.1-2.89.09-4.36,0-14.15.08-28.3-.08-42.45-.08-7.93.55-12.64,3-16.72a13,13,0,0,1,3.07,1l6.8,10.09c-3.49,1.85-4.13,5.55-4.34,8.67-.47,7.09-.4,14.22-.73,21.34-.19,4.22,1.84,8.67,1.5,13.21-.1,1.32.27,2.8-.28,4-2.88,6-1.29,11.65.81,17.34.41,1.09,1.28,2.58.41,3.3-4,3.29-1.17,6.6-.35,9.94.41,1.66-.23,2.52-2,2.25Z"/><path class="cls-9" d="M110.83,226.16c-4-1.87-4.3-2.58-4.06-6.86.23-4,.06-8,0-12,0-.49.14-1.21-.12-1.45-5.33-4.85-1.06-10.8-1.6-16.15a93.38,93.38,0,0,1,.26-17.67c.3-3.26,1.42-7,.25-11.06-1.26-4.38-1.73-10.12,1.19-15,1.61-2.65,2.58,1.11,3.89.13a40,40,0,0,1,5.16,12c.91,1.11.32,2.34,0,3.3-1.73,4.59-1.34,6.87-1.38,12-.08,9.76.31,19.58-.89,29.26a20.35,20.35,0,0,0,.94,8.57c.71,2.5,3.9,5.41-.73,7.53-.73.33.2,1.1.25,1.67A5.06,5.06,0,0,1,110.83,226.16Z"/><path class="cls-10" d="M12.85,40.24c.45,2.51,1.47,1.35,2.63.49a2,2,0,0,1,2.74.16,1.92,1.92,0,0,1,.08,2.72c-2.13,2.09-1.41,4.66-1.42,7.07q-.11,17.45,0,34.9c0,3.39-.71,6.87,1.66,10a4.93,4.93,0,0,1,.17,4.33c-2.19,4.26-1.19,8.3,0,12.46.14.47-.46,1.15-.72,1.74a48.74,48.74,0,0,1-9.3-13.45c-1.58-9-1.54-18-1.16-27.09.19-4.32.26-8.6-1-12.8a3.19,3.19,0,0,1-.28-1.94c2.3-6.22.41-12.38-.2-18.56l.63-1.1A24.21,24.21,0,0,1,12.85,40.24Z"/><path class="cls-11" d="M110.83,226.16c.67-2.38,4.36-4.56.28-7.3-.59-.4-.61-2.86,1.79-1.61s2.64,0,2-1.95a3.76,3.76,0,0,0-.2-.46c-2.16-4.46-3.27-8.58-2.19-14.07,1.57-8-.11-16.48,1-24.74.4-2.86-.47-5.09-4.77-4.44,2.77-1.75,7.46-2.41,2.52-6.28-.89-.71-.77-3.07,1.15-2.87,3.7.37,2.48-2.69,3.43-4.22,7.87,18.45,9.61,37.44,4.46,56.85-1.2,4.53-3.66,8.73-5.54,13.08a10.27,10.27,0,0,0-1.85,3.12l0,0A6,6,0,0,1,110.83,226.16Z"/><path class="cls-12" d="M56.69,154.28l1.24-.8c-3.1-1.81,1.36-8-5.4-7.72,6.38-3.45,6.88-4.77,3.49-11.26a11,11,0,0,1-.52-10A20.59,20.59,0,0,0,56.4,110a26.49,26.49,0,0,1-.51-12.44c.81-4.62-.44-9.17-.06-13.76.16-1.93-.43-4,1.6-5.43,1-.7,1.32-1.48-.14-2.09-.78-.32-2.45,0-1.7-1.58a1.72,1.72,0,0,1,2.93-.35c1.12,1.08,2.14.37,3.18-.11a19.29,19.29,0,0,1,4.17,5.9c.73,2.62,1.1,5.16-1.48,7.09a1.85,1.85,0,0,0-1,2c2,15.37.45,30.8.88,46.19a11.64,11.64,0,0,1-.84,4.88,12.33,12.33,0,0,0-.13,10.08c1.26,3,1.08,6.27-2.57,8.06A12.1,12.1,0,0,1,56.69,154.28Z"/><path class="cls-13" d="M79.05,98.13A30.21,30.21,0,0,1,84.93,106a3.4,3.4,0,0,1,.25,3.2c-3,2.17-5.47,4-3.8,8.8,1,2.93-1.34,6.59-1.2,10.15.44,11.23-.49,22.48.89,33.71.49,4,1,8.3-1.44,12.08-3.09,2.79-4.85,0-6.91-1.65h0a29.55,29.55,0,0,1-1.45-16.86A39.15,39.15,0,0,0,72,143a166.55,166.55,0,0,1,.48-33.78c.31-2.91-.7-5.92,1-8.74C74.83,98.3,76.22,96.68,79.05,98.13Z"/><path class="cls-14" d="M74,90.52a4.74,4.74,0,0,1-1.34-2.09l-.1-.08-6.65-8.17c-.34,2-.69,4-1,6,.32,3.74.9,7.4,1,11.22.32,11.76-.79,23.51.45,35.29.55,5.24,1.4,10.55,1.14,15.89-.3,6.28-2.56,12.67,1.07,18.73.6,2.34,2.45,3.61,4.23,4.94.39-5.79-1.26-11.6.11-17.39,1.15-4.84.38-9.67.26-14.55-.19-8.13-.86-16.29.48-24.56.43-2.63,1.8-6.11.57-9.28-1.48-3.83.71-7.46,4.9-8.38-.74-2-3.35-2.89-3.39-5.34A4.57,4.57,0,0,1,74,90.52Z"/><path class="cls-15" d="M96.84,132.2a5.47,5.47,0,0,1,2,4c-2.26,1.29-2.69,3.08-2.64,5.74.32,16.16-.07,32.33-.13,48.48a6.17,6.17,0,0,1-.45,1.5c-1.4,2.05-2.08,3.92.27,6,1.28,1.12,2.52,2.76.52,4.58-.34.31-1.66-.11-.91.36,3.89,2.46,2.14,6.1,2.34,9.33.43,3.9,2.66,7.32,2.79,11.34.06,1.74-.2,2.87-1.71,3.65-1.73-12.41-6.43-23.78-12.13-34.81a8.07,8.07,0,0,0-2.8-8.61c-2.71-2.39-1.09-4.64,1.63-6.13,2.08-.21,1.45-1.73,1.51-3,.49-10.3.34-20.6.29-30.9,0-3.66,1-6.53,4.42-8.19C94,135.11,93.48,130.74,96.84,132.2Z"/><path class="cls-16" d="M64.84,86.22c-.16,3.73,3.42,3.21,5.69,4.94-2.92,1.13-4.59,3.07-3.66,6.15,1.44,4.77.28,9.47.12,14.24-.34,10.42.71,20.82,1.71,31.21.52,5.5.47,11.12-1.34,16.41-.78,2.28.54,3.13,1.65,4.16,1.88,1.73,1.92,3-.51,4a49.78,49.78,0,0,1-7.81-8.84c1.48-3.33,3.43-6.28-.11-10-1.56-1.66-.19-5.5,1.08-7.85a10.1,10.1,0,0,0,1.17-5.17q0-20.19,0-40.38c0-1.61.24-3.21-.86-4.77C59.3,86.54,61.89,86.19,64.84,86.22Z"/><path class="cls-17" d="M92.83,136.2c-3.27,1.71-4.18,4.32-4.1,8.05.28,12,.11,24,.11,36.1-2.07,0-2.2-2.5-4-2.17-1.76-1.7-1.45-4-1.63-6.1-.84-9.41-1.82-18.81-1.24-28.28.22-3.5-.68-6.94-.61-10.44.07-3.85,0-7.67,2.33-11,1.08-1.53.65-3.11.14-4.76-.82-2.59-.76-5,2.28-6.19,2.54-.7,3.12,2,4.8,2.79a15.08,15.08,0,0,1,4,5.88c-4.51,3.22-1,7.74-1.76,11.59C92.94,133,94.28,134.74,92.83,136.2Z"/><path class="cls-18" d="M86.84,112.2c-3.17,1.36-3.08,3.53-1.19,5.8,1.14,1.36,1.68,2.74.37,3.92-5.21,4.74-3.6,11-2.86,16.4.83,5.92-.47,11.67.3,17.62a182.41,182.41,0,0,1,1.38,22.24c-1.36,3.91-.65,5.33,5.58,11-.74,1.59-3.84.55-3.64,3.17L76.67,177.58c-.75-2.07,1.08-2.5,2.17-3.4,1.43-5.55.71-11.09.41-16.73-.62-11.61-.49-23.28-.24-34.91,0-2.64,3.72-5.58-1.45-7.07-.08,0-.18-.34-.12-.46,1.11-2.25,4.34-3.13,4.07-6.29l3.33.49C87.94,108.58,87.81,110.11,86.84,112.2Z"/><path class="cls-19" d="M24.67,220.55A36.68,36.68,0,0,1,16,209.14c.22-1.88,1.33-3.34,2.25-4.92,1.14-1.95,2-3.94-.72-5.49-2-1.16-1.78-2.93-1.1-4.78a19.41,19.41,0,0,0,0-13.58c-.46-1.29-1-2.94.09-3.78,4.51-3.61,1.54-7,0-10.52A41,41,0,0,1,26.78,151c1.68,1.55.75,3.6.55,5.2-.61,5,.77,9.77.8,14.67a8.8,8.8,0,0,1-.15,1.45c-2.71,3.18.2,7-1.06,10.28-2.76,1.3-3.4,3.58-2.34,6.15,3.05,7.37,1,15,1,22.44C25.55,214.19,27.71,217.73,24.67,220.55Z"/><path class="cls-20" d="M6.13,40.3c3,5.9,4.05,11.84,1.39,18.29C6.81,60.3,8.9,62.24,9,64.5c.23,6.91-.47,13.78-.36,20.65.09,5.18,1.15,10.34.12,15.54C1.64,89.54-.74,77.22.19,64.26A70.28,70.28,0,0,1,6.13,40.3Z"/><path class="cls-21" d="M26.85,172.18v-1c2.3-2.09,4.15-5.37,8.11-3l5.93,12c-1.88,1.05-3-.17-4.18-1.2.29,4.6,2.92,8.87,1.64,14.09a41,41,0,0,0-.43,16.68c1.1,6.5-1,12.88-3.71,18.89-4.52-1.84-6.3-5.65-6.67-10.07a49.75,49.75,0,0,1,.27-12.84c2.8-8.25,2.14-16.62.72-25-.29-1.67-.94-3.28.06-4.78C30.14,173.62,27.9,173.21,26.85,172.18Z"/><path class="cls-22" d="M34.84,228.16c-1.16-5.92,3.26-11.29,1.93-17.11-1.4-6.05-.48-11.94-.1-18,.16-2.6,3.29-6.36-1.58-8.16,2.2-3.25-.24-6.85.59-10.37,1.07,2.71,2,5.2,5.21,5.6l6.23,9.93c-2.46.81-3.7,1.75-3.71,5.1,0,4.14.61,8.46-.84,12.67a14.29,14.29,0,0,0-.1,8.84c1.75,5.34,1.79,10.73,1.74,16.19A8.37,8.37,0,0,0,46,238.45c1.12,1.42,2.43,2.89.81,4.81a68.22,68.22,0,0,1-9.91-10.12C36.87,231.21,33.16,230.8,34.84,228.16Z"/><path class="cls-23" d="M78,234.85a54.68,54.68,0,0,1,6.74,17.31c-4.07,9-2.09,18.24-.77,27.42,0,.15.55.29.78.55-.28,4.8-3.62,8.12-5.84,12-2.69,1.53-3-1.51-4.41-2.34-.79-2.37,3-3.56,1.55-6.09a6,6,0,0,1,0-3.35c0-3.56-.1-7.1-1.89-10.34,1.54-6.77.19-13.5,0-20.27-.09-2.69.72-4.93-1.14-7.58S74,236,78,234.85Z"/><path class="cls-24" d="M16.54,166.07c4,.35,2.69,4.27,4.13,6.35a2.47,2.47,0,0,1-1.86,3.78c-2,.39-2.2,1.75-1.46,3.37A16.86,16.86,0,0,1,17.21,195a1.9,1.9,0,0,0,.46,2.64c4.06,2.9,4.25,4,1.14,8-.9,1.16-1.27,2.76-2.77,3.43C7.4,194.68,9.13,180.34,16.54,166.07Z"/><path class="cls-25" d="M66.77,270.3l-6-10.05c-.92-1.1,0-2.75-1.14-3.78a5,5,0,0,1-1.46-3.14c1.4-3.94,1.34-8,1.31-12.13,0-3.11-.32-6.26.83-9.25.86-2.26-.52-3.74-1.69-5.32-.94-2,.31-3.28,1.54-4.55,0-.65,2.25-.41.69-1.52-.45-.32-1.56.2-2.26-.43a4.83,4.83,0,0,1,.14-3c1.13-2.7,2.42-5.1,5.95-2.94,3.29,3.59,5.47,7.94,8.13,12a11.26,11.26,0,0,0-4.22,4.57c-4.32,2.88-2.27,7.43-2.11,10.9.39,8.56.56,17.17,1.63,25.7A2.84,2.84,0,0,1,66.77,270.3Z"/><path class="cls-26" d="M46.81,243.26c0-.49.18-1.23-.07-1.45-5.39-4.78-3.42-11.17-4-17.08-.46-4.81-3.15-9.5-1.8-14.39,1.23-4.44-.63-9.15,1.62-13.41a2,2,0,0,0-.12-1.87c-2.25-2.14-.77-4,.46-5.68,1.62-2.17,2.58,1.69,4.21.72a17.41,17.41,0,0,1,4.11,6c-2.82,5.11-3.23,10.62-3,16.33.21,6.11.08,12.23,0,18.35a21,21,0,0,0,3,11.36c.29,2-.16,3.35-2.54,3.18Z"/><path class="cls-27" d="M68.84,230.16c-1.3-4,1.11-4.22,4-4A33.38,33.38,0,0,1,78,234.85c-2.17,2.8-8.1,5-1.47,9.24a1.5,1.5,0,0,1,.23,1.37c-3.25,3.08.61,7-1.29,10.42-.53.93.85,2.92,1.32,4.43,1.12,3.63-2.29,6.36-2,9.83,1.85,3.09.41,6.85,2,10,0,1.33,0,2.66,0,4a3.18,3.18,0,0,1-3.84,1.4,2.68,2.68,0,0,1-.89-1.06c-.55-1.38.3-3.23-1.4-4.23l0,0a30.22,30.22,0,0,0-2-15.48c-1.08-2.72-.56-6-.1-8.78C70,247.33,69.64,238.76,68.84,230.16Z"/><path class="cls-28" d="M50.84,242.15c-4.12-1.49-3.46-5.37-3.89-8.44-.47-3.41-.11-6.93-.11-10.4,0-6.27,0-12.55,0-18.83a9.25,9.25,0,0,1,4.4-8.43c2.62,2.18,4,5.3,5.88,8-2.34,2-2.86,4.62-2.83,7.6.09,7.8.1,15.6,0,23.41C54.23,237.92,54.13,240.84,50.84,242.15Z"/><path class="cls-29" d="M50.84,242.15a14.66,14.66,0,0,0,2.07-8.39c-.2-8.65.05-17.31-.13-25.95-.07-3.38,1.08-4.58,4.33-3.74A7.39,7.39,0,0,1,60,207.9c-1.16,1.41-1.26,8-.15,10.26l-1,2c.59.75,1.66,1,2,2-.67,1.33-1.33,2.67-2,4-1,4.11.11,8.25-.87,12.6-1.07,4.72-1.3,10.37.87,15.38l2,2c0,1.9-1,1.58-2.16,1.07l-10-12A3.23,3.23,0,0,0,50.84,242.15Z"/><path class="cls-30" d="M68.84,230.16c2.13.25,2.12,1.86,2,3.36-.73,7.69.72,15.36-.9,23.18-.7,3.41-.86,8.38,1.42,12.14,2.43,4,1.66,7.7-.61,11.38l-4-9.92c.33-1.76,1.09-3.59-.75-5a2,2,0,0,1-.77-2.56c.87-2.42.18-9-.07-11.68-.34-3.52,0-7.11-.19-10.7-.12-2.05.36-4.15-.08-6.3C64.26,230.92,65.89,229.79,68.84,230.16Z"/><path class="cls-31" d="M34.84,228.16c-.33,2.08,3.36,2.5,2.06,5a66.91,66.91,0,0,1-12.23-12.59c-.43-4.93.46-10-1.09-14.8-.53-1.67,1.44-2.42,1.3-4.06-.34-3.91.32-7.8-1.44-11.7-2.11-4.66-.85-6.8,3.4-7.81,1.65-1,2.27-.12,2.51,1.4-1.5,2.14-.12,4.08.43,6.09-.24,5.18.91,10.43-.93,15.5,0,4.42-.38,8.89.11,13.26C29.41,222.35,30.45,226.39,34.84,228.16Z"/><path class="cls-32" d="M206.84,70.4q0,81.79,0,163.59c-2.1-1.05-1-2.94-1-4.38q-.1-77.43,0-154.85C205.85,73.33,204.74,71.43,206.84,70.4Z"/><path class="cls-33" d="M35,168.14c-3.44-.95-5,3.09-8.11,3,.35-3.29-2.29-7.33-1.47-9.08,1.81-3.85-.74-7.74,1.4-11.13a12.84,12.84,0,0,1,5-4.54C31.07,154.28,32.91,161.23,35,168.14Z"/><path class="cls-34" d="M84.78,280.13l-4.27,1.93c2-3.05,1.15-5.48,1.22-7.81.21-7.18-2.7-14.74,1.7-21.57.21-.33.88-.36,1.34-.52C87.56,261.48,88.17,270.8,84.78,280.13Z"/><path class="cls-35" d="M16.81,20.13C15,23.88,18,27.52,17,31.39c-.67,2.51-1.72,4.08-4.11,4.85-1.63,1.37-3.25,5.1-4.9,0A55.34,55.34,0,0,1,16.81,20.13Z"/><path class="cls-36" d="M92.83,136.2c-1.35-3.71-1.11-7.65-1.69-11.46-.47-3.08.14-5.08,3.82-4.68l0,0c.7,1.56.66,3.65,2.91,4.13a10.13,10.13,0,0,1,3.12,4.91c-2.65-.68-3.47,1.09-4.13,3.08C94,132,95.71,136.4,92.83,136.2Z"/><path class="cls-37" d="M40.77,38.24H38.84c-.59-.25-1.65-.42-1.71-.77-1.15-6.4-6.51-12.09-3.29-19.22.3-.5.6-.48.9,0Z"/><path class="cls-38" d="M59.84,218.16c-1-.06-2.57.11-2.57-.85,0-3,1.13-5.87.63-9-.2-1.25,1.65,1.17,2.09-.43a21.83,21.83,0,0,1,4.72,6.31C61.62,213.72,60.13,215.2,59.84,218.16Z"/><path class="cls-39" d="M34.74,18.25h-.9c-1.65-4.25-.6-8.78-1.27-13.41-2.29.13-3.47,2.65-5.7,2.43,1.61-2.54,4-4.29,7.3-7.27A99,99,0,0,0,34.74,18.25Z"/><path class="cls-40" d="M72.83,284.15c0,.33,0,.66,0,1,1.31,1.28,1,2.93,1,4.51a15.71,15.71,0,0,1,.25,3c.06,1.83-.2,3.69.5,5.46-.52,2-2,2.74-4.47,3.3,1.76-6.66,1.48-12.95.82-19.24C72.8,281.71,72,283.71,72.83,284.15Z"/><path class="cls-41" d="M74.63,298.09c-3-.79-1.38-3.22-1.75-4.95.71-.76.78-1.88,1.44-2.68l.52-.33c2.44-1.56,2,2.84,4.1,2C78.9,295.11,75.88,296,74.63,298.09Z"/><path class="cls-20" d="M8,36.26c1.65,3.43,3.26-.8,4.9,0v4c-2.45,2.09-4.3.71-6.09-1A3.22,3.22,0,0,1,8,36.26Z"/><path class="cls-42" d="M86.84,112.2c.4-1.71-.57-2.5-2-3l.09-3.21a27.57,27.57,0,0,1,6,8.18C89.11,114.44,88.6,112,86.84,112.2Z"/><path class="cls-14" d="M78.84,174.18c-.73,1.13-1.45,2.27-2.17,3.4a13.58,13.58,0,0,1-4-5.29C75.18,171.55,76.26,175.3,78.84,174.18Z"/><path class="cls-39" d="M24.85,12.24l-2.36-.14a13.07,13.07,0,0,1,4.37-4.82C28.55,9.89,24.77,10.28,24.85,12.24Z"/><path class="cls-43" d="M54.9,64.19c-1.37.8-2.46.7-3.07-1-.93-1.32-.08-2.64,0-4A11.93,11.93,0,0,1,54.9,64.19Z"/><path class="cls-17" d="M97.85,124.21c-4,.78-3.51-1.65-2.91-4.13C96.55,121,97.12,122.66,97.85,124.21Z"/><path class="cls-44" d="M58.68,257.22a2.36,2.36,0,0,0,2.16-1.07c4,1.4-1.25,2.72,0,4.1A5,5,0,0,1,58.68,257.22Z"/><path class="cls-30" d="M72.83,284.15l-1.85-2c-.09-.64-.18-1.28-.28-1.91C73.6,280.35,72.61,282.58,72.83,284.15Z"/><path class="cls-43" d="M51.82,59.22c-4.71,1.47-1.39-2-1.92-3.11A4.92,4.92,0,0,1,51.82,59.22Z"/><path class="cls-5" d="M112.92,231.27c-.13-1.48-.21-2.94,1.85-3.12A3.74,3.74,0,0,1,112.92,231.27Z"/><path class="cls-36" d="M102.91,132.17c-2.16-.08-2.12-1.55-2-3.09A4.3,4.3,0,0,1,102.91,132.17Z"/><path class="cls-36" d="M97.83,212.16c-1.9-3.48.08-8.47-4.72-10.48,1.48-2,2.4,1.11,3.17-.35.63-1.19-.37-2.22-1.33-2.88-3-2.08-3.37-4.13-.12-6.28,0-16.65,0-33.31,0-50,0-2.78-.32-6,4-6,.07,1.52-3.19,3.42,1,4.55,2,.55,1.15,3.6.8,5.43a91.12,91.12,0,0,0-.06,34.64c.38,2,.77,4.09-.18,5.87-.86,1.61-1.52,2.79,0,4.34a2.9,2.9,0,0,1,.37,2.37,24.27,24.27,0,0,0,0,13.44C101.48,209.31,99.33,210.66,97.83,212.16Z"/><path class="cls-13" d="M74.75,96.18c-.06.64,0,1.42-.92,1.42s-.9-.78-.9-1.42,0-1.43.9-1.42S74.71,95.53,74.75,96.18Z"/><path class="cls-33" d="M28.84,184.18a1.82,1.82,0,0,0-2-2c-1.15-3.34-3.13-6.67,0-10,1.75.2,3.6-.48,5.6.77-1.51,2.64-3.6,4.31-2.25,8.7,2,6.51,1.05,14,.22,21.09-.1.86-1,1.62-1.57,2.43q0-8.5,0-17A2.9,2.9,0,0,1,28.84,184.18Z"/><path class="cls-41" d="M72.9,290.11l-.06-5,4-1c1.5.26,2.13.72.83,2.18-1,1.17-2.71,1.94-2.82,3.82h0A1.27,1.27,0,0,1,72.9,290.11Z"/><path class="cls-41" d="M76.84,280.14c-3.43-2.79-1.5-6.64-2-10C76.78,271.92,78.1,278.51,76.84,280.14Z"/><path class="cls-44" d="M58.84,254.14a8.87,8.87,0,0,1-2.43-8.58,7.06,7.06,0,0,0-.06-4.8c-.19-.44-.83-1.12-.79-1.16,4.18-3.74-.67-9.68,3.28-13.44,3.28,1.46,4.52,2.86,2.63,7-1.55,3.45-.63,8.06-.59,12.16C60.9,248.49,60.88,251.53,58.84,254.14Z"/><path class="cls-38" d="M60.84,222.16a1.82,1.82,0,0,1-2-2c.33-.06.78,0,.95-.2,1.3-1.45,2.49-1.07,3.73.08.49.46,1.2,1.21.6,1.52A10.79,10.79,0,0,1,60.84,222.16Z"/><path class="cls-19" d="M28.84,184.18v4a1.85,1.85,0,0,1-1.92-2.24C27,184.71,27.78,184.3,28.84,184.18Z"/><path class="cls-23" d="M83.88,262c1.4,2.93-.6,4.85-.5,6.95C82.88,266.81,82.36,264.68,83.88,262Z"/><path class="cls-30" d="M72.9,290.11l1.94,0a3.09,3.09,0,0,1-2,3C72.88,292.13,72.89,291.12,72.9,290.11Z"/><path class="cls-15" d="M96,195.84c-1.71-1.13-1-2.52-1.21-3.67a3.2,3.2,0,0,1,.91.24C97.18,193.27,97,194.38,96,195.84Z"/><path class="cls-45" d="M1083.8,142.7c-2.13,1.1-1.94,3.58-2.94,5.37A21.29,21.29,0,0,1,1061,159.78a36.77,36.77,0,0,1-5.75-.19c-5.22-.83-7.42.92-7,6.39s0,10.65.15,16c.13,3.35-.53,4.88-4.47,4.95-14.51.29-14.49.46-14.49-14V112c0-1.62-1.28-4.62,1.6-4.6s1.51,3,1.51,4.6c.11,21.58.28,43.18,0,64.76,0,5.76,2.36,6.69,7.14,6.82,5.11.15,5.36-2.68,5.24-6.54-.19-5.54,0-11.1,0-16.66-.11-3.51,1.13-5.09,4.85-4.86a55.7,55.7,0,0,0,10.25-.19c14.91-1.85,18.9-10.18,19.6-21.86.77-12.35-8.63-20.94-21.3-21.43-5.76-.21-13.13-2.47-16.77.81s-1.06,10.85-1.17,16.51c-.19,10.48,0,10.51,10.35,10.48a25.76,25.76,0,0,0,8.25-.74,5.65,5.65,0,0,0,4.26-5.73,5.84,5.84,0,0,0-4.26-5.69c-5.65-2-9.06,0-9.63,5.71-.13,1.38.49,3.17-1.94,3.19s-3.41-1.27-2.75-3.19c1.22-3.45-3.81-9.61,4.45-10.14,13.6-.87,18,1.15,18.39,8.9.4,8.25-3,12-11.14,12.08-5.12,0-10.27-.32-15.38-.17-3.18,0-4.56-.64-4.48-4.26.26-9.39.17-18.81,0-28.2,0-3.2,1.05-4.76,4.43-4.67,6,.15,12-.11,18,.15,12.53.57,20.84,7,25.08,18.75Z"/><path class="cls-45" d="M969.78,177.21c5.73,5.26,13.27,6.22,20.5,6,18-.56,27.56-10.95,27.69-29.13V113c0-1.77-1.4-5,2-4.94,2.6,0,2,2.85,2,4.66,0,15.83.36,31.66,0,47.47s-14.62,28.25-30.45,27.1c-2.94-.24-5.94,0-8.88-.24-16.26-1.45-26.42-11.71-26.82-27.88-.41-15.62,0-31.24-.15-46.87,0-3.22.79-4.39,4.26-4.48,15.85-.42,15.85-.55,15.85,15.43V156c0,7.29,3.28,10.8,10.14,11.42,9.52.87,15-2.13,15.89-9.72,1.64-14.25.36-28.61.66-42.92a7.31,7.31,0,0,1,10.89-6.74c1.87.9,1.36,2.48,1.36,3.84,0,14.74.43,29.53,0,44.27-.66,20.07-21,31-39.75,21.62-1.43-.7-2.83-1.49-4.26-2.13ZM968,173.42c-1.92-4.75-3.81-8.52-4.26-12.66-1.26-13.44-.34-26.88-.57-40.33,0-2.13-1.16-5.49,2.32-5.6s2.51,3.28,2.53,5.39c.11,12.19,0,24.35.17,36.54.13,9.2,4.78,15.29,13,17.62,10.27,2.91,21.43-.37,25.86-7.7a13.51,13.51,0,0,0,2.13-4.64c2.64-15.7.9-31.53,1.3-47.29,0-1.13-.28-2.33-1.64-2.13s-1.64,1.23-1.64,2.4v4.48c-.11,12.78,0,25.56-.41,38.45a13.29,13.29,0,0,1-11,13.23c-7.64,1.81-15.38,2.43-21.3-4.26a13.46,13.46,0,0,1-3-9.5c.25-13.45.12-26.91.61-40.35.17-5-2.51-4.8-5.92-4.82s-6.75-.25-6.39,5.16c.43,6.79,0,13.65,0,20.49,0,9.16-.77,18.43,1.85,27.38C962.54,168.13,962.94,171.82,968,173.42Zm-1.45.49a3.69,3.69,0,0,0,2.84,2.55,2.12,2.12,0,0,0,.66-1.38,2.86,2.86,0,0,0-2.62-2.3C967.2,172.76,966.76,173.59,966.52,173.91Z"/><path class="cls-45" d="M566.09,117c2,.2,2.45-1.64,3-2.77,3-6.39,8.12-8.18,14.66-7.15,1.36.23,3.2-.81,4,.91s-.77,2.77-1.58,3.92c-6.69,9.63-13.17,19.41-20.3,28.7a26.47,26.47,0,0,0-6,18.85c.51,7.65,0,15.34.17,23,0,3.28-.89,4.26-4.26,4.48-15.72.64-16.74.66-15.44-14.77,1.38-16.53-2.77-30.31-13.64-42.61a176,176,0,0,1-12.89-18.25c-.66-1-2.83-2.13-.91-3.67,1.38-1.11,2.79.28,4.26.56,2.36.47,1.85,5,5.37,3.72h0c-2.41,2.56.64,3.75,1.55,5.14q8.52,12.78,17.66,25.14A18.87,18.87,0,0,1,545,155.35c-.47,7.88-.17,15.79-.45,23.67-.17,4.84,2.79,4.62,6.2,4.73,3.79,0,4.92-1.07,5.18-5.07.77-12.55-2.51-25.37,3.26-39-4.69,3.79-7.12,6.84-7.07,11.55.12,8.52,0,17,0,25.56,0,1.32.51,3.26-1.81,3.33a2,2,0,0,1-2.14-2.5c.64-12.06-1.51-24.22,1.35-36.21h0a3.24,3.24,0,0,0,2.63-3.75l0-.15h0a49.57,49.57,0,0,0,11.59-16.73h0c1.85-.66,3-1.76,2.62-3.92Zm-4.94,19.71a24.46,24.46,0,0,0,8.67-12.48,23.71,23.71,0,0,0-8.67,12.54Zm9-12.78a33,33,0,0,0,9.35-12.47c-5.07,3.29-7.12,6-9.35,12.64Zm-10,12.65A14.45,14.45,0,0,0,558,139.2c-.39.9.25,1.73,1.21,1.15a6.59,6.59,0,0,0,1.94-2.32c.19,0-.49-.6-1-1.28Z"/><path class="cls-45" d="M739.53,121c12.21-6.39,24.5-8.14,37.05-1,7.32,4.26,7.37,5.39,1.44,11.31-3.06,3.05-5.26,2-8.28,0a18.56,18.56,0,0,0-21.56.58c-6.82,5.21-8.93,12.33-7.29,20.49A19.7,19.7,0,0,0,757,167a12.22,12.22,0,0,0,9.56-1.87c-.91-2.13-2.68-1.56-4-1.43-5.77.57-3.62-3.86-4.13-6.39-.56-3,.34-5.07,4-4.56a12.31,12.31,0,0,0,1.92,0c15.92-.34,15.81-.36,15.36,15.53a8.31,8.31,0,0,1-5.11,8c-11.74,5.86-23,4.69-34-2.13-1.47-.92-2.35-4.07-5-1.92v.19c2.28-2.68-.9-3.57-1.85-4.94-9.27-13.27-8.1-26.61-.66-40.09h0a18.29,18.29,0,0,0,6.49-6.5Zm35.94,43.73c0-8.94-1.47-10-10.48-8.71-1.35.19-2.86.3-2.94,1.79-.15,2.3,1.72,1.79,3.19,1.87,2.6.15,5.86-.93,6.39,3.37s-1.53,6.2-5.45,7.2a22.76,22.76,0,0,1-23.88-7,21.82,21.82,0,0,1-4.46-24.32,22.1,22.1,0,0,1,20-14.66A24.13,24.13,0,0,1,772,127.49c1.37.78,2.67,1.42,3.88-.24s0-2.47-.83-3.26a15.79,15.79,0,0,0-3.34-1.85,28,28,0,0,0-33.22,7c-8,9.25-9.18,23.93-2.79,33.39a29,29,0,0,0,33.68,11.59C774.51,172.39,776.68,169.35,775.47,164.7Z"/><path class="cls-45" d="M735.63,172.14c12.19,14.42,32.3,13.51,45.76,2.87a4.59,4.59,0,0,0,1.47-4c0-6.84,2.28-15.19-.83-20.09S769.78,150,763.41,149c-1.75-.28-5,1.66-4.86-2.13,0-2.92,2.9-1.9,4.58-1.92,6.63-.1,13.28,0,19.9-.1,3.26,0,4.54.83,4.43,4.26-.23,7.9-.1,15.8,0,23.71a6.65,6.65,0,0,1-2.62,6.13c-23.86,17.05-56.33,7.93-64.14-23A40.27,40.27,0,0,1,738,113.45a41.29,41.29,0,0,1,45.78,2.13c1.67,1.27,5.71,2.23,3.43,5.41s-4.26-.11-6.2-1.51a34.22,34.22,0,0,0-38.34-2.69c-1.41.85-4.26,1-3,4h0c-4.53.28-6.24,2-6.49,6.5h0c-1-1.47-1.84-.34-2.43.36-10.36,12.18-7.84,34.79,4.94,44.74Z"/><path class="cls-45" d="M674,147.92c0,20.41-18.17,39-37.65,39.71a40.48,40.48,0,0,1-42.83-38c-.06-.94-.08-1.88-.07-2.82,0-22.14,18.11-39.54,40.86-39.71C656,107,674,125.53,674,147.92Zm-76-.9a36,36,0,0,0,35.45,36.6h.43c19.32.39,35.92-15.89,36.22-35.62a36.09,36.09,0,0,0-72.14-2.43c0,.48,0,1,0,1.45Z"/><path class="cls-45" d="M396,187.31a39.81,39.81,0,0,1-39.71-39.92v-.56c.19-21.77,18.07-39.2,40.48-39.52,21.52-.32,40.07,18.36,40.37,40.65C437.5,169.05,418.65,187.12,396,187.31Zm36.86-39.48c.51-19.83-15.08-35.79-35.81-36.62-19-.75-35.92,15.72-36.41,35.51a36.4,36.4,0,0,0,35.8,37h.41c19.37.17,35.58-15.92,36-36Z"/><path class="cls-45" d="M868.06,147.19a39.55,39.55,0,0,1,39-40.07c.33,0,.66,0,1,0,22.45,0,40.26,18.47,40.2,41.78,0,18.91-18.67,38.34-36.82,38.6C885.55,187.73,868,171.48,868.06,147.19Zm76,0A35.81,35.81,0,0,0,908.67,111h-.86c-19.56-.23-35.9,16.43-35.92,36.63a36.47,36.47,0,0,0,36.71,35.89A35.92,35.92,0,0,0,944,147.28Z"/><path class="cls-45" d="M847.52,145.81c2.49,2.32,3.24-.37,4.15-1.64a20,20,0,0,0-8.52-29.53c-8.52-3.52-17.62-2.64-26.54-2.66-4.05,0-2.54,3.3-2.54,5.26v57c0,1.51-.09,3-.25,4.52a2.42,2.42,0,0,1-4.67.3,2.07,2.07,0,0,1,0-.5V175.4c0-20.73.15-41.46-.13-62.17,0-4.9,1.51-6.39,6.22-6.11,8.93.32,17.94-.26,26.69,2.13,10.93,3,17.39,10.65,17.64,20.75.34,14.91-4.13,22.86-16,26.46-4.49,1.34-3.57,2.92-2.13,5.64,2.65,4.86,5.22,9.76,7.84,14.64.66,1.28,2.13,2.68.24,3.86a2.86,2.86,0,0,1-3.94-.87l0-.07c-4.41-7.78-8.79-15.6-12.91-23.44-1.53-2.94,1.73-2.4,2.88-2.59a25,25,0,0,0,11.7-4.67c1.08-.87,2.85-1.81.59-3.34Z"/><path class="cls-45" d="M465.92,156.84c-.53-4.47,2.34-7.79,3.86-11.59h0a8.82,8.82,0,0,0,5.15-6.39h0c3.92-3.66,8.52-6.94,9-12.93h0c3.58.13,4.39-2.53,5.22-5.18h0c3.28-1.76,4.82-4.88,6.84-8.07-8.05-1.81-14.21-.81-18.47,6.6-2.41,4.26-6.09,7.72-8.9,11.74-4.27,6-10.1,10.85-12.91,17.9h0c-3.88,1.3-3.75,4.62-3.8,7.77v19.86c0,1.77,0,3.83-2.13,3.92-2.75,0-1.83-2.41-1.85-3.86V152.26a8.62,8.62,0,0,1,2.13-5.75c9.22-11.74,18.47-23.43,27.69-35.32a9.36,9.36,0,0,1,8.53-4.26c6.39.34,12.78,0,19.17,0,.92,3-1.34,4.26-2.51,5.69-9.27,12-18.54,24-28.1,35.74-2.52,3.14-2.54,5.29-.15,8.33,4.73,6.05,9.2,12.3,13.63,18.58,1,1.36,3.82,2.83,1.79,4.64s-4.26,0-5.84-1.91c-3.38-4.41-6.56-8.95-9.95-13.34-1.21-1.58-1.85-3.83-4.26-4.26h0c-.34-2.28-.81-4.41-3.92-3.9Z"/><path class="cls-45" d="M802.14,146.7V112.62c0-1.82-1.38-5.1,1.75-5.1,2.3,0,1.34,3.16,1.34,4.86q.12,32.4,0,64.79c0,3.72-.47,6.71,5,6.52,4.41-.13,7.16-.37,6.59-6a113.53,113.53,0,0,1,0-17.3c.1-2.32-1.86-5.92,2.79-6.52,4.26-.58,8.35-1.49,10.91,3.77,3.62,7.48,7.73,14.7,11.69,22,1.86,3.41,8.52,5.45,12,3.75,2.28-1.11.76-2.3.1-3.52l-9.39-17.45c-.79-1.45-2.26-3,.36-4.07,2-.83,3.22,0,4.26,1.77,4.26,7.91,8.35,15.83,12.64,23.69,1.34,2.47.17,3-2,3-5.77,0-11.54,0-17.32.23-3,.13-3.38-2.13-4.26-3.88-3.85-7.11-7.6-14.29-11.46-21.43-.87-1.57-1.49-4-4-3.13-2.13.77-1.08,3-1.13,4.5-.12,6,0,11.95,0,17.93,0,1.3.54,3.2-.1,3.75-5,4.41-11.19,1.05-16.79,2.13-3.32.6-2.94-2.28-3-4.36v-35.9Z"/><path class="cls-45" d="M469.78,145.25c-4.26,1-10.14,8.52-10.19,13.55,0,7.69-.21,15.38,0,23.07.15,4-1.3,5-5.13,5.2-15.53.71-15.57.83-15.53-14.91q0-29.15.25-58.33V110a2.33,2.33,0,0,1,2.15-2.48h.24c2.32.13,1.45,2.13,1.47,3.45q.19,17.33.25,34.62c0,10.65.24,21.31,0,32-.14,5.18,2.63,5.22,6.4,5.24s5.92-.43,5.77-5.13c-.3-9.55,0-19.18.13-28.7h0c2.92,1.45,3.36-1.51,4.26-2.77q11.16-13.62,21.94-27.55c2.13-2.89,4.56-4.26,8-2.64.3,1.79-3,2.75-.87,4.79h0c-3.52,0-4.54,2.41-5.22,5.18h0c-2.86.88-4.16,3.45-5.46,5.63s-5.47,3.43-3.55,7.3h0c-4.05.28-5.88,2.35-5.16,6.39Z"/><path class="cls-45" d="M847.52,145.81l.23-.24c-8.52,6.39-18.62,5-28.35,5.09-1.35,0-2.58-.57-2.6-2.13,0-2.13,1.64-2.13,3.15-2.23,5.52-.32,11,.66,16.53-.79,7-1.85,10.95-6.39,10.65-13.08-.31-6.39-4.6-10.65-11.56-11.53-3.8-.47-7.61-1.45-11.46-.68-1,.19-2.28.43-2.26,1.77s1.3,1.43,2.34,1.47c3.41.13,6.84,0,10.23.36,4.83.53,8.69,2.6,9.18,8.08s-2.73,8.79-7.76,10.16-10.16.91-15.27,1c-2.32,0-3.05-1.09-2.9-3.09.21-2.87-1.26-6.39,1.09-8.52,1.57-1.41,2.32,1,2.13,2.49-.34,5.33,3.83,4.43,6.62,4.26,4.14-.1,9,.13,11-4.62,1.21-2.77-1.09-4.26-3.47-5.07a35.06,35.06,0,0,0-13.32-1.17c-5.58.49-4.07-3.54-4.26-6.39s-.7-6.22,4.26-5.71c3.18.32,6.39,0,9.61.1C850.18,116.41,857.23,129.79,847.52,145.81Z"/><path class="cls-45" d="M522.44,111.93c-.72-3-1.15-5,3.58-5,6.52,0,11.65,1,14.91,7.35a53.83,53.83,0,0,0,5.5,7.81c1.4,1.94,3.07,4.14,1.21,6.29-2.64,3-3.21-2.47-6.07-1.49a6.73,6.73,0,0,0,4.26,6.52c1.94.74,2.83-2.56,4-4.26,4.26-6.12,8.53-12.23,12.49-18.52,1.85-2.87,3.92-4.26,7.31-3.11.57,3.82-5.48,5.22-3.29,9.53h0c-2.62.14-4.36.85-2.62,3.92h0c-3-1.45-3.23,1.59-4,2.91-2.66,4.52-7.52,7.89-7.59,13.81h0c-3,0-3.68,1-2.59,3.9h0c-3.46.7-6,0-7.78-3.54a45,45,0,0,0-5.37-7.82c-4.64-6.05-8-13.12-13.93-18.19Zm19.92,15.3c-2.79-6.67-3.24-7.22-7.14-9.29C536.86,122.93,537.46,123.89,542.36,127.23ZM530.3,111.59c2.24,4.58,2.24,4.58,5.22,5.54C534.18,113.87,534.18,113.87,530.3,111.59Z"/><path class="cls-45" d="M1036.38,164.17c0-16,0-15.93,16.47-16.17,5.56,0,11.39,0,15.23-5,3.37-4.46,4.77-9.21,2.32-14.92s-6.56-7.6-12-8c-3.62-.28-7.27-.15-10.91-.17-1.58,0-3.13-.15-3.09-2.26s1.45-2.39,3.11-2.33a120.42,120.42,0,0,1,16,.67c8.52,1.38,12.78,8.77,12.38,20.23a15.72,15.72,0,0,1-14.3,15.47,153.51,153.51,0,0,1-16.61.75c-3.54,0-5,.91-4.8,4.66.3,6.61.22,13.23.24,19.86,0,1.38.55,3.45-1.54,3.58s-2.55-1.75-2.53-3.63C1036.4,172.71,1036.38,168.43,1036.38,164.17Z"/><path class="cls-45" d="M469.73,160.63c-2.53,1.37-.23,2.6.34,3.46a139.87,139.87,0,0,1,8.23,11.41c4.09,7.57,10.2,8.53,18.34,6.61l-17.19-23.22a37.33,37.33,0,0,1-2.92-4.26,2.79,2.79,0,0,1,.89-3.85l.13-.07c1.54-1,2.3.36,3,1.34,8.41,11.2,16.81,22.45,26.14,34.92H482.47c-1.47,0-2.26-1-3-2.13-5-6.67-10.14-13.23-14.91-20.09-1.77-2.6-3.2-6,1.32-8.06h0c.34,2.28.66,4.56,3.92,3.9Z"/><path class="cls-45" d="M454.42,132.92V112.21c-3.39.38-2.58,2.51-2.6,4v18.54a8.23,8.23,0,0,1-4.09,8.31V110.21c0-2.13.72-3.35,2.94-3,3,.43,8.09-1.64,8.52,2,.74,7,1.62,14.36-.73,21.31-.36,1.08-1.59,1.87-2.43,2.79Z"/><path class="cls-45" d="M666.28,147.21a32.25,32.25,0,0,1-32,32.47h-.54a32.78,32.78,0,0,1-32.55-32c-.49-17.7,13.93-32.06,32.55-32.38S666.09,128.34,666.28,147.21Zm-32.46-27.86A27.44,27.44,0,0,0,605.65,146c0,.55,0,1.09,0,1.64a28.42,28.42,0,0,0,28.61,28.23h.07a28.74,28.74,0,0,0,27.95-28.44C662.56,131.55,650.14,119.39,633.82,119.35Z"/><path class="cls-45" d="M428.77,147.72a31.54,31.54,0,0,1-31.08,32c-.53,0-1.06,0-1.58,0a32.43,32.43,0,0,1-32-32.49c0-18.21,14.06-31.95,32.77-31.95S428.81,128.38,428.77,147.72Zm-32.39-28.37a27.7,27.7,0,0,0-28,27.37v.58a28.31,28.31,0,0,0,56.62,0C425,131.09,412.89,119.33,396.38,119.35Z"/><path class="cls-45" d="M940.06,148a31.51,31.51,0,0,1-31.32,31.69h-1A32.42,32.42,0,0,1,875.6,147v-.17c0-18.09,14.42-31.85,33-31.64C927.62,115.49,940.15,128.51,940.06,148Zm-32.51-28.65a27.69,27.69,0,0,0-27.86,27.52c0,.4,0,.8,0,1.2a28.31,28.31,0,1,0,56.62-1h0C936.36,131.13,924,119.28,907.55,119.35Z"/><path class="cls-45" d="M633.9,172.2A25.18,25.18,0,0,1,608.72,147v-.19a25.57,25.57,0,0,1,24.88-24.48,25,25,0,0,1,24.95,24.91,24.52,24.52,0,0,1-24.09,24.94Zm.13-4.45a20.17,20.17,0,0,0,20.5-19.84c0-.32,0-.64,0-.95a20.73,20.73,0,0,0-20.58-20.31,20.94,20.94,0,0,0-20.89,20.71,20.36,20.36,0,0,0,20.33,20.4Z"/><path class="cls-45" d="M421.05,147.43c0,14.38-10.18,24.75-24.41,24.77A24.58,24.58,0,0,1,372,147.73v-.37a24.82,24.82,0,0,1,24.68-25h.61a24.38,24.38,0,0,1,23.81,25Zm-3.83,0a20.32,20.32,0,0,0-19.76-20.87h-.71A21,21,0,0,0,376,146.83a20.07,20.07,0,0,0,19.2,20.9c.36,0,.72,0,1.09,0a19.81,19.81,0,0,0,20.93-18.62q0-.81,0-1.62Z"/><path class="cls-45" d="M932.35,147.49a23.82,23.82,0,0,1-22.9,24.71c-.52,0-1.05,0-1.58,0a24.9,24.9,0,1,1,24.48-25.32Zm-3.81-.21a20.27,20.27,0,0,0-19.89-20.63h-.84a20.87,20.87,0,0,0-20.52,21,20.63,20.63,0,0,0,41.25-.42Z"/><path class="cls-45" d="M297.54,120.49c12.21-6.39,24.5-8.14,37-1,7.33,4.26,7.37,5.39,1.45,11.31-3.07,3-5.26,2-8.29,0a18.56,18.56,0,0,0-21.56.58c-6.81,5.21-8.92,12.33-7.28,20.49A19.69,19.69,0,0,0,315,166.48a12.23,12.23,0,0,0,9.57-1.87c-.92-2.13-2.68-1.56-4-1.43-5.78.57-3.62-3.86-4.14-6.39-.55-3,.35-5.07,4-4.56a12.31,12.31,0,0,0,1.92,0c15.91-.34,15.81-.36,15.36,15.53a8.34,8.34,0,0,1-5.12,8c-11.73,5.86-23,4.69-34-2.13-1.47-.92-2.34-4.07-5-1.92v.19c2.28-2.68-.9-3.57-1.86-4.94-9.27-13.27-8.09-26.61-.66-40.09h0a18.32,18.32,0,0,0,6.5-6.5Zm35.94,43.73c0-8.94-1.47-10-10.48-8.71-1.34.19-2.85.3-2.94,1.79-.15,2.3,1.73,1.79,3.2,1.87,2.6.15,5.86-.93,6.39,3.37s-1.53,6.2-5.45,7.2a22.79,22.79,0,0,1-23.89-7,21.86,21.86,0,0,1-4.45-24.33,22.09,22.09,0,0,1,20-14.66A24.16,24.16,0,0,1,330,127c1.36.78,2.66,1.42,3.88-.24s0-2.47-.83-3.26a15.86,15.86,0,0,0-3.35-1.85,27.94,27.94,0,0,0-33.21,7c-8,9.25-9.18,23.93-2.79,33.39a28.94,28.94,0,0,0,33.68,11.59C332.53,171.91,334.7,168.87,333.48,164.22Z"/><path class="cls-45" d="M293.65,171.66c12.18,14.42,32.29,13.51,45.76,2.87a4.59,4.59,0,0,0,1.47-4c0-6.84,2.28-15.19-.83-20.09s-12.25-.92-18.62-1.92c-1.75-.28-5,1.66-4.86-2.13,0-2.92,2.9-1.9,4.58-1.92,6.62-.1,13.27,0,19.9-.1,3.26,0,4.53.83,4.43,4.26-.24,7.9-.11,15.8,0,23.71a6.67,6.67,0,0,1-2.62,6.13c-23.86,17-56.33,7.93-64.15-23A40.27,40.27,0,0,1,296,113a41.29,41.29,0,0,1,45.78,2.13c1.66,1.27,5.71,2.23,3.43,5.41s-4.26-.11-6.2-1.51a34.24,34.24,0,0,0-38.35-2.69c-1.4.85-4.26,1-3,4h0c-4.54.28-6.24,2-6.5,6.5h0c-1-1.47-1.83-.34-2.43.36C278.37,139.4,280.88,162,293.67,172Z"/></g></g></svg>