<svg xmlns="http://www.w3.org/2000/svg" viewBox="0 0 504.73 137.47"><defs><style>.cls-1{fill:#fff;}.cls-2{fill:#8a373a;}.cls-3{fill:#97383a;}.cls-4{fill:#d84844;}.cls-5{fill:#db544d;}.cls-6{fill:#ab3d3d;}.cls-7{fill:#964947;}.cls-8{fill:#cb4542;}.cls-9{fill:#b6403f;}.cls-10{fill:#c44241;}.cls-11{fill:#e24c47;}</style></defs><g id="Layer_2" data-name="Layer 2"><g id="Layer_1-2" data-name="Layer 1"><path class="cls-1" d="M496.34,98.29c-1.78-3.31-.84-6.86-.76-10.29.06-2.23-1.55-5.14.34-6.49,1.48-1.06,4.26-.31,6.47-.38a4.18,4.18,0,0,0,2.34-.31v36.75c-2.51.53-4.35-.43-6.12-2.25-6-6.17-12.1-12.2-18.42-18.54v18.58l.79,0c.86-4.77-.14-9.71.58-14.85,1.79,1.09,1.86,2.51,1.88,3.84.05,3.81,0,7.63,0,11.44,0,2.41-1.64,1.7-2.92,1.82s-2.82.54-2.83-1.53q0-11.74.06-23.48c0-.25.31-.49.47-.73l12,11.79,11.93,11.8c1-.95.67-2,.67-3,0-9-.07-18.07.09-27.11,0-2.45-.95-2.7-3-2.79-2.35-.11-2.61,1-2.56,2.87.08,3.31,0,6.62,0,9.93,0,1.09.24,2.27-1.12,2.81Z"/><path class="cls-1" d="M504.73,41.06c-1,.52-.91,1.68-1.38,2.52a10,10,0,0,1-9.31,5.5,17.29,17.29,0,0,1-2.7-.09c-2.45-.39-3.48.43-3.26,3s0,5,.07,7.52c.06,1.57-.25,2.29-2.1,2.32-6.81.14-6.8.22-6.8-6.57,0-9.53,0-19.06,0-28.59,0-.76-.6-2.17.75-2.16s.71,1.41.71,2.16c.05,10.13.13,20.27,0,30.4,0,2.7,1.11,3.14,3.35,3.2,2.4.07,2.52-1.26,2.46-3.07-.09-2.6,0-5.21,0-7.82-.05-1.65.53-2.39,2.28-2.28a26.66,26.66,0,0,0,4.81-.09c7-.87,8.87-4.78,9.2-10.26.36-5.8-4.05-9.83-10-10.06-2.7-.1-6.16-1.16-7.87.38s-.5,5.09-.55,7.75c-.09,4.92,0,4.93,4.86,4.92a12.06,12.06,0,0,0,3.87-.35,2.65,2.65,0,0,0,2-2.69,2.74,2.74,0,0,0-2-2.67c-2.65-.94-4.25,0-4.52,2.68-.06.65.23,1.49-.91,1.5s-1.6-.6-1.29-1.5c.57-1.62-1.79-4.51,2.09-4.76,6.38-.41,8.45.54,8.63,4.18.19,3.87-1.42,5.65-5.23,5.67-2.4,0-4.82-.15-7.22-.08-1.49,0-2.14-.3-2.1-2,.12-4.41.08-8.83,0-13.24,0-1.5.49-2.23,2.08-2.19,2.81.07,5.62-.05,8.43.07,5.88.27,9.78,3.28,11.77,8.8Z"/><path class="cls-2" d="M8.38,52.06A29.72,29.72,0,0,1,.61,35.6c-.06-.48.06-1-.61-1.17V29C1.29,27,1,24.49,1.76,22.27c1.53-4.44,3.15-8.81,6.06-12.58a5.63,5.63,0,0,1,.63,2.88Q8.41,32.32,8.38,52.06Z"/><path class="cls-3" d="M8.38,52.06q0-19.74.07-39.49a5.63,5.63,0,0,0-.63-2.88C9.61,6,12.48,3.16,16.17,0,15.6,8,17.91,14.68,21,21.17c-1.59.44-1,1.76-1,2.75,0,6.39-.06,12.79,0,19.19a60.18,60.18,0,0,0,.21,7.47,35.44,35.44,0,0,1-.32,13.65A81.73,81.73,0,0,1,8.38,52.06Z"/><path class="cls-1" d="M352.84,110a8.88,8.88,0,0,0,2.45-6.7c0-6.62-.06-13.25,0-19.87,0-.76-.62-2.06.82-2.16,1.78-.13,1.05,1.36,1.08,2.18.24,6.91-.08,13.82.28,20.74.37,7.29-5.65,13.2-13,13.34-2.59.05-5.18.31-7.76-.4a12.58,12.58,0,0,1-9.75-12.47c-.05-6.93,0-13.85-.11-20.78,0-2,.27-2.76,2.54-2.74,6.58,0,6.58-.08,6.58,6.52,0,4.92-.06,9.84,0,14.76.07,4.35,2.26,6.55,6.24,6.28a6.09,6.09,0,0,0,6-6.71c-.35-6.2,0-12.44-.15-18.66-.08-2.79,1.74-2.06,3.17-2.14S354.07,81,354,83.4c-.19,6.72-.09,13.44-.05,20.17C354,105.77,353,107.75,352.84,110Zm-2-26.76c-.81.92-.43,2-.43,2.91,0,5.71,0,11.43,0,17.14,0,3.94-2.15,6.38-6,7.14-6.8,1.37-10.44-1.55-10.5-8.45,0-4,0-8,0-12,0-1.71,0-3.41,0-5.12s-1-1.76-2.17-1.59c-1,.14-2.65-.73-2.63,1.37,0,7.32,0,14.65.26,22a6.18,6.18,0,0,0,3.73,5.68c-1.23-2.71-2.77-5.18-2.69-8.33.15-5.71,0-11.43.08-17.15,0-.81-.74-2.3.91-2.34s1,1.45,1,2.29c.06,5,.19,10,0,15-.38,9.25,6.82,11.35,12.9,9.9,3-.71,5.5-2.18,5.89-5.27a115,115,0,0,0,.17-23A3.5,3.5,0,0,0,350.83,83.2ZM352.71,110c-6,6-12.7,4.84-19.93,1.9C337.33,117.6,350.43,116.2,352.71,110Z"/><path class="cls-1" d="M451.21,57.26c2.69,2.47,6.23,2.92,9.62,2.82,8.47-.26,12.94-5.14,13-13.67,0-6.43,0-12.86,0-19.28,0-.83-.66-2.34.94-2.32,1.22,0,.93,1.34.93,2.19,0,7.43.17,14.86,0,22.28S468.84,62.54,461.41,62c-1.38-.11-2.79,0-4.17-.11-7.63-.68-12.4-5.5-12.59-13.09-.19-7.33,0-14.66-.07-22,0-1.51.37-2.06,2-2.1,7.44-.2,7.44-.26,7.44,7.24,0,5.12,0,10.24,0,15.36,0,3.42,1.54,5.07,4.76,5.36,4.47.41,7.06-1,7.46-4.56.77-6.69.17-13.43.31-20.15a3.43,3.43,0,0,1,5.11-3.16c.88.42.64,1.16.64,1.8,0,6.92.2,13.86,0,20.78-.31,9.42-9.87,14.53-18.66,10.15-.67-.33-1.33-.7-2-1Zm-.85-1.78c-.9-2.23-1.79-4-2-5.94-.59-6.31-.16-12.62-.27-18.93,0-1-.54-2.58,1.09-2.63s1.18,1.54,1.19,2.53c.05,5.72,0,11.43.08,17.15.06,4.32,2.24,7.18,6.09,8.27,4.82,1.37,10.06-.17,12.14-3.61a6.41,6.41,0,0,0,1-2.18c1.24-7.37.42-14.8.61-22.2,0-.53-.13-1.09-.77-1s-.77.58-.77,1.13c0,.7,0,1.4,0,2.1-.05,6,0,12-.19,18.05a6.24,6.24,0,0,1-5.15,6.21c-3.59.85-7.22,1.14-10-2a6.31,6.31,0,0,1-1.4-4.46c.12-6.31.06-12.63.29-18.94.08-2.37-1.18-2.25-2.78-2.26s-3.17-.12-3,2.42c.2,3.19,0,6.41,0,9.62,0,4.3-.36,8.65.87,12.85C447.81,53,448,54.73,450.36,55.48Zm-.68.23a1.74,1.74,0,0,0,1.33,1.2,1,1,0,0,0,.31-.65,1.34,1.34,0,0,0-1.23-1.08C450,55.17,449.79,55.56,449.68,55.71Z"/><path class="cls-1" d="M156.14,87.32c1.54,2.59-.41,3.74-1.63,5.05s-2.33-.12-3.37-.7a9,9,0,0,0-11.25,1.75,8.74,8.74,0,0,0-.35,11c2.85,3.7,7.22,4.79,11.19,2.76.89-.45,1.72-1,2.6-1.51a1.44,1.44,0,0,1,2.11.37c1.2,1.73,2.42,3.45,3.54,5.23.55.86.32,1.6-.53,2.33-4.88,4.19-13.79,5.25-19.88,2.29-6.95-3.38-10.56-10.17-10-18.88.38-6.36,5.36-12.83,11.8-15a18.54,18.54,0,0,1,17.38,2.57c.77.56,2.32,1,1.75,2.4S157.57,87.18,156.14,87.32Zm-18.6,24.15c-.18,1.37.61,1.55,1.15,1.84,5,2.69,10.12,3,15.18.23,1-.52,3.18-.56,1.95-2.78-.92-1.68-1.77-3.05-4.11-1.6a9.81,9.81,0,0,1-8.41.74,11,11,0,0,1-7.05-14.44c2.17-6.08,8.53-8.83,14.71-6.4.86.34,1.71,1.43,2.91.47a11,11,0,0,0-13.06-1.46,13.07,13.07,0,0,0-6.75,13c1.3,8.56,10.93,13.65,17.86,9.66.7-.41,1.49-1,2.08,0s-.2,1.62-1.05,2a13.39,13.39,0,0,1-4.29,1.22A17.13,17.13,0,0,1,137.54,111.47ZM137.37,87c6.5-3.63,12.83-3.51,19.07.66C153,82.18,142,81.42,137.37,87Zm-2.85,21.43a17.53,17.53,0,0,1-1.08-17C129.19,95.39,129.68,105.44,134.52,108.41Zm-.6.16c.9,1.82,1.6,2.82,3.51,3.25A5.87,5.87,0,0,0,133.92,108.57ZM134.7,90c-.17-.14-.39-.43-.55-.41a1.48,1.48,0,0,0-1.09,1.2c0,.1.35.48.51.46C134.22,91.18,134.48,90.64,134.7,90Z"/><path class="cls-1" d="M369.24,86.53c2-.63,3.52-1.2,5.12-1.63,4.6-1.23,8.71,0,12.51,2.62,1.15.79,1.91,1.83.45,2.74-1.26.79-1.13,4.27-4.08,2.09-3.49-2.58-7.32-2.65-10.38-.55a9,9,0,0,0-3.76,9.48,9,9,0,0,0,14.35,5c1.66-1.12,2.69-1,3.9.82,4.1,6.06,4.08,6.34-2.69,9.22a18.38,18.38,0,0,1-25-13.48,18.56,18.56,0,0,1,8.64-19.3A18.88,18.88,0,0,1,389.18,85c.68.54,2.2,1,1.19,2.22-.83,1-1.8.15-2.62-.45-4.93-3.59-10.2-4.88-16-2.38C370.82,84.73,369.76,84.88,369.24,86.53Zm-2.36,1c-6.47,6-7.12,17.3-1,21.52A19.61,19.61,0,0,1,363,98.46c.13-4.1,2-7.2,4.49-10.16.79-.56,2-.84,1.7-2.27A3.37,3.37,0,0,0,366.88,87.53ZM370,112.24c-.5-.41-1.14-1.3-1.65-.59s.5,1,1.07,1.34c5.13,3.25,10.38,3.14,15.7.51,2.73-1.35,2.84-2.48.62-4.47-1.34-1.21-2.22,0-3.22.42a11.23,11.23,0,0,1-13.35-3c-3-3.41-3-10.58-.32-13.93a11.28,11.28,0,0,1,13.26-3.44c.81.3,1.54,1.37,2.66.66-2-2.9-6.29-3.87-10.76-2.5a12.7,12.7,0,0,0-8.17,16.32,12.48,12.48,0,0,0,16.84,7.4c.83-.36,1.9-1.48,2.53-.07s-.89,1.83-1.84,2.19A16,16,0,0,1,370,112.24Z"/><path class="cls-1" d="M255.85,87.82c1.1,2.31-1,3.52-2,4.84-.79,1-1.78-.67-2.76-1-1.61-.51-3.17-1.24-4.81-1.63-1.4-.32-3.18-.86-3.84,1.13s1.09,2.57,2.41,3.16c2.28,1,4.73,1.7,6.91,2.88a10.08,10.08,0,0,1,5.53,10.47,10.74,10.74,0,0,1-8,9.46,18,18,0,0,1-10.6-.63c-7.15-2.43-7.65-4.34-2.74-10.09.83-1,1.42-.74,2.26-.22a15.38,15.38,0,0,0,6.42,2.38c1.46.17,3.06.16,3.49-1.52s-1.11-2.19-2.29-2.7c-2.57-1.09-5.32-1.73-7.68-3.33a10.3,10.3,0,0,1-4.7-11.17c.82-4.43,3.44-7.47,7.88-8.48,5.77-1.31,11.05.4,15.89,3.47,1.52,1,1.06,2-.65,2.35a22.47,22.47,0,0,0-7.28-3.41c-3.46-1-6.87-1.29-10,1.06a1.29,1.29,0,0,0-1.05.8,8.3,8.3,0,0,0,.41,13,18.68,18.68,0,0,0,5.62,2.78,12.52,12.52,0,0,1,4.37,1.93,4,4,0,0,1,1.58,4.51c-.59,1.82-1.87,2.56-3.88,2.63a14.42,14.42,0,0,1-7.56-1.37c-2.35-1.25-2.25,1.17-3.08,2.08-1.22,1.36.28,1.66,1.06,2a23.51,23.51,0,0,0,8,2.31c4.62.48,8.6-2.43,10.3-7.44,1-3-.9-7-4.63-9.12A25.24,25.24,0,0,0,246,97.14a19.28,19.28,0,0,1-4.11-1.8,3.88,3.88,0,0,1-1.73-4.69A3.58,3.58,0,0,1,244,87.91a16.16,16.16,0,0,1,6.45,1.14c.84.34,1.65,1.3,3,.39-2.12-1.84-4.61-2.35-7.12-2.81-3.55-.64-6.69,1-7.5,3.92-.75,2.72.79,5.27,4.18,6.73,2.29,1,4.67,1.78,6.93,2.83,3.16,1.46,4.17,4.17,3.8,7.45a6.81,6.81,0,0,1-5,6.13,14.22,14.22,0,0,1-10.25-1c-.66-.32-1.64-.68-1.08-1.74s1.33-.52,2.1-.28c1.63.49,3.25,1,4.91,1.36a6.17,6.17,0,0,0,7-3.87c.88-2.74-.25-5.07-3.34-6.51-1.71-.8-3.55-1.34-5.3-2.06-6.54-2.67-8-7.62-4-13.34l.93-.7a11.4,11.4,0,0,1,5.46-1.17C249.17,84.35,252.5,86.06,255.85,87.82Z"/><path class="cls-1" d="M138.67,29.64c.92,1.12,1.59-.1,2.27-.33,5.48-1.87,10.64-1.41,15.38,2,.72.52,2.49,1.17,1,2.37-1.32,1.06-1.59,4.17-4.45,2.68A32.51,32.51,0,0,0,150,34.82a9,9,0,0,0-10.85,12.91,9.18,9.18,0,0,0,9,4.74,2.5,2.5,0,0,0,2-1,1,1,0,0,0-1.33-.58c-2.79.47-2.6-1.27-2.72-3.22-.17-2.62,1.48-2,2.9-2,7.4.09,7.34.09,7.35,7.58a3.38,3.38,0,0,1-1.9,3.32c-5.72,3.41-13.53,2.24-18.46-2.77-.55-.57-.69-2-2.09-1.35l0,.05c.72-.25.51-.7.23-1.14-2.08-3.16-2.18-6.66-2.08-10.31.09-3,2.15-5.15,2.75-7.87l2.71-2.05c.47-.48,1.88-.23,1.22-1.58Zm15.82,21.88c0-4.33-.35-4.62-4.61-4.21-.68.07-1.57-.11-1.56.92s.89.76,1.55.8c2.37.13,3.74,2.15,2.46,3.77-.88,1.12-2.4,1.35-3.8,1.52a11.09,11.09,0,0,1-9.43-18.7,11.32,11.32,0,0,1,12.76-2.24c.94.42,2.17,2,2.93.12.58-1.42-1.2-1.6-2-2a13.23,13.23,0,0,0-15.65,3.09,13.72,13.72,0,0,0-1.39,15.71A13.62,13.62,0,0,0,150.92,56C153.38,55.29,155.25,54.19,154.49,51.52Z"/><path class="cls-4" d="M44.71,56a44.37,44.37,0,0,1,6.52,11c-1.29.17-1.18,1.15-1.18,2v36.09c0,1-.11,2.09,1.33,2.26a19.92,19.92,0,0,1-6.72,7.34c2-6.9.92-13.5-1.28-20,1.67-.27,1.23-1.59,1.23-2.6,0-10.42,0-20.83,0-31.24C44.67,59.22,43.43,57.56,44.71,56Z"/><path class="cls-1" d="M261.72,29c.95.09,1.15-.77,1.39-1.3,1.39-3,3.81-3.84,6.88-3.36.64.11,1.5-.38,1.89.43s-.36,1.3-.74,1.84c-3.14,4.52-6.18,9.11-9.53,13.47a12.44,12.44,0,0,0-2.8,8.85c.24,3.59,0,7.2.08,10.81,0,1.54-.42,2-2,2.1-7.38.3-7.86.31-7.25-6.93.65-7.76-1.3-14.23-6.4-20a82.51,82.51,0,0,1-6.05-8.57c-.31-.45-1.33-1-.43-1.72.65-.52,1.31.13,2,.26,1.11.22.87,2.35,2.52,1.75l0,0c-1.13,1.2.3,1.76.73,2.41q4,6,8.29,11.8A8.87,8.87,0,0,1,251.82,47c-.22,3.7-.08,7.41-.21,11.11-.08,2.27,1.31,2.17,2.91,2.22,1.78,0,2.31-.5,2.43-2.38.36-5.89-1.18-11.91,1.53-18.32-2.2,1.78-3.34,3.21-3.32,5.42.06,4,0,8,0,12,0,.62.24,1.53-.85,1.56-.72,0-1.08-.46-1-1.17.3-5.66-.71-11.37.63-17l0,0a1.52,1.52,0,0,0,1.22-1.83v0a23.23,23.23,0,0,0,5.44-7.85l0,0c.87-.31,1.41-.83,1.23-1.84Zm-2.32,9.25a11.46,11.46,0,0,0,4.07-5.86A11.12,11.12,0,0,0,259.4,38.28Zm4.21-6A15.46,15.46,0,0,0,268,26.4C265.62,27.94,264.66,29.19,263.61,32.33Zm-4.69,5.94a6.8,6.8,0,0,0-1,1.23c-.18.42.12.81.57.54a3.14,3.14,0,0,0,.91-1.09C259.49,38.88,259.17,38.59,258.92,38.27Z"/><path class="cls-5" d="M101.29,24.59c2.28-.7,3,.17,3,2.5q-.09,43.52,0,87c0,2.36-.74,3.15-3,2.44Z"/><path class="cls-6" d="M19.8,64.23a35.44,35.44,0,0,0,.32-13.65,60.18,60.18,0,0,1-.21-7.47c-.05-6.4,0-12.8,0-19.19,0-1-.55-2.31,1-2.75L27.1,31.5c-.74,1.18-.56,2.5-.56,3.79q0,15.43,0,30.88a7.57,7.57,0,0,1-.71,4.06Z"/><path class="cls-7" d="M97.09,116.65c-2.12.62-2.88-.19-2.87-2.37q.06-43.73,0-87.44c0-2.24.81-2.92,2.88-2.36A22.43,22.43,0,0,0,96.47,31c0,3.7.68,7.33.67,11.05C97,66.92,97.09,91.79,97.09,116.65Z"/><path class="cls-1" d="M343.13,30.86c5.73-3,11.5-3.82,17.39-.45,3.44,2,3.46,2.53.68,5.31-1.44,1.43-2.47.94-3.89,0a8.72,8.72,0,0,0-10.12.27c-3.2,2.45-4.19,5.79-3.42,9.62a9.25,9.25,0,0,0,7.57,6.84,5.74,5.74,0,0,0,4.49-.88c-.43-1-1.26-.73-1.86-.67-2.71.27-1.7-1.81-1.94-3-.26-1.41.16-2.38,1.88-2.14a5.41,5.41,0,0,0,.9,0c7.47-.16,7.42-.17,7.21,7.29a3.91,3.91,0,0,1-2.4,3.76c-5.51,2.75-10.79,2.2-15.95-1-.69-.43-1.1-1.91-2.37-.9V55c1.07-1.26-.42-1.68-.87-2.32-4.35-6.23-3.8-12.49-.31-18.82l0,0a8.57,8.57,0,0,0,3.05-3.05ZM360,51.39c0-4.2-.69-4.69-4.92-4.09-.63.09-1.34.14-1.38.84-.07,1.08.81.84,1.5.88,1.22.07,2.75-.44,3,1.58s-.72,2.91-2.56,3.38a10.69,10.69,0,0,1-11.21-3.27,10.25,10.25,0,0,1-2.09-11.42,10.37,10.37,0,0,1,9.38-6.88,11.36,11.36,0,0,1,6.64,1.51c.64.37,1.25.67,1.82-.11s0-1.16-.39-1.53a7.26,7.26,0,0,0-1.57-.87,13.12,13.12,0,0,0-15.59,3.27c-3.74,4.34-4.31,11.23-1.31,15.67a13.58,13.58,0,0,0,15.81,5.44C359.55,55,360.57,53.57,360,51.39Z"/><path class="cls-8" d="M44.71,56c-1.28,1.61,0,3.27-.05,4.9-.07,10.41,0,20.82,0,31.24,0,1,.44,2.33-1.23,2.6l-6.18-11a7.5,7.5,0,0,0,.8-4.06c0-9.43,0-18.85,0-28.27a6.9,6.9,0,0,1,.69-3.79A56.29,56.29,0,0,1,44.71,56Z"/><path class="cls-1" d="M137.47,31.16l-2.71,2.05c-1.77.09-2,1.71-2.54,2.8-2.88,5.75-2.09,13.08,1.64,16.52l0-.05c.12,1.81,1.59,2.64,2.75,3.61a16.08,16.08,0,0,0,19.75.87,3.21,3.21,0,0,0,1.58-2.43c.1-3.1.05-6.21.06-9.31C158,43.8,156.91,44,156,44q-4.06,0-8.13,0c-.87,0-1.77-.11-1.66-1.18s1.07-.61,1.69-.63c3.21-.05,6.43,0,9.64-.14,1.9-.09,2.41.66,2.34,2.46-.12,3.71-.09,7.42-.06,11.13a2.56,2.56,0,0,1-1.16,2.53C155.9,60,153,61.6,149.63,62c-9.89,1.06-17-4.2-20.17-12.19a19.09,19.09,0,0,1,6.71-21.91c6.62-4.63,16.67-4.22,22.75.91.78.67,1.77,1.31.78,2.41s-1.58-.05-2.23-.56c-5.26-4.09-10.95-5.08-17.14-2.38-.66.28-1.61.34-1.66,1.4l0-.06C137.68,29.65,136.68,29.71,137.47,31.16Z"/><path class="cls-1" d="M341.3,54.88c5.72,6.77,15.16,6.34,21.48,1.35a2.16,2.16,0,0,0,.69-1.9c0-3.21,1.07-7.13-.39-9.43s-5.75-.43-8.74-.9c-.82-.13-2.33.78-2.28-1,0-1.37,1.36-.89,2.15-.9,3.11-.05,6.23,0,9.34-.05,1.53,0,2.13.39,2.08,2-.11,3.71-.05,7.42,0,11.13a3.13,3.13,0,0,1-1.23,2.88c-11.2,8-26.44,3.72-30.11-10.79a18.91,18.91,0,0,1,8.1-19.94,19.39,19.39,0,0,1,21.49,1c.78.6,2.68,1.05,1.61,2.54s-2-.05-2.91-.71a16.07,16.07,0,0,0-18-1.26c-.66.4-2,.46-1.4,1.9V30.8c-2.13.13-2.93.93-3.05,3.05l0,0c-.49-.69-.86-.16-1.14.17-4.86,5.72-3.68,16.33,2.32,21Z"/><path class="cls-9" d="M25.83,70.23a7.57,7.57,0,0,0,.71-4.06q0-15.45,0-30.88c0-1.29-.18-2.61.56-3.79l6.27,8.86c-1.25.87-.78,2.18-.79,3.31q0,14.55,0,29.11a7.22,7.22,0,0,1-.73,4.06Z"/><path class="cls-6" d="M97.09,116.65c0-24.86,0-49.73,0-74.59,0-3.72-.66-7.35-.67-11a22.43,22.43,0,0,1,.62-6.53,4,4,0,0,1,2.38.2V116.5A3.67,3.67,0,0,1,97.09,116.65Z"/><path class="cls-1" d="M431.12,99.42c0,5.32-.06,10.63,0,16,0,1.64-.36,2.22-2.14,2.26-7.32.17-7.32.23-7.32-7,0-8.93.14-17.86-.08-26.78-.08-2.87,1.4-2.67,3.27-2.77s2.78.33,2.74,2.6c-.15,9.22-.06,18.45-.06,27.68,0,.6,0,1.2-.07,1.8a.92.92,0,0,1-1,.85c-.66,0-.79-.48-.81-1,0-.7,0-1.41,0-2.11,0-8.42,0-16.85,0-25.27,0-.86.59-2.37-1-2.35s-1,1.49-1,2.37c0,9.13,0,18.26-.05,27.38,0,2.14.76,2.72,2.82,2.72s2.85-.55,2.83-2.7c-.09-8.43,0-16.86,0-25.28a25.56,25.56,0,0,1,0-3.61c.15-1-.8-2.88.83-3,1.91-.1,1,1.85,1,2.84C431.18,89.19,431.12,94.31,431.12,99.42Z"/><path class="cls-1" d="M312.38,43.51c0,9.58-8.53,18.31-17.67,18.64A19,19,0,0,1,274.57,43c0-10.39,8.5-18.56,19.18-18.64C303.92,24.28,312.35,33,312.38,43.51Zm-35.69-.42a16.91,16.91,0,0,0,16.84,17.18c9.07.18,16.86-7.46,17-16.72a16.94,16.94,0,1,0-33.87-.46Z"/><path class="cls-1" d="M181.9,62a18.69,18.69,0,0,1-18.64-19c.09-10.22,8.48-18.4,19-18.55,10.1-.15,18.81,8.62,18.95,19.08C201.36,53.43,192.51,61.91,181.9,62Zm17.3-18.53c.24-9.31-7.08-16.8-16.81-17.19-8.93-.35-16.86,7.38-17.09,16.67a17.09,17.09,0,0,0,17,17.37C191.39,60.4,199,52.85,199.2,43.42Z"/><path class="cls-1" d="M403.46,43.17a18.57,18.57,0,0,1,18.79-18.81c10.54,0,18.9,8.67,18.87,19.61,0,8.88-8.76,18-17.28,18.12C411.67,62.2,403.45,54.57,403.46,43.17Zm35.66,0a16.8,16.8,0,0,0-17-17c-9.18-.11-16.85,7.71-16.86,17.19a17.12,17.12,0,0,0,17.23,16.85A16.86,16.86,0,0,0,439.12,43.21Z"/><path class="cls-1" d="M393.82,42.52c1.17,1.09,1.52-.17,1.95-.77a9.36,9.36,0,0,0-4-13.86c-4-1.65-8.27-1.24-12.46-1.25-1.9,0-1.19,1.55-1.19,2.47,0,8.92,0,17.85,0,26.77A21,21,0,0,1,378,58a1,1,0,0,1-1,.91,1,1,0,0,1-1.21-1c0-.5,0-1,0-1.5,0-9.73.07-19.46-.06-29.18,0-2.3.71-3,2.92-2.87,4.19.15,8.42-.12,12.53,1,5.13,1.39,8.16,5,8.28,9.74.16,7-1.94,10.73-7.51,12.42-2.11.63-1.68,1.37-1,2.65,1.24,2.28,2.45,4.58,3.68,6.87.31.6,1,1.26.11,1.81a1.34,1.34,0,0,1-1.87-.44c-2.07-3.65-4.13-7.32-6.06-11-.72-1.38.81-1.13,1.35-1.22A11.72,11.72,0,0,0,393.65,44c.51-.41,1.34-.85.28-1.57Z"/><path class="cls-1" d="M214.7,47.7c-.25-2.1,1.1-3.66,1.81-5.44v0a4.13,4.13,0,0,0,2.42-3v0c1.84-1.72,4-3.26,4.23-6.07l0,0c1.68.06,2.06-1.19,2.45-2.43l0,0c1.54-.83,2.26-2.29,3.21-3.79-3.78-.85-6.67-.38-8.67,3.1-1.13,2-2.86,3.62-4.18,5.51-2,2.83-4.74,5.09-6.06,8.4l0,0c-1.82.61-1.76,2.17-1.78,3.65,0,3.1,0,6.21,0,9.32,0,.83,0,1.8-1,1.84-1.29,0-.86-1.13-.87-1.81,0-3.81,0-7.62,0-11.43a4.07,4.07,0,0,1,1-2.7c4.33-5.51,8.67-11,13-16.58a4.39,4.39,0,0,1,4-2c3,.16,6,0,9,0,.43,1.4-.63,2-1.18,2.67-4.35,5.63-8.7,11.26-13.19,16.78-1.18,1.47-1.19,2.48-.07,3.91,2.22,2.84,4.32,5.77,6.4,8.72.45.64,1.79,1.33.84,2.18s-2,0-2.74-.9c-1.59-2.07-3.08-4.2-4.67-6.26-.57-.74-.87-1.8-2-2h0c-.16-1.07-.38-2.07-1.84-1.83Z"/><path class="cls-1" d="M196.64,99.48a18.26,18.26,0,0,1-18.4,18.19c-10,0-17.93-8-18.26-16.5-.45-12.1,7.29-20.31,18.49-20.37C188.7,80.75,196.67,88.94,196.64,99.48Zm-1.75-.33a16.24,16.24,0,0,0-16.52-16.53,16.57,16.57,0,1,0,.09,33.14C187.7,115.83,194.84,108.61,194.89,99.15Z"/><path class="cls-10" d="M31.84,76.84a7.22,7.22,0,0,0,.73-4.06q0-14.55,0-29.11c0-1.13-.46-2.44.79-3.31a48.72,48.72,0,0,1,5.3,7.16A6.9,6.9,0,0,0,38,51.31c0,9.42,0,18.84,0,28.27a7.5,7.5,0,0,1-.8,4.06Z"/><path class="cls-11" d="M51.38,107.37c-1.44-.17-1.33-1.25-1.33-2.26V69c0-.9-.11-1.88,1.18-2,6.32,12.37,8.24,25,1.77,37.92A5.62,5.62,0,0,1,51.38,107.37Z"/><path class="cls-1" d="M404.93,80.8c3.71,0,7.43,0,11.14,0,1.33,0,1.89.24,2,1.77.36,6.88.42,6.88-6.48,6.88-6,0-6,0-6,6,0,5.42,0,10.83,0,16.25,0,.82.69,2.33-1,2.3-1.31,0-.89-1.35-.9-2.17,0-7.32,0-14.64-.06-22,0-1.84.58-2.51,2.44-2.4,2.7.16,5.42,0,8.12.17,2.37.18,1.87-1.36,2-2.7.16-1.6-.23-2.32-2.08-2.28-5.92.12-11.85,0-17.77.07-.67,0-1.89-.47-1.85.77s1.24.71,1.93.72c5.32,0,10.64,0,16,0,.94,0,2.36-.29,2.26,1.19-.09,1.22-1.42.81-2.25.81-6,0-12.05-.11-18.07.08-2.65.08-2.13-1.43-2.28-3-.19-2,.41-2.65,2.43-2.56C397.9,80.91,401.42,80.8,404.93,80.8Z"/><path class="cls-1" d="M372.52,42.94c0-5.32,0-10.64,0-16,0-.85-.65-2.39.82-2.39,1.08,0,.63,1.48.63,2.28q.06,15.21,0,30.41c0,1.75-.22,3.15,2.34,3.06,2.07-.06,3.36-.17,3.09-2.83a53.68,53.68,0,0,1,0-8.12c.05-1.09-.87-2.78,1.31-3.06,2-.27,3.92-.7,5.12,1.77,1.7,3.51,3.63,6.9,5.49,10.33.87,1.6,4,2.56,5.64,1.76,1.07-.52.36-1.08.05-1.65l-4.41-8.19c-.37-.68-1.06-1.39.17-1.91.93-.39,1.51,0,2,.83,2,3.71,3.92,7.43,5.93,11.12.63,1.16.08,1.41-.94,1.42-2.71,0-5.42,0-8.13.11-1.41.06-1.59-1-2-1.82-1.81-3.34-3.57-6.71-5.38-10.06-.41-.74-.7-1.88-1.89-1.47-1,.36-.51,1.39-.53,2.11-.06,2.8,0,5.61,0,8.42,0,.61.25,1.5-.05,1.76-2.36,2.07-5.25.49-7.88,1-1.56.28-1.38-1.07-1.39-2.05,0-5.62,0-11.24,0-16.85Z"/><path class="cls-1" d="M312.91,103.81c.67.19,1.34.33,1.71,1,2.13,4.06,4.28,8.11,6.74,12.78-3.6,0-6.73,0-9.85,0-1.21,0-1.55-1.14-2-2-1.72-3.28-3.4-6.57-5.13-9.84-.35-.66-.59-1.68-1.65-1.41s-.61,1.33-.62,2c-.06,3.1.39,6.29-.13,9.31-.75,4.27-4.4,1.1-6.59,2-1.41.55-2.55.07-2.52-2,.14-10.83.1-21.66.17-32.5,0-.67-.53-1.82.78-1.87,1.54-.07,1,1.23,1,2,0,9.93.07,19.86,0,29.79,0,2,.42,2.78,2.62,2.79s2.44-1,2.37-2.73c-.1-2.6-.11-5.22,0-7.82,0-1.12-.84-3,1.24-3.09,1.76-.09,3.81-.65,4.91,1.75s2.9,4.83,3.89,7.43c1.4,3.65,3.59,5.35,7.82,4.06L313.14,107c-.55-1-1.16-2.06-.19-3.19Z"/><path class="cls-3" d="M14.92,104.4A23.38,23.38,0,0,1,9,97.8a6.39,6.39,0,0,0,.67-3.47q0-8.37,0-16.75A6.39,6.39,0,0,0,9,74.11c1-3.06,3.42-4.92,6-7.6a32.58,32.58,0,0,0,1.33,10.07c-1,.86-.63,2-.63,3.1,0,7.22,0,14.45,0,21.67C15.66,102.4,16.05,103.6,14.92,104.4Z"/><path class="cls-6" d="M14.92,104.4c1.13-.8.74-2,.75-3.05,0-7.22,0-14.45,0-21.67,0-1.05-.4-2.24.63-3.1L23,88.36c0,6.66,0,13.33-.11,20,0,1.13.47,2.43-.79,3.29A58.46,58.46,0,0,1,14.92,104.4Z"/><path class="cls-1" d="M216.51,42.26c-2,.48-4.76,4-4.78,6.36,0,3.61-.1,7.22,0,10.83.07,1.86-.61,2.35-2.41,2.44-7.29.33-7.31.39-7.29-7q0-13.68.12-27.38c0-.6,0-1.2,0-1.8a1.09,1.09,0,0,1,1.12-1.17c1.09.06.68,1,.69,1.62q.09,8.13.12,16.25c0,5,.11,10,0,15-.07,2.43,1.23,2.45,3,2.46s2.78-.2,2.71-2.41c-.14-4.48,0-9,.06-13.47l0,0c1.37.68,1.58-.71,2-1.3q5.24-6.39,10.3-12.93c1-1.36,2.14-2,3.76-1.24.14.84-1.43,1.29-.41,2.25l0,0c-1.65,0-2.13,1.13-2.45,2.43l0,0c-1.34.41-1.95,1.62-2.56,2.64s-2.57,1.61-1.67,3.43v0c-1.9.13-2.76,1.1-2.42,3Z"/><path class="cls-1" d="M313,103.76c-1.74-.31-3.26-.42-1.9,2.09,1.18,2.18,2.43,4.35,3.54,6.57.24.49,1.19,1.12.24,1.75a1.37,1.37,0,0,1-1.89-.33c-2.06-3.52-4.1-7.06-5.93-10.7-.56-1.11.79-1,1.51-1.21,1.66-.48,3.82-.12,4.47-2.46l0,0c1.71.59,2.14-.54,2.45-1.83l0,0c3.18-2.92,2.57-10.65-2.74-13.16-4.26-2-8.81-1.53-13.29-1.42-1.87.05-1.27,1.76-1.27,2.82,0,8.42,0,16.84,0,25.26,0,.7,0,1.4,0,2.1,0,.43-.19.77-.67.81-.65.06-.87-.34-.87-.91,0-1.11,0-2.21,0-3.31,0-8.42.08-16.84,0-25.25,0-2.48.18-3.86,3.27-3.53,3.44.38,7-.34,10.42.28,4.78.84,8.06,3.47,9,8.38,1.14,5.7-.69,9.91-5.36,12.87-.4.25-1.28.25-.94,1.15Z"/><path class="cls-1" d="M263.16,83.47c.65,1.25,1.79.79,2.71.79,5.22,0,10.45,0,15.67,0,.77,0,2.08-.54,2.09.91s-1.21,1-2.05,1c-6.13,0-12.26-.06-18.39,0-1.89,0-2.23-.7-2-2.3.22-1.39-.87-3.3,2-3.25,7.43.14,14.87.08,22.31,0,1.58,0,2,.49,2.07,2.06.22,6.55.27,6.55-6.17,6.55s-6.48,0-6.48,6.47c0,5.42,0,10.84,0,16.26,0,.7.43,1.81-.81,1.89-1.59.11-1-1.21-1-1.94,0-7.53,0-15.06-.06-22.59,0-1.61.45-2.07,2-2,3,.11,6,0,9,0,1.41,0,1.78-.71,1.57-1.88s.73-3-1.48-3c-6.83,0-13.65.11-20.48.21C263.57,82.9,263.37,83.27,263.16,83.47Z"/><path class="cls-1" d="M269.36,103.7c0-3.81-.13-7.63.05-11.43.11-2.33-.78-3.06-3-2.85-1.29.13-2.61,0-3.91,0-.56,0-1.3.27-1.29-.69a1,1,0,0,1,.87-1.07,78.74,78.74,0,0,1,8.41-.09c1.37.09.85,1.61.86,2.51,0,7.53.1,15.05,0,22.57,0,2.14.65,2.62,2.71,2.7,2.33.08,2.29-1.08,2.28-2.73q-.08-9.48,0-19c0-1-.45-2.57,1.21-2.54s.92,1.53.93,2.39c.05,7.22,0,14.44.06,21.66,0,2-.59,2.58-2.58,2.58-6.62,0-6.62.06-6.62-6.59Z"/><path class="cls-1" d="M400,103.1c0-3.71-.1-7.42,0-11.12.08-2-.61-2.73-2.57-2.57-1.39.12-2.81,0-4.21,0-.49,0-1.09.13-1.2-.53a1,1,0,0,1,1-1.23c2.61-.1,5.22-.28,7.81-.14,1.82.09,1.26,1.77,1.27,2.83.05,7.42.09,14.84,0,22.25,0,2,.36,2.77,2.58,2.78,2.4,0,2.45-1.08,2.44-2.91-.05-6.31,0-12.63.11-18.94,0-.87-.53-2.39,1-2.35s.77,1.56.77,2.37c.07,7.21,0,14.43.09,21.64,0,1.87-.24,2.62-2.37,2.59-6.74-.12-6.74,0-6.74-6.89Z"/><path class="cls-10" d="M99.47,116.5V24.68a2,2,0,0,1,1.82-.09v92A2.11,2.11,0,0,1,99.47,116.5Z"/><path class="cls-1" d="M313,99.47a28.13,28.13,0,0,1-11.2,1.15c-.71-.05-1.87.12-1.9-.94s1.05-.94,1.83-1c1.59-.07,3.19-.17,4.78-.16,3.76,0,6.84-2.11,7.2-5,.42-3.4-1.72-5.84-5.8-6.71a13.14,13.14,0,0,0-5.07-.24c-.49.09-1.05.21-1.1.82-.06.8.6,1,1.18,1,1.3,0,2.6,0,3.89-.13,2.77-.16,5.2,1.43,5.35,3.72.17,2.77-1.55,4.23-4,4.87s-4.8.1-7.19.17c-1.15,0-1.33-.76-1.2-1.62.17-1.21-.73-2.8.7-3.56,1.17-.62,1.29.6,1.24,1.35-.15,2.22,1.33,2,2.75,2,2.09-.12,4.49,0,5.32-2.41.5-1.51-1-2.08-2.21-2.21a30.2,30.2,0,0,0-5.7-.15c-2.22.17-2.27-1.14-2.1-2.64s-.93-3.5,2-3.3c2.3.16,4.63,0,6.9.32,5.63.74,8.34,5.11,6.93,10.65-.17.66-1.38,1.47-.17,2.29l0,0c-1.51-.31-1.87.91-2.45,1.83Z"/><path class="cls-1" d="M393.82,42.52l.11-.11c-4,3-8.74,2.35-13.31,2.39-.63,0-1.21-.27-1.22-1,0-1,.77-1,1.48-1.05,2.59-.15,5.17.31,7.76-.37,3.31-.87,5.14-3,5-6.14-.15-3-2.16-5-5.43-5.41-1.78-.22-3.57-.68-5.38-.32-.48.09-1.07.2-1.06.83s.61.67,1.1.69c1.6.06,3.21,0,4.8.17,2.27.25,4.08,1.22,4.31,3.79s-1.28,4.13-3.64,4.77-4.77.43-7.17.49c-1.09,0-1.43-.51-1.36-1.45.1-1.35-.59-3,.51-4,.74-.66,1.09.45,1,1.17-.16,2.5,1.8,2.08,3.11,2,1.94-.05,4.21.06,5.18-2.17.57-1.3-.51-2-1.63-2.38a16.51,16.51,0,0,0-6.25-.55c-2.62.23-1.91-1.66-2-3s-.33-2.92,2-2.68c1.49.15,3,0,4.51.05C395.07,28.72,398.38,35,393.82,42.52Z"/><path class="cls-1" d="M499.27,107.4c1.05,1.35,2.64,2.51,1.59,4.55L475.88,87v22.66c0,2.21,0,4.42,0,6.62,0,.55.16,1.29-.77,1.27-.76,0-1-.49-1-1.18,0-.2,0-.4,0-.6V82.44l12.62,12.23C490.69,99.08,494.81,103.41,499.27,107.4Z"/><path class="cls-4" d="M38.12,131.48a17.11,17.11,0,0,1-3.35,5.2c-.46.58-1.11,1-1.81.66s-.12-1,0-1.53c.69-2.89.09-5.71-.59-8.51,1.16-.77.77-2,.78-3,0-7.3,0-14.59.06-21.89a24.82,24.82,0,0,1,4.84,9.11c-.21.33-.59.66-.59,1q-.06,8.86,0,17.73C37.45,130.65,37.89,131.07,38.12,131.48Z"/><path class="cls-1" d="M241.23,26.62c-.34-1.42-.54-2.35,1.68-2.36,3.06,0,5.47.47,7,3.45a25.33,25.33,0,0,0,2.58,3.67c.66.91,1.44,1.94.57,2.95-1.24,1.43-1.51-1.16-2.85-.7a3.15,3.15,0,0,0,2,3.06c.91.35,1.33-1.2,1.86-2,2-2.87,4-5.74,5.86-8.69.87-1.35,1.84-2,3.43-1.46.27,1.79-2.57,2.45-1.54,4.47l0,0c-1.23.07-2.05.4-1.23,1.84l0,0c-1.43-.68-1.52.75-1.88,1.37-1.25,2.12-3.53,3.7-3.56,6.48v0c-1.39,0-1.73.49-1.22,1.83l0,0c-1.62.33-2.83,0-3.65-1.66a21,21,0,0,0-2.52-3.67c-2.18-2.84-3.75-6.16-6.54-8.54Zm9.35,7.18c-1.31-3.13-1.52-3.39-3.35-4.36C248,31.78,248.28,32.23,250.58,33.8Zm-5.66-7.34c1.05,2.15,1.05,2.15,2.45,2.6C246.74,27.53,246.74,27.53,244.92,26.46Z"/><path class="cls-1" d="M482.47,51.14c0-7.51,0-7.48,7.73-7.59,2.61,0,5.35,0,7.15-2.33,1.58-2.09,2.24-4.32,1.09-7s-3.08-3.57-5.62-3.75c-1.7-.13-3.41-.07-5.12-.08-.74,0-1.47-.07-1.45-1.06s.68-1.12,1.46-1.09a56.82,56.82,0,0,1,7.51.31c4,.65,6,4.12,5.81,9.5a7.38,7.38,0,0,1-6.71,7.26,72.47,72.47,0,0,1-7.8.35c-1.66,0-2.34.43-2.25,2.19.14,3.1.1,6.21.11,9.32,0,.65.26,1.62-.72,1.68s-1.2-.82-1.19-1.7C482.48,55.15,482.47,53.14,482.47,51.14Z"/><path class="cls-1" d="M496.29,98.24c-.47,2.21,1.68,2.57,3,4.67,0-6,0-11.14,0-16.26,0-.75-.54-2.08.85-2.07s1,1.28,1,2.12c0,6.08,0,12.17,0,18.25,0,.75.5,2-1.14,1.75q-6.31-6.39-12.65-12.76L474.68,82.86c2.46-2.31,3.54-1.65,4.66-.51q7.35,7.52,14.79,14.94c.54.53.9,2,2.21,1Z"/><path class="cls-1" d="M221,98c-1.77-3.31-.83-6.86-.75-10.29.06-2.22-1.55-5.14.34-6.49,1.48-1.06,4.26-.31,6.46-.38a4.12,4.12,0,0,0,2.35-.31v36.75c-2.52.54-4.35-.43-6.12-2.25-6-6.17-12.1-12.2-18.43-18.54v18.58l.8,0c.86-4.77-.14-9.71.58-14.84,1.79,1.09,1.85,2.5,1.87,3.83.06,3.81,0,7.63,0,11.44.05,2.41-1.65,1.7-2.92,1.82s-2.82.54-2.83-1.53c0-7.83,0-15.65.05-23.48,0-.25.32-.49.48-.73q6,5.91,12,11.79t11.94,11.8c1-1,.67-2,.67-3,0-9-.07-18.07.08-27.1,0-2.45-.94-2.71-3-2.8-2.35-.11-2.61,1-2.56,2.87.08,3.31,0,6.62,0,9.94,0,1.08.24,2.26-1.12,2.8Z"/><path class="cls-1" d="M223.91,107.09c1.06,1.35,2.64,2.51,1.6,4.55l-25-24.93v22.65c0,2.21,0,4.42,0,6.63,0,.54.16,1.28-.78,1.27-.75,0-1-.5-1-1.19,0-.2,0-.4,0-.6V82.13L211.3,94.36C215.34,98.77,219.45,103.1,223.91,107.09Z"/><path class="cls-1" d="M220.94,97.93c-.47,2.21,1.68,2.58,3,4.67,0-6,0-11.14,0-16.26,0-.75-.55-2.08.85-2.07s1,1.28,1,2.12c0,6.08,0,12.17,0,18.26,0,.74.5,2-1.14,1.74L212,93.63,199.33,82.55c2.46-2.3,3.54-1.64,4.65-.5,4.91,5,9.83,10,14.8,14.93.53.54.9,2,2.2,1Z"/><path class="cls-10" d="M29.53,121.19l-4.86-6.61a1.69,1.69,0,0,0,.65-1.58c-.26-5.57,1-11.09.63-16.67-.06-1-.37-2.24.82-3a30.16,30.16,0,0,1,4,5.52c-1,.86-.6,2-.61,3.08,0,5.38,0,10.76,0,16.14C30.13,119.14,30.53,120.32,29.53,121.19Z"/><path class="cls-1" d="M216.49,49.48c-1.19.64-.11,1.22.16,1.62a65.93,65.93,0,0,1,3.86,5.36c1.92,3.55,4.79,4,8.61,3.1l-8.07-10.9a17.77,17.77,0,0,1-1.37-2,1.31,1.31,0,0,1,.48-1.84c.72-.47,1.08.17,1.42.63,3.95,5.26,7.89,10.54,12.27,16.39H222.47c-.69,0-1.06-.47-1.42-1-2.34-3.13-4.76-6.21-7-9.43-.83-1.22-1.5-2.83.62-3.78l0,0c.16,1.07.31,2.14,1.84,1.83Z"/><path class="cls-2" d="M9,74.11a6.39,6.39,0,0,1,.65,3.47q0,8.39,0,16.75A6.39,6.39,0,0,1,9,97.8C3.76,90.84,3.77,82.12,9,74.11Z"/><path class="cls-8" d="M29.53,121.19c1-.87.6-2,.6-3.09,0-5.38,0-10.76,0-16.14,0-1-.4-2.22.61-3.08a9,9,0,0,1,2.43,3.52c0,7.3,0,14.59-.06,21.89,0,1,.38,2.24-.78,3C31.42,125.26,30.48,123.22,29.53,121.19Z"/><path class="cls-9" d="M26.77,93.36c-1.19.73-.88,1.94-.82,3,.37,5.58-.89,11.1-.63,16.67a1.69,1.69,0,0,1-.65,1.58,8.65,8.65,0,0,1-2.57-2.94c1.26-.86.78-2.16.79-3.29.07-6.66.08-13.33.11-20A27.32,27.32,0,0,1,26.77,93.36Z"/><path class="cls-1" d="M209.3,36.47V26.75c-1.59.18-1.21,1.18-1.22,1.87,0,2.9,0,5.8,0,8.7a3.86,3.86,0,0,1-1.92,3.9c0-5.37,0-10.39,0-15.41,0-1,.34-1.57,1.38-1.43,1.4.2,3.8-.77,4,.92.35,3.29.76,6.74-.34,10-.17.51-.75.88-1.14,1.31Z"/><path class="cls-11" d="M38.12,131.48c-.23-.41-.67-.83-.68-1.25q0-8.86,0-17.73c0-.33.38-.66.59-1C41,118.16,41.58,124.81,38.12,131.48Z"/><path class="cls-1" d="M308.75,43.18a15.14,15.14,0,0,1-15.29,15.24,15.39,15.39,0,0,1-15.28-15c-.23-8.31,6.54-15.05,15.28-15.2S308.66,34.32,308.75,43.18ZM293.51,30.1a12.88,12.88,0,0,0-13.22,13.3,13.34,13.34,0,0,0,13.46,13.25A13.49,13.49,0,0,0,306.87,43.3C307,35.83,301.17,30.12,293.51,30.1Z"/><path class="cls-1" d="M197.26,43.42a14.8,14.8,0,0,1-15.33,15,15.22,15.22,0,0,1-15-15.25c0-8.55,6.6-15,15.38-15S197.28,34.34,197.26,43.42ZM182.06,30.1a13,13,0,0,0-13.15,13.12,13.29,13.29,0,1,0,26.58,0C195.49,35.61,189.81,30.09,182.06,30.1Z"/><path class="cls-1" d="M437.26,43.55A14.79,14.79,0,0,1,422.1,58.42,15.22,15.22,0,0,1,407,43c0-8.49,6.77-14.95,15.51-14.85C431.42,28.29,437.3,34.4,437.26,43.55ZM422,30.1a13,13,0,0,0-13.07,13.48,13.29,13.29,0,1,0,26.58-.48C435.52,35.63,429.74,30.07,422,30.1Z"/><path class="cls-1" d="M178.76,84.44c8.39,0,14.37,6.18,14.43,14.8.06,8.41-6.62,14.89-15.22,14.78a14.87,14.87,0,0,1-14.55-15.24C163.51,90.58,170.13,84.39,178.76,84.44Zm12.51,14.8a12.64,12.64,0,0,0-12.8-13A13,13,0,0,0,165.3,99.33a13.12,13.12,0,0,0,13.11,12.92A12.81,12.81,0,0,0,191.27,99.24Z"/><path class="cls-1" d="M293.55,54.91A11.82,11.82,0,0,1,281.73,43a12,12,0,0,1,11.68-11.49A11.72,11.72,0,0,1,305.12,43.2,11.51,11.51,0,0,1,293.55,54.91Zm.06-2.09a9.47,9.47,0,0,0,9.62-9.76,9.73,9.73,0,0,0-9.66-9.53,9.83,9.83,0,0,0-9.81,9.72A9.56,9.56,0,0,0,293.61,52.82Z"/><path class="cls-1" d="M193.64,43.28c0,6.75-4.78,11.62-11.46,11.63a11.54,11.54,0,0,1-11.59-11.66,11.65,11.65,0,0,1,11.87-11.71A11.45,11.45,0,0,1,193.64,43.28Zm-1.8,0a9.54,9.54,0,0,0-9.61-9.8A9.83,9.83,0,0,0,172.48,43,9.42,9.42,0,0,0,182,52.82,9.3,9.3,0,0,0,191.84,43.32Z"/><path class="cls-1" d="M433.64,43.31a11.18,11.18,0,0,1-11.49,11.6,11.69,11.69,0,1,1,11.49-11.6Zm-1.79-.1a9.51,9.51,0,0,0-9.73-9.68,9.79,9.79,0,0,0-9.63,9.88,9.68,9.68,0,0,0,19.36-.2Z"/><path class="cls-1" d="M433.64,98.92a18.59,18.59,0,0,1,18.8-18.81c10.54,0,18.89,8.66,18.86,19.61,0,8.88-8.76,18-17.28,18.11C441.85,118,433.63,110.32,433.64,98.92Zm35.66,0a16.79,16.79,0,0,0-16.95-17c-9.18-.11-16.85,7.71-16.87,17.19A17.12,17.12,0,0,0,452.71,116,16.86,16.86,0,0,0,469.3,99Z"/><path class="cls-1" d="M467.45,99.3a14.8,14.8,0,0,1-15.16,14.87,15.23,15.23,0,0,1-15.13-15.39c0-8.48,6.77-14.94,15.52-14.84C461.6,84,467.48,90.15,467.45,99.3ZM452.17,85.85A13,13,0,0,0,439.1,99.33a13.29,13.29,0,1,0,26.58-.48C465.71,91.38,459.92,85.81,452.17,85.85Z"/><path class="cls-1" d="M463.83,99.06a11.19,11.19,0,0,1-11.5,11.6,11.69,11.69,0,1,1,.36-23.38C458.93,87.36,463.81,92.53,463.83,99.06ZM462,99a9.51,9.51,0,0,0-9.73-9.68,9.79,9.79,0,0,0-9.63,9.88,9.42,9.42,0,0,0,9.65,9.41A9.33,9.33,0,0,0,462,99Z"/><path class="cls-1" d="M178.61,87.92c6.36,0,11,4.83,11,11.36a10.92,10.92,0,0,1-11.4,11.29A11.21,11.21,0,0,1,167,99C167,92.53,171.9,87.88,178.61,87.92Zm-9.74,11.33c0,5.35,4,9.31,9.59,9.32a9.24,9.24,0,0,0,9.39-9.28,9.49,9.49,0,1,0-19,0Z"/></g></g></svg>